<svg xmlns="http://www.w3.org/2000/svg" xmlns:xlink="http://www.w3.org/1999/xlink" width="100" zoomAndPan="magnify" viewBox="0 0 75 74.999997" height="100" preserveAspectRatio="xMidYMid meet" version="1.0"><defs><clipPath id="16d3aac130"><path d="M 0 66 L 75 66 L 75 74.65625 L 0 74.65625 Z M 0 66 " clip-rule="nonzero"/></clipPath><clipPath id="2fe4d1bc3b"><path d="M 5 5.65625 L 41 5.65625 L 41 69 L 5 69 Z M 5 5.65625 " clip-rule="nonzero"/></clipPath></defs><g clip-path="url(#16d3aac130)"><path fill="#000000" d="M 74.984375 74.5625 L 0 74.5625 L 0 66.546875 L 74.984375 66.546875 Z M 1.660156 72.910156 L 73.324219 72.910156 L 73.324219 68.203125 L 1.660156 68.203125 Z M 1.660156 72.910156 " fill-opacity="1" fill-rule="nonzero"/></g><g clip-path="url(#2fe4d1bc3b)"><path fill="#000000" d="M 40.421875 68.203125 L 5.394531 68.203125 L 5.394531 5.757812 L 40.421875 5.757812 Z M 7.070312 66.546875 L 38.777344 66.546875 L 38.777344 7.414062 L 7.070312 7.414062 Z M 7.070312 66.546875 " fill-opacity="1" fill-rule="nonzero"/></g><path fill="#000000" d="M 69.59375 68.203125 L 38.761719 68.203125 L 38.761719 22.414062 L 69.59375 22.414062 Z M 40.421875 66.546875 L 67.929688 66.546875 L 67.929688 24.066406 L 40.421875 24.066406 Z M 40.421875 66.546875 " fill-opacity="1" fill-rule="nonzero"/><path fill="#000000" d="M 19.941406 17.105469 L 11.6875 17.105469 L 11.6875 10.578125 L 19.941406 10.578125 Z M 13.347656 15.453125 L 18.28125 15.453125 L 18.28125 12.230469 L 13.347656 12.230469 Z M 13.347656 15.453125 " fill-opacity="1" fill-rule="nonzero"/><path fill="#000000" d="M 19.941406 26.863281 L 11.6875 26.863281 L 11.6875 20.320312 L 19.941406 20.320312 Z M 13.347656 25.207031 L 18.28125 25.207031 L 18.28125 21.972656 L 13.347656 21.972656 Z M 13.347656 25.207031 " fill-opacity="1" fill-rule="nonzero"/><path fill="#000000" d="M 19.941406 36.589844 L 11.6875 36.589844 L 11.6875 30.0625 L 19.941406 30.0625 Z M 13.347656 34.949219 L 18.28125 34.949219 L 18.28125 31.710938 L 13.347656 31.710938 Z M 13.347656 34.949219 " fill-opacity="1" fill-rule="nonzero"/><path fill="#000000" d="M 19.941406 46.332031 L 11.6875 46.332031 L 11.6875 39.800781 L 19.941406 39.800781 Z M 13.347656 44.679688 L 18.28125 44.679688 L 18.28125 41.453125 L 13.347656 41.453125 Z M 13.347656 44.679688 " fill-opacity="1" fill-rule="nonzero"/><path fill="#000000" d="M 19.941406 56.074219 L 11.6875 56.074219 L 11.6875 49.542969 L 19.941406 49.542969 Z M 13.347656 54.421875 L 18.28125 54.421875 L 18.28125 51.195312 L 13.347656 51.195312 Z M 13.347656 54.421875 " fill-opacity="1" fill-rule="nonzero"/><path fill="#000000" d="M 33.527344 17.105469 L 25.273438 17.105469 L 25.273438 10.578125 L 33.527344 10.578125 Z M 26.9375 15.453125 L 31.882812 15.453125 L 31.882812 12.230469 L 26.9375 12.230469 Z M 26.9375 15.453125 " fill-opacity="1" fill-rule="nonzero"/><path fill="#000000" d="M 33.527344 26.863281 L 25.273438 26.863281 L 25.273438 20.320312 L 33.527344 20.320312 Z M 26.9375 25.207031 L 31.882812 25.207031 L 31.882812 21.972656 L 26.9375 21.972656 Z M 26.9375 25.207031 " fill-opacity="1" fill-rule="nonzero"/><path fill="#000000" d="M 33.527344 36.589844 L 25.273438 36.589844 L 25.273438 30.0625 L 33.527344 30.0625 Z M 26.9375 34.949219 L 31.882812 34.949219 L 31.882812 31.710938 L 26.9375 31.710938 Z M 26.9375 34.949219 " fill-opacity="1" fill-rule="nonzero"/><path fill="#000000" d="M 33.527344 46.332031 L 25.273438 46.332031 L 25.273438 39.800781 L 33.527344 39.800781 Z M 26.9375 44.679688 L 31.882812 44.679688 L 31.882812 41.453125 L 26.9375 41.453125 Z M 26.9375 44.679688 " fill-opacity="1" fill-rule="nonzero"/><path fill="#000000" d="M 33.527344 56.074219 L 25.273438 56.074219 L 25.273438 49.542969 L 33.527344 49.542969 Z M 26.9375 54.421875 L 31.882812 54.421875 L 31.882812 51.195312 L 26.9375 51.195312 Z M 26.9375 54.421875 " fill-opacity="1" fill-rule="nonzero"/><path fill="#000000" d="M 65.386719 34.152344 L 42.765625 34.152344 L 42.765625 28.574219 L 65.386719 28.574219 Z M 44.417969 32.488281 L 63.734375 32.488281 L 63.734375 30.226562 L 44.417969 30.226562 Z M 44.417969 32.488281 " fill-opacity="1" fill-rule="nonzero"/><path fill="#000000" d="M 65.386719 42.929688 L 42.765625 42.929688 L 42.765625 37.351562 L 65.386719 37.351562 Z M 44.417969 41.28125 L 63.734375 41.28125 L 63.734375 39.007812 L 44.417969 39.007812 Z M 44.417969 41.28125 " fill-opacity="1" fill-rule="nonzero"/><path fill="#000000" d="M 52.210938 51.195312 L 42.765625 51.195312 L 42.765625 44.679688 L 52.222656 44.679688 Z M 44.433594 49.542969 L 50.542969 49.542969 L 50.542969 46.332031 L 44.417969 46.332031 Z M 44.433594 49.542969 " fill-opacity="1" fill-rule="nonzero"/><path fill="#000000" d="M 65.386719 51.195312 L 55.941406 51.195312 L 55.941406 44.679688 L 65.386719 44.679688 Z M 57.609375 49.542969 L 63.742188 49.542969 L 63.742188 46.332031 L 57.609375 46.332031 Z M 57.609375 49.542969 " fill-opacity="1" fill-rule="nonzero"/><path fill="#000000" d="M 52.210938 60.109375 L 42.765625 60.109375 L 42.765625 53.589844 L 52.222656 53.589844 Z M 44.433594 58.457031 L 50.542969 58.457031 L 50.542969 55.246094 L 44.417969 55.246094 Z M 44.433594 58.457031 " fill-opacity="1" fill-rule="nonzero"/><path fill="#000000" d="M 65.386719 60.109375 L 55.941406 60.109375 L 55.941406 53.589844 L 65.386719 53.589844 Z M 57.609375 58.457031 L 63.742188 58.457031 L 63.742188 55.246094 L 57.609375 55.246094 Z M 57.609375 58.457031 " fill-opacity="1" fill-rule="nonzero"/><path fill="#000000" d="M 63.421875 23.90625 L 46.144531 23.90625 L 46.144531 15.671875 L 63.421875 15.671875 Z M 47.914062 22.148438 L 61.652344 22.148438 L 61.652344 17.429688 L 47.914062 17.429688 Z M 47.914062 22.148438 " fill-opacity="1" fill-rule="nonzero"/></svg>