<svg xmlns="http://www.w3.org/2000/svg" xmlns:xlink="http://www.w3.org/1999/xlink" width="200" zoomAndPan="magnify" viewBox="0 0 150 149.999998" height="200" preserveAspectRatio="xMidYMid meet" version="1.0"><defs><clipPath id="42a6257612"><path d="M 18.882812 18.882812 L 131.117188 18.882812 L 131.117188 131.117188 L 18.882812 131.117188 Z M 18.882812 18.882812 " clip-rule="nonzero"/></clipPath><clipPath id="87106ee3d3"><path d="M 75 18.882812 C 44.007812 18.882812 18.882812 44.007812 18.882812 75 C 18.882812 105.992188 44.007812 131.117188 75 131.117188 C 105.992188 131.117188 131.117188 105.992188 131.117188 75 C 131.117188 44.007812 105.992188 18.882812 75 18.882812 " clip-rule="nonzero"/></clipPath><clipPath id="ffccb24240"><path d="M 30.632812 18.882812 L 119.132812 18.882812 L 119.132812 132.132812 L 30.632812 132.132812 Z M 30.632812 18.882812 " clip-rule="nonzero"/></clipPath></defs><g clip-path="url(#42a6257612)"><g clip-path="url(#87106ee3d3)"><path fill="#fcc521" d="M 18.882812 18.882812 L 131.117188 18.882812 L 131.117188 131.117188 L 18.882812 131.117188 Z M 18.882812 18.882812 " fill-opacity="1" fill-rule="nonzero"/></g></g><g clip-path="url(#ffccb24240)"><path fill="#000000" d="M 35.941406 132.132812 L 113.820312 132.132812 C 116.742188 132.132812 119.132812 129.742188 119.132812 126.824219 L 119.132812 24.191406 C 119.132812 21.269531 116.742188 18.882812 113.820312 18.882812 L 35.941406 18.882812 C 33.023438 18.882812 30.632812 21.269531 30.632812 24.191406 L 30.632812 126.824219 C 30.632812 129.742188 33.023438 132.132812 35.941406 132.132812 Z M 34.171875 24.191406 C 34.171875 23.214844 34.96875 22.421875 35.941406 22.421875 L 113.820312 22.421875 C 114.792969 22.421875 115.589844 23.214844 115.589844 24.191406 L 115.589844 126.824219 C 115.589844 127.796875 114.792969 128.59375 113.820312 128.59375 L 35.941406 128.59375 C 34.96875 128.59375 34.171875 127.796875 34.171875 126.824219 Z M 34.171875 24.191406 " fill-opacity="1" fill-rule="nonzero"/></g><path fill="#000000" d="M 53.464844 39.671875 C 53.640625 39.671875 53.820312 39.671875 54.085938 39.671875 C 54.261719 39.671875 54.527344 39.585938 54.792969 39.585938 L 55.414062 37.371094 C 55.675781 37.460938 55.941406 37.460938 56.207031 37.550781 C 56.472656 37.636719 56.738281 37.636719 57.003906 37.636719 C 57.269531 37.636719 57.535156 37.636719 57.800781 37.550781 C 58.066406 37.460938 58.332031 37.460938 58.6875 37.371094 L 59.304688 39.585938 C 59.570312 39.585938 59.75 39.671875 60.015625 39.671875 C 60.191406 39.671875 60.457031 39.671875 60.632812 39.671875 C 61.074219 39.671875 61.605469 39.585938 62.226562 39.496094 L 58.597656 28.171875 C 58.242188 28.171875 57.980469 28.082031 57.714844 28.082031 C 57.449219 28.082031 57.269531 28.082031 57.003906 28.082031 C 56.738281 28.082031 56.472656 28.082031 56.296875 28.082031 C 56.03125 28.082031 55.765625 28.171875 55.5 28.171875 L 51.871094 39.496094 C 52.226562 39.585938 52.492188 39.585938 52.757812 39.585938 C 53.023438 39.671875 53.289062 39.671875 53.464844 39.671875 Z M 57.09375 31.179688 L 58.15625 35.25 C 57.980469 35.335938 57.800781 35.335938 57.625 35.335938 C 57.449219 35.335938 57.269531 35.335938 57.09375 35.335938 C 56.917969 35.335938 56.738281 35.335938 56.5625 35.25 C 56.386719 35.25 56.207031 35.160156 56.03125 35.160156 Z M 57.09375 31.179688 " fill-opacity="1" fill-rule="nonzero"/><path fill="#000000" d="M 63.730469 38.433594 C 64.085938 38.875 64.527344 39.230469 65.148438 39.40625 C 65.765625 39.585938 66.472656 39.761719 67.359375 39.761719 C 68.246094 39.761719 68.953125 39.671875 69.570312 39.40625 C 70.191406 39.140625 70.632812 38.875 70.988281 38.433594 C 71.34375 37.992188 71.519531 37.460938 71.695312 36.84375 C 71.871094 36.222656 71.871094 35.515625 71.871094 34.71875 L 71.871094 28.257812 C 71.519531 28.257812 71.253906 28.171875 71.078125 28.171875 C 70.8125 28.171875 70.632812 28.171875 70.457031 28.171875 C 70.28125 28.171875 70.101562 28.171875 69.835938 28.171875 C 69.570312 28.171875 69.304688 28.257812 69.039062 28.257812 L 69.039062 34.453125 C 69.039062 34.984375 69.039062 35.425781 68.953125 35.78125 C 68.953125 36.132812 68.863281 36.488281 68.6875 36.664062 C 68.597656 36.929688 68.421875 37.105469 68.15625 37.195312 C 67.980469 37.285156 67.714844 37.371094 67.359375 37.371094 C 67.003906 37.371094 66.738281 37.285156 66.5625 37.195312 C 66.386719 37.105469 66.207031 36.929688 66.121094 36.664062 C 66.03125 36.398438 65.945312 36.132812 65.855469 35.78125 C 65.855469 35.425781 65.765625 34.984375 65.765625 34.453125 L 65.765625 28.257812 C 65.414062 28.257812 65.148438 28.171875 64.96875 28.171875 C 64.703125 28.171875 64.527344 28.171875 64.351562 28.171875 C 64.171875 28.171875 63.90625 28.171875 63.730469 28.171875 C 63.464844 28.171875 63.199219 28.257812 62.933594 28.257812 L 62.933594 34.71875 C 62.933594 35.515625 63.023438 36.222656 63.113281 36.84375 C 63.113281 37.460938 63.378906 37.992188 63.730469 38.433594 Z M 63.730469 38.433594 " fill-opacity="1" fill-rule="nonzero"/><path fill="#000000" d="M 76.742188 39.851562 C 78.863281 39.851562 80.457031 39.40625 81.609375 38.433594 C 82.667969 37.460938 83.199219 36.046875 83.199219 34.011719 C 83.199219 32.0625 82.667969 30.558594 81.609375 29.5 C 80.546875 28.523438 78.953125 27.996094 76.917969 27.996094 C 76.652344 27.996094 76.296875 27.996094 76.03125 27.996094 C 75.765625 27.996094 75.414062 27.996094 75.148438 28.082031 C 74.882812 28.082031 74.617188 28.171875 74.351562 28.171875 C 74.085938 28.171875 73.910156 28.257812 73.730469 28.257812 L 73.730469 39.585938 C 74.261719 39.671875 74.703125 39.671875 75.234375 39.761719 C 75.679688 39.761719 76.121094 39.851562 76.742188 39.851562 Z M 76.5625 30.558594 C 76.5625 30.558594 76.652344 30.558594 76.742188 30.558594 C 76.828125 30.558594 77.003906 30.558594 77.183594 30.558594 C 77.535156 30.558594 77.980469 30.648438 78.332031 30.738281 C 78.6875 30.824219 79.042969 31.003906 79.308594 31.269531 C 79.570312 31.535156 79.75 31.886719 79.925781 32.328125 C 80.101562 32.773438 80.191406 33.304688 80.191406 34.011719 C 80.191406 34.71875 80.101562 35.25 79.925781 35.691406 C 79.75 36.132812 79.570312 36.488281 79.308594 36.753906 C 79.042969 37.019531 78.6875 37.195312 78.332031 37.285156 C 77.980469 37.371094 77.535156 37.460938 77.09375 37.460938 C 77.003906 37.460938 76.917969 37.460938 76.742188 37.460938 C 76.5625 37.460938 76.5625 37.460938 76.476562 37.460938 L 76.476562 30.558594 Z M 76.5625 30.558594 " fill-opacity="1" fill-rule="nonzero"/><path fill="#000000" d="M 87.714844 39.585938 L 87.714844 28.257812 C 87.449219 28.257812 87.183594 28.171875 86.917969 28.171875 C 86.652344 28.171875 86.476562 28.171875 86.296875 28.171875 C 86.121094 28.171875 85.945312 28.171875 85.679688 28.171875 C 85.414062 28.171875 85.148438 28.257812 84.882812 28.257812 L 84.882812 39.585938 C 85.414062 39.671875 85.945312 39.761719 86.296875 39.761719 C 86.652344 39.671875 87.09375 39.671875 87.714844 39.585938 Z M 87.714844 39.585938 " fill-opacity="1" fill-rule="nonzero"/><path fill="#000000" d="M 91.785156 30.648438 L 91.785156 39.496094 C 92.316406 39.585938 92.847656 39.671875 93.199219 39.671875 C 93.554688 39.671875 94.085938 39.585938 94.617188 39.496094 L 94.617188 30.648438 L 97.359375 30.648438 C 97.449219 30.117188 97.449219 29.765625 97.449219 29.410156 C 97.449219 29.234375 97.449219 29.054688 97.449219 28.878906 C 97.449219 28.703125 97.359375 28.4375 97.359375 28.257812 L 89.042969 28.257812 C 88.953125 28.703125 88.863281 29.144531 88.863281 29.5 C 88.863281 29.851562 88.953125 30.292969 89.042969 30.738281 L 91.785156 30.738281 Z M 91.785156 30.648438 " fill-opacity="1" fill-rule="nonzero"/><path fill="#000000" d="M 50.101562 46.308594 L 99.660156 46.308594 C 100.636719 46.308594 101.429688 45.511719 101.429688 44.539062 C 101.429688 43.566406 100.636719 42.769531 99.660156 42.769531 L 50.101562 42.769531 C 49.128906 42.769531 48.332031 43.566406 48.332031 44.539062 C 48.332031 45.511719 49.128906 46.308594 50.101562 46.308594 Z M 50.101562 46.308594 " fill-opacity="1" fill-rule="nonzero"/><path fill="#000000" d="M 79.484375 88.867188 C 80.367188 88.421875 80.8125 87.449219 80.367188 86.566406 L 73.464844 71.257812 L 81.875 56.75 C 82.402344 55.863281 82.050781 54.800781 81.253906 54.359375 C 71.960938 48.964844 60.015625 52.148438 54.617188 61.527344 C 49.21875 70.816406 52.402344 82.761719 61.785156 88.160156 C 64.792969 89.929688 68.15625 90.722656 71.519531 90.722656 C 74.171875 90.546875 76.917969 90.015625 79.484375 88.867188 Z M 63.464844 84.882812 C 55.855469 80.460938 53.199219 70.726562 57.625 63.121094 C 59.75 59.492188 63.199219 56.835938 67.269531 55.777344 C 68.6875 55.421875 70.101562 55.246094 71.429688 55.246094 C 73.554688 55.246094 75.765625 55.6875 77.714844 56.570312 L 69.925781 70.199219 C 69.660156 70.726562 69.570312 71.257812 69.835938 71.789062 L 76.386719 86.210938 C 72.136719 87.628906 67.449219 87.097656 63.464844 84.882812 Z M 63.464844 84.882812 " fill-opacity="1" fill-rule="nonzero"/><path fill="#000000" d="M 97.714844 71.082031 C 97.714844 64.535156 94.441406 58.429688 88.953125 54.800781 C 88.597656 54.539062 88.066406 54.449219 87.625 54.539062 C 87.183594 54.625 86.742188 54.890625 86.476562 55.332031 L 76.742188 70.109375 C 76.386719 70.640625 76.386719 71.257812 76.5625 71.789062 L 83.464844 88.070312 C 83.644531 88.511719 83.996094 88.867188 84.441406 89.042969 C 84.617188 89.132812 84.882812 89.132812 85.148438 89.132812 C 85.414062 89.132812 85.589844 89.042969 85.855469 88.953125 C 93.023438 85.945312 97.714844 78.957031 97.714844 71.082031 Z M 86.03125 84.972656 L 80.28125 71.257812 L 88.421875 58.785156 C 92.050781 61.792969 94.175781 66.214844 94.175781 71.082031 C 94.175781 76.921875 91.078125 82.230469 86.03125 84.972656 Z M 86.03125 84.972656 " fill-opacity="1" fill-rule="nonzero"/><path fill="#000000" d="M 43.023438 101.164062 L 45.675781 101.164062 C 46.652344 101.164062 47.445312 100.367188 47.445312 99.394531 C 47.445312 98.421875 46.652344 97.625 45.675781 97.625 L 43.023438 97.625 C 42.050781 97.625 41.253906 98.421875 41.253906 99.394531 C 41.253906 100.367188 42.050781 101.164062 43.023438 101.164062 Z M 43.023438 101.164062 " fill-opacity="1" fill-rule="nonzero"/><path fill="#000000" d="M 96.210938 97.625 L 91.429688 97.625 C 90.457031 97.625 89.660156 98.421875 89.660156 99.394531 C 89.660156 100.367188 90.457031 101.164062 91.429688 101.164062 L 96.210938 101.164062 C 97.183594 101.164062 97.980469 100.367188 97.980469 99.394531 C 97.980469 98.421875 97.183594 97.625 96.210938 97.625 Z M 96.210938 97.625 " fill-opacity="1" fill-rule="nonzero"/><path fill="#000000" d="M 58.332031 97.625 L 53.554688 97.625 C 52.582031 97.625 51.785156 98.421875 51.785156 99.394531 C 51.785156 100.367188 52.582031 101.164062 53.554688 101.164062 L 58.332031 101.164062 C 59.304688 101.164062 60.101562 100.367188 60.101562 99.394531 C 60.101562 98.421875 59.304688 97.625 58.332031 97.625 Z M 58.332031 97.625 " fill-opacity="1" fill-rule="nonzero"/><path fill="#000000" d="M 70.898438 97.625 L 66.121094 97.625 C 65.148438 97.625 64.351562 98.421875 64.351562 99.394531 C 64.351562 100.367188 65.148438 101.164062 66.121094 101.164062 L 70.898438 101.164062 C 71.871094 101.164062 72.667969 100.367188 72.667969 99.394531 C 72.667969 98.421875 71.871094 97.625 70.898438 97.625 Z M 70.898438 97.625 " fill-opacity="1" fill-rule="nonzero"/><path fill="#000000" d="M 83.554688 97.625 L 78.777344 97.625 C 77.800781 97.625 77.003906 98.421875 77.003906 99.394531 C 77.003906 100.367188 77.800781 101.164062 78.777344 101.164062 L 83.554688 101.164062 C 84.527344 101.164062 85.324219 100.367188 85.324219 99.394531 C 85.324219 98.421875 84.527344 97.625 83.554688 97.625 Z M 83.554688 97.625 " fill-opacity="1" fill-rule="nonzero"/><path fill="#000000" d="M 104.085938 101.164062 L 106.742188 101.164062 C 107.714844 101.164062 108.511719 100.367188 108.511719 99.394531 C 108.511719 98.421875 107.714844 97.625 106.742188 97.625 L 104.085938 97.625 C 103.113281 97.625 102.316406 98.421875 102.316406 99.394531 C 102.316406 100.367188 103.113281 101.164062 104.085938 101.164062 Z M 104.085938 101.164062 " fill-opacity="1" fill-rule="nonzero"/><path fill="#000000" d="M 43.023438 113.550781 L 45.675781 113.550781 C 46.652344 113.550781 47.445312 112.753906 47.445312 111.78125 C 47.445312 110.808594 46.652344 110.011719 45.675781 110.011719 L 43.023438 110.011719 C 42.050781 110.011719 41.253906 110.808594 41.253906 111.78125 C 41.253906 112.753906 42.050781 113.550781 43.023438 113.550781 Z M 43.023438 113.550781 " fill-opacity="1" fill-rule="nonzero"/><path fill="#000000" d="M 96.210938 110.011719 L 91.429688 110.011719 C 90.457031 110.011719 89.660156 110.808594 89.660156 111.78125 C 89.660156 112.753906 90.457031 113.550781 91.429688 113.550781 L 96.210938 113.550781 C 97.183594 113.550781 97.980469 112.753906 97.980469 111.78125 C 97.980469 110.808594 97.183594 110.011719 96.210938 110.011719 Z M 96.210938 110.011719 " fill-opacity="1" fill-rule="nonzero"/><path fill="#000000" d="M 83.554688 110.011719 L 78.777344 110.011719 C 77.800781 110.011719 77.003906 110.808594 77.003906 111.78125 C 77.003906 112.753906 77.800781 113.550781 78.777344 113.550781 L 83.554688 113.550781 C 84.527344 113.550781 85.324219 112.753906 85.324219 111.78125 C 85.324219 110.808594 84.527344 110.011719 83.554688 110.011719 Z M 83.554688 110.011719 " fill-opacity="1" fill-rule="nonzero"/><path fill="#000000" d="M 58.332031 110.011719 L 53.554688 110.011719 C 52.582031 110.011719 51.785156 110.808594 51.785156 111.78125 C 51.785156 112.753906 52.582031 113.550781 53.554688 113.550781 L 58.332031 113.550781 C 59.304688 113.550781 60.101562 112.753906 60.101562 111.78125 C 60.101562 110.808594 59.304688 110.011719 58.332031 110.011719 Z M 58.332031 110.011719 " fill-opacity="1" fill-rule="nonzero"/><path fill="#000000" d="M 70.898438 110.011719 L 66.121094 110.011719 C 65.148438 110.011719 64.351562 110.808594 64.351562 111.78125 C 64.351562 112.753906 65.148438 113.550781 66.121094 113.550781 L 70.898438 113.550781 C 71.871094 113.550781 72.667969 112.753906 72.667969 111.78125 C 72.667969 110.808594 71.871094 110.011719 70.898438 110.011719 Z M 70.898438 110.011719 " fill-opacity="1" fill-rule="nonzero"/><path fill="#000000" d="M 104.085938 113.550781 L 106.742188 113.550781 C 107.714844 113.550781 108.511719 112.753906 108.511719 111.78125 C 108.511719 110.808594 107.714844 110.011719 106.742188 110.011719 L 104.085938 110.011719 C 103.113281 110.011719 102.316406 110.808594 102.316406 111.78125 C 102.316406 112.753906 103.113281 113.550781 104.085938 113.550781 Z M 104.085938 113.550781 " fill-opacity="1" fill-rule="nonzero"/></svg>