<svg xmlns="http://www.w3.org/2000/svg" xmlns:xlink="http://www.w3.org/1999/xlink" width="100" zoomAndPan="magnify" viewBox="0 0 75 74.999997" height="100" preserveAspectRatio="xMidYMid meet" version="1.0"><defs><clipPath id="db1c9004f8"><path d="M 16.296875 10.359375 L 59.046875 10.359375 L 59.046875 64.359375 L 16.296875 64.359375 Z M 16.296875 10.359375 " clip-rule="nonzero"/></clipPath></defs><path fill="#fcc521" d="M 75 37.5 C 75 38.726562 74.941406 39.953125 74.820312 41.175781 C 74.699219 42.398438 74.519531 43.609375 74.28125 44.816406 C 74.039062 46.019531 73.742188 47.210938 73.386719 48.386719 C 73.027344 49.5625 72.617188 50.714844 72.144531 51.851562 C 71.675781 52.984375 71.152344 54.09375 70.570312 55.175781 C 69.992188 56.261719 69.363281 57.3125 68.679688 58.332031 C 67.996094 59.355469 67.265625 60.339844 66.488281 61.289062 C 65.707031 62.238281 64.886719 63.148438 64.015625 64.015625 C 63.148438 64.886719 62.238281 65.707031 61.289062 66.488281 C 60.339844 67.265625 59.355469 67.996094 58.332031 68.679688 C 57.3125 69.363281 56.261719 69.992188 55.175781 70.570312 C 54.09375 71.152344 52.984375 71.675781 51.851562 72.144531 C 50.714844 72.617188 49.5625 73.027344 48.386719 73.386719 C 47.210938 73.742188 46.019531 74.039062 44.816406 74.28125 C 43.609375 74.519531 42.398438 74.699219 41.175781 74.820312 C 39.953125 74.941406 38.726562 75 37.5 75 C 36.273438 75 35.046875 74.941406 33.824219 74.820312 C 32.601562 74.699219 31.390625 74.519531 30.183594 74.28125 C 28.980469 74.039062 27.789062 73.742188 26.613281 73.386719 C 25.4375 73.027344 24.285156 72.617188 23.148438 72.144531 C 22.015625 71.675781 20.90625 71.152344 19.824219 70.570312 C 18.738281 69.992188 17.6875 69.363281 16.667969 68.679688 C 15.644531 67.996094 14.660156 67.265625 13.710938 66.488281 C 12.761719 65.707031 11.851562 64.886719 10.984375 64.015625 C 10.113281 63.148438 9.292969 62.238281 8.511719 61.289062 C 7.734375 60.339844 7.003906 59.355469 6.320312 58.332031 C 5.636719 57.3125 5.007812 56.261719 4.429688 55.175781 C 3.847656 54.09375 3.324219 52.984375 2.855469 51.851562 C 2.382812 50.714844 1.972656 49.5625 1.613281 48.386719 C 1.257812 47.210938 0.960938 46.019531 0.71875 44.816406 C 0.480469 43.609375 0.300781 42.398438 0.179688 41.175781 C 0.0585938 39.953125 0 38.726562 0 37.5 C 0 36.273438 0.0585938 35.046875 0.179688 33.824219 C 0.300781 32.601562 0.480469 31.390625 0.71875 30.183594 C 0.960938 28.980469 1.257812 27.789062 1.613281 26.613281 C 1.972656 25.4375 2.382812 24.285156 2.855469 23.148438 C 3.324219 22.015625 3.847656 20.90625 4.429688 19.824219 C 5.007812 18.738281 5.636719 17.6875 6.320312 16.667969 C 7.003906 15.644531 7.734375 14.660156 8.511719 13.710938 C 9.292969 12.761719 10.113281 11.851562 10.984375 10.984375 C 11.851562 10.113281 12.761719 9.292969 13.710938 8.511719 C 14.660156 7.734375 15.644531 7.003906 16.667969 6.320312 C 17.6875 5.636719 18.738281 5.007812 19.824219 4.429688 C 20.90625 3.847656 22.015625 3.324219 23.148438 2.855469 C 24.285156 2.382812 25.4375 1.972656 26.613281 1.613281 C 27.789062 1.257812 28.980469 0.960938 30.183594 0.71875 C 31.390625 0.480469 32.601562 0.300781 33.824219 0.179688 C 35.046875 0.0585938 36.273438 0 37.5 0 C 38.726562 0 39.953125 0.0585938 41.175781 0.179688 C 42.398438 0.300781 43.609375 0.480469 44.816406 0.71875 C 46.019531 0.960938 47.210938 1.257812 48.386719 1.613281 C 49.5625 1.972656 50.714844 2.382812 51.851562 2.855469 C 52.984375 3.324219 54.09375 3.847656 55.175781 4.429688 C 56.261719 5.007812 57.3125 5.636719 58.332031 6.320312 C 59.355469 7.003906 60.339844 7.734375 61.289062 8.511719 C 62.238281 9.292969 63.148438 10.113281 64.015625 10.984375 C 64.886719 11.851562 65.707031 12.761719 66.488281 13.710938 C 67.265625 14.660156 67.996094 15.644531 68.679688 16.667969 C 69.363281 17.6875 69.992188 18.738281 70.570312 19.824219 C 71.152344 20.90625 71.675781 22.015625 72.144531 23.148438 C 72.617188 24.285156 73.027344 25.4375 73.386719 26.613281 C 73.742188 27.789062 74.039062 28.980469 74.28125 30.183594 C 74.519531 31.390625 74.699219 32.601562 74.820312 33.824219 C 74.941406 35.046875 75 36.273438 75 37.5 Z M 75 37.5 " fill-opacity="1" fill-rule="nonzero"/><g clip-path="url(#db1c9004f8)"><path fill="#ffffff" d="M 18.863281 64.359375 L 56.480469 64.359375 C 57.894531 64.359375 59.046875 63.222656 59.046875 61.828125 L 59.046875 12.890625 C 59.046875 11.5 57.894531 10.359375 56.480469 10.359375 L 18.863281 10.359375 C 17.453125 10.359375 16.296875 11.5 16.296875 12.890625 L 16.296875 61.828125 C 16.296875 63.222656 17.453125 64.359375 18.863281 64.359375 Z M 18.007812 12.890625 C 18.007812 12.425781 18.390625 12.046875 18.863281 12.046875 L 56.480469 12.046875 C 56.953125 12.046875 57.335938 12.425781 57.335938 12.890625 L 57.335938 61.828125 C 57.335938 62.292969 56.953125 62.671875 56.480469 62.671875 L 18.863281 62.671875 C 18.390625 62.671875 18.007812 62.292969 18.007812 61.828125 Z M 18.007812 12.890625 " fill-opacity="1" fill-rule="nonzero"/></g><path fill="#ffffff" d="M 27.328125 20.273438 C 27.414062 20.273438 27.496094 20.273438 27.625 20.273438 C 27.710938 20.273438 27.839844 20.230469 27.96875 20.230469 L 28.265625 19.175781 C 28.394531 19.21875 28.523438 19.21875 28.652344 19.261719 C 28.78125 19.304688 28.910156 19.304688 29.035156 19.304688 C 29.164062 19.304688 29.292969 19.304688 29.421875 19.261719 C 29.550781 19.21875 29.679688 19.21875 29.847656 19.175781 L 30.148438 20.230469 C 30.277344 20.230469 30.363281 20.273438 30.492188 20.273438 C 30.574219 20.273438 30.703125 20.273438 30.789062 20.273438 C 31.003906 20.273438 31.257812 20.230469 31.558594 20.191406 L 29.804688 14.789062 C 29.636719 14.789062 29.507812 14.746094 29.378906 14.746094 C 29.25 14.746094 29.164062 14.746094 29.035156 14.746094 C 28.910156 14.746094 28.78125 14.746094 28.695312 14.746094 C 28.566406 14.746094 28.4375 14.789062 28.308594 14.789062 L 26.558594 20.191406 C 26.726562 20.230469 26.855469 20.230469 26.984375 20.230469 C 27.113281 20.273438 27.242188 20.273438 27.328125 20.273438 Z M 29.078125 16.222656 L 29.59375 18.164062 C 29.507812 18.207031 29.421875 18.207031 29.335938 18.207031 C 29.25 18.207031 29.164062 18.207031 29.078125 18.207031 C 28.992188 18.207031 28.910156 18.207031 28.824219 18.164062 C 28.738281 18.164062 28.652344 18.121094 28.566406 18.121094 Z M 29.078125 16.222656 " fill-opacity="1" fill-rule="nonzero"/><path fill="#ffffff" d="M 32.285156 19.683594 C 32.457031 19.894531 32.671875 20.0625 32.96875 20.148438 C 33.269531 20.230469 33.609375 20.316406 34.039062 20.316406 C 34.464844 20.316406 34.808594 20.273438 35.105469 20.148438 C 35.40625 20.019531 35.621094 19.894531 35.792969 19.683594 C 35.960938 19.472656 36.046875 19.21875 36.132812 18.925781 C 36.21875 18.628906 36.21875 18.292969 36.21875 17.910156 L 36.21875 14.832031 C 36.046875 14.832031 35.917969 14.789062 35.832031 14.789062 C 35.707031 14.789062 35.621094 14.789062 35.535156 14.789062 C 35.449219 14.789062 35.363281 14.789062 35.234375 14.789062 C 35.105469 14.789062 34.980469 14.832031 34.851562 14.832031 L 34.851562 17.785156 C 34.851562 18.039062 34.851562 18.25 34.808594 18.417969 C 34.808594 18.585938 34.765625 18.753906 34.679688 18.839844 C 34.636719 18.964844 34.550781 19.050781 34.421875 19.09375 C 34.335938 19.136719 34.210938 19.175781 34.039062 19.175781 C 33.867188 19.175781 33.738281 19.136719 33.652344 19.09375 C 33.566406 19.050781 33.484375 18.964844 33.441406 18.839844 C 33.398438 18.714844 33.355469 18.585938 33.3125 18.417969 C 33.3125 18.25 33.269531 18.039062 33.269531 17.785156 L 33.269531 14.832031 C 33.097656 14.832031 32.96875 14.789062 32.882812 14.789062 C 32.757812 14.789062 32.671875 14.789062 32.585938 14.789062 C 32.5 14.789062 32.371094 14.789062 32.285156 14.789062 C 32.15625 14.789062 32.027344 14.832031 31.902344 14.832031 L 31.902344 17.910156 C 31.902344 18.292969 31.945312 18.628906 31.988281 18.925781 C 31.988281 19.21875 32.113281 19.472656 32.285156 19.683594 Z M 32.285156 19.683594 " fill-opacity="1" fill-rule="nonzero"/><path fill="#ffffff" d="M 38.570312 20.359375 C 39.597656 20.359375 40.367188 20.148438 40.921875 19.683594 C 41.433594 19.21875 41.691406 18.542969 41.691406 17.574219 C 41.691406 16.644531 41.433594 15.929688 40.921875 15.421875 C 40.40625 14.957031 39.640625 14.707031 38.65625 14.707031 C 38.527344 14.707031 38.355469 14.707031 38.226562 14.707031 C 38.101562 14.707031 37.929688 14.707031 37.800781 14.746094 C 37.671875 14.746094 37.542969 14.789062 37.414062 14.789062 C 37.289062 14.789062 37.203125 14.832031 37.117188 14.832031 L 37.117188 20.230469 C 37.371094 20.273438 37.585938 20.273438 37.84375 20.316406 C 38.058594 20.316406 38.269531 20.359375 38.570312 20.359375 Z M 38.484375 15.929688 C 38.484375 15.929688 38.527344 15.929688 38.570312 15.929688 C 38.613281 15.929688 38.699219 15.929688 38.785156 15.929688 C 38.953125 15.929688 39.167969 15.972656 39.339844 16.011719 C 39.511719 16.054688 39.679688 16.140625 39.808594 16.265625 C 39.9375 16.394531 40.023438 16.5625 40.109375 16.773438 C 40.195312 16.984375 40.238281 17.238281 40.238281 17.574219 C 40.238281 17.910156 40.195312 18.164062 40.109375 18.375 C 40.023438 18.585938 39.9375 18.753906 39.808594 18.882812 C 39.679688 19.007812 39.511719 19.09375 39.339844 19.136719 C 39.167969 19.175781 38.953125 19.21875 38.742188 19.21875 C 38.699219 19.21875 38.65625 19.21875 38.570312 19.21875 C 38.484375 19.21875 38.484375 19.21875 38.441406 19.21875 L 38.441406 15.929688 Z M 38.484375 15.929688 " fill-opacity="1" fill-rule="nonzero"/><path fill="#ffffff" d="M 43.871094 20.230469 L 43.871094 14.832031 C 43.742188 14.832031 43.613281 14.789062 43.484375 14.789062 C 43.359375 14.789062 43.273438 14.789062 43.1875 14.789062 C 43.101562 14.789062 43.015625 14.789062 42.886719 14.789062 C 42.757812 14.789062 42.632812 14.832031 42.503906 14.832031 L 42.503906 20.230469 C 42.757812 20.273438 43.015625 20.316406 43.1875 20.316406 C 43.359375 20.273438 43.570312 20.273438 43.871094 20.230469 Z M 43.871094 20.230469 " fill-opacity="1" fill-rule="nonzero"/><path fill="#ffffff" d="M 45.835938 15.972656 L 45.835938 20.191406 C 46.09375 20.230469 46.351562 20.273438 46.519531 20.273438 C 46.691406 20.273438 46.949219 20.230469 47.207031 20.191406 L 47.207031 15.972656 L 48.53125 15.972656 C 48.574219 15.71875 48.574219 15.550781 48.574219 15.378906 C 48.574219 15.296875 48.574219 15.210938 48.574219 15.128906 C 48.574219 15.042969 48.53125 14.917969 48.53125 14.832031 L 44.511719 14.832031 C 44.46875 15.042969 44.425781 15.253906 44.425781 15.421875 C 44.425781 15.589844 44.46875 15.800781 44.511719 16.011719 L 45.835938 16.011719 Z M 45.835938 15.972656 " fill-opacity="1" fill-rule="nonzero"/><path fill="#ffffff" d="M 25.703125 23.4375 L 49.640625 23.4375 C 50.113281 23.4375 50.496094 23.058594 50.496094 22.59375 C 50.496094 22.128906 50.113281 21.75 49.640625 21.75 L 25.703125 21.75 C 25.230469 21.75 24.847656 22.128906 24.847656 22.59375 C 24.847656 23.058594 25.230469 23.4375 25.703125 23.4375 Z M 25.703125 23.4375 " fill-opacity="1" fill-rule="nonzero"/><path fill="#ffffff" d="M 39.894531 43.730469 C 40.324219 43.519531 40.535156 43.054688 40.324219 42.632812 L 36.988281 35.335938 L 41.050781 28.417969 C 41.304688 27.996094 41.136719 27.488281 40.75 27.277344 C 36.261719 24.703125 30.492188 26.222656 27.882812 30.695312 C 25.273438 35.125 26.8125 40.820312 31.34375 43.394531 C 32.796875 44.238281 34.421875 44.617188 36.046875 44.617188 C 37.332031 44.53125 38.65625 44.277344 39.894531 43.730469 Z M 32.15625 41.832031 C 28.480469 39.722656 27.199219 35.082031 29.335938 31.453125 C 30.363281 29.722656 32.027344 28.457031 33.996094 27.953125 C 34.679688 27.785156 35.363281 27.699219 36.003906 27.699219 C 37.03125 27.699219 38.101562 27.910156 39.039062 28.332031 L 35.277344 34.828125 C 35.148438 35.082031 35.105469 35.335938 35.234375 35.589844 L 38.398438 42.464844 C 36.347656 43.140625 34.082031 42.886719 32.15625 41.832031 Z M 32.15625 41.832031 " fill-opacity="1" fill-rule="nonzero"/><path fill="#ffffff" d="M 48.703125 35.25 C 48.703125 32.128906 47.121094 29.21875 44.46875 27.488281 C 44.296875 27.363281 44.042969 27.320312 43.828125 27.363281 C 43.613281 27.402344 43.402344 27.53125 43.273438 27.742188 L 38.570312 34.785156 C 38.398438 35.039062 38.398438 35.335938 38.484375 35.589844 L 41.820312 43.351562 C 41.90625 43.5625 42.074219 43.730469 42.289062 43.816406 C 42.375 43.855469 42.503906 43.855469 42.632812 43.855469 C 42.757812 43.855469 42.84375 43.816406 42.972656 43.773438 C 46.4375 42.339844 48.703125 39.003906 48.703125 35.25 Z M 43.058594 41.875 L 40.28125 35.335938 L 44.210938 29.386719 C 45.964844 30.820312 46.992188 32.929688 46.992188 35.25 C 46.992188 38.035156 45.496094 40.566406 43.058594 41.875 Z M 43.058594 41.875 " fill-opacity="1" fill-rule="nonzero"/><path fill="#ffffff" d="M 22.28125 49.59375 L 23.566406 49.59375 C 24.035156 49.59375 24.417969 49.214844 24.417969 48.75 C 24.417969 48.285156 24.035156 47.90625 23.566406 47.90625 L 22.28125 47.90625 C 21.8125 47.90625 21.425781 48.285156 21.425781 48.75 C 21.425781 49.214844 21.8125 49.59375 22.28125 49.59375 Z M 22.28125 49.59375 " fill-opacity="1" fill-rule="nonzero"/><path fill="#ffffff" d="M 47.976562 47.90625 L 45.667969 47.90625 C 45.195312 47.90625 44.8125 48.285156 44.8125 48.75 C 44.8125 49.214844 45.195312 49.59375 45.667969 49.59375 L 47.976562 49.59375 C 48.445312 49.59375 48.828125 49.214844 48.828125 48.75 C 48.828125 48.285156 48.445312 47.90625 47.976562 47.90625 Z M 47.976562 47.90625 " fill-opacity="1" fill-rule="nonzero"/><path fill="#ffffff" d="M 29.679688 47.90625 L 27.371094 47.90625 C 26.898438 47.90625 26.515625 48.285156 26.515625 48.75 C 26.515625 49.214844 26.898438 49.59375 27.371094 49.59375 L 29.679688 49.59375 C 30.148438 49.59375 30.53125 49.214844 30.53125 48.75 C 30.53125 48.285156 30.148438 47.90625 29.679688 47.90625 Z M 29.679688 47.90625 " fill-opacity="1" fill-rule="nonzero"/><path fill="#ffffff" d="M 35.75 47.90625 L 33.441406 47.90625 C 32.96875 47.90625 32.585938 48.285156 32.585938 48.75 C 32.585938 49.214844 32.96875 49.59375 33.441406 49.59375 L 35.75 49.59375 C 36.21875 49.59375 36.601562 49.214844 36.601562 48.75 C 36.601562 48.285156 36.21875 47.90625 35.75 47.90625 Z M 35.75 47.90625 " fill-opacity="1" fill-rule="nonzero"/><path fill="#ffffff" d="M 41.863281 47.90625 L 39.554688 47.90625 C 39.082031 47.90625 38.699219 48.285156 38.699219 48.75 C 38.699219 49.214844 39.082031 49.59375 39.554688 49.59375 L 41.863281 49.59375 C 42.332031 49.59375 42.714844 49.214844 42.714844 48.75 C 42.714844 48.285156 42.332031 47.90625 41.863281 47.90625 Z M 41.863281 47.90625 " fill-opacity="1" fill-rule="nonzero"/><path fill="#ffffff" d="M 51.78125 49.59375 L 53.0625 49.59375 C 53.53125 49.59375 53.917969 49.214844 53.917969 48.75 C 53.917969 48.285156 53.53125 47.90625 53.0625 47.90625 L 51.78125 47.90625 C 51.308594 47.90625 50.925781 48.285156 50.925781 48.75 C 50.925781 49.214844 51.308594 49.59375 51.78125 49.59375 Z M 51.78125 49.59375 " fill-opacity="1" fill-rule="nonzero"/><path fill="#ffffff" d="M 22.28125 55.5 L 23.566406 55.5 C 24.035156 55.5 24.417969 55.121094 24.417969 54.65625 C 24.417969 54.191406 24.035156 53.8125 23.566406 53.8125 L 22.28125 53.8125 C 21.8125 53.8125 21.425781 54.191406 21.425781 54.65625 C 21.425781 55.121094 21.8125 55.5 22.28125 55.5 Z M 22.28125 55.5 " fill-opacity="1" fill-rule="nonzero"/><path fill="#ffffff" d="M 47.976562 53.8125 L 45.667969 53.8125 C 45.195312 53.8125 44.8125 54.191406 44.8125 54.65625 C 44.8125 55.121094 45.195312 55.5 45.667969 55.5 L 47.976562 55.5 C 48.445312 55.5 48.828125 55.121094 48.828125 54.65625 C 48.828125 54.191406 48.445312 53.8125 47.976562 53.8125 Z M 47.976562 53.8125 " fill-opacity="1" fill-rule="nonzero"/><path fill="#ffffff" d="M 41.863281 53.8125 L 39.554688 53.8125 C 39.082031 53.8125 38.699219 54.191406 38.699219 54.65625 C 38.699219 55.121094 39.082031 55.5 39.554688 55.5 L 41.863281 55.5 C 42.332031 55.5 42.714844 55.121094 42.714844 54.65625 C 42.714844 54.191406 42.332031 53.8125 41.863281 53.8125 Z M 41.863281 53.8125 " fill-opacity="1" fill-rule="nonzero"/><path fill="#ffffff" d="M 29.679688 53.8125 L 27.371094 53.8125 C 26.898438 53.8125 26.515625 54.191406 26.515625 54.65625 C 26.515625 55.121094 26.898438 55.5 27.371094 55.5 L 29.679688 55.5 C 30.148438 55.5 30.53125 55.121094 30.53125 54.65625 C 30.53125 54.191406 30.148438 53.8125 29.679688 53.8125 Z M 29.679688 53.8125 " fill-opacity="1" fill-rule="nonzero"/><path fill="#ffffff" d="M 35.75 53.8125 L 33.441406 53.8125 C 32.96875 53.8125 32.585938 54.191406 32.585938 54.65625 C 32.585938 55.121094 32.96875 55.5 33.441406 55.5 L 35.75 55.5 C 36.21875 55.5 36.601562 55.121094 36.601562 54.65625 C 36.601562 54.191406 36.21875 53.8125 35.75 53.8125 Z M 35.75 53.8125 " fill-opacity="1" fill-rule="nonzero"/><path fill="#ffffff" d="M 51.78125 55.5 L 53.0625 55.5 C 53.53125 55.5 53.917969 55.121094 53.917969 54.65625 C 53.917969 54.191406 53.53125 53.8125 53.0625 53.8125 L 51.78125 53.8125 C 51.308594 53.8125 50.925781 54.191406 50.925781 54.65625 C 50.925781 55.121094 51.308594 55.5 51.78125 55.5 Z M 51.78125 55.5 " fill-opacity="1" fill-rule="nonzero"/></svg>