<svg xmlns="http://www.w3.org/2000/svg" xmlns:xlink="http://www.w3.org/1999/xlink" width="100" zoomAndPan="magnify" viewBox="0 0 75 74.999997" height="100" preserveAspectRatio="xMidYMid meet" version="1.0"><defs><clipPath id="969ceb95c6"><path d="M 10.054688 72 L 63.304688 72 L 63.304688 75 L 10.054688 75 Z M 10.054688 72 " clip-rule="nonzero"/></clipPath></defs><path fill="#231f20" d="M 33.207031 57.933594 L 37.394531 57.933594 L 37.394531 62.023438 L 33.207031 62.023438 Z M 33.207031 51.398438 L 37.394531 51.398438 L 37.394531 55.484375 L 33.207031 55.484375 Z M 33.207031 44.859375 L 37.394531 44.859375 L 37.394531 48.945312 L 33.207031 48.945312 Z M 33.207031 38.320312 L 37.394531 38.320312 L 37.394531 42.40625 L 33.207031 42.40625 Z M 33.207031 31.78125 L 37.394531 31.78125 L 37.394531 35.867188 L 33.207031 35.867188 Z M 33.207031 25.242188 L 37.394531 25.242188 L 37.394531 29.328125 L 33.207031 29.328125 Z M 33.207031 18.703125 L 37.394531 18.703125 L 37.394531 22.789062 L 33.207031 22.789062 Z M 33.207031 12.164062 L 37.394531 12.164062 L 37.394531 16.25 L 33.207031 16.25 Z M 33.207031 5.625 L 37.394531 5.625 L 37.394531 9.710938 L 33.207031 9.710938 Z M 39.59375 57.933594 L 43.78125 57.933594 L 43.78125 62.023438 L 39.59375 62.023438 Z M 39.59375 51.398438 L 43.78125 51.398438 L 43.78125 55.484375 L 39.59375 55.484375 Z M 39.59375 44.859375 L 43.78125 44.859375 L 43.78125 48.945312 L 39.59375 48.945312 Z M 39.59375 38.320312 L 43.78125 38.320312 L 43.78125 42.40625 L 39.59375 42.40625 Z M 39.59375 31.78125 L 43.78125 31.78125 L 43.78125 35.867188 L 39.59375 35.867188 Z M 39.59375 25.242188 L 43.78125 25.242188 L 43.78125 29.328125 L 39.59375 29.328125 Z M 39.59375 18.703125 L 43.78125 18.703125 L 43.78125 22.789062 L 39.59375 22.789062 Z M 39.59375 12.164062 L 43.78125 12.164062 L 43.78125 16.25 L 39.59375 16.25 Z M 39.59375 5.625 L 43.78125 5.625 L 43.78125 9.710938 L 39.59375 9.710938 Z M 45.980469 57.933594 L 50.167969 57.933594 L 50.167969 62.023438 L 45.980469 62.023438 Z M 45.980469 51.398438 L 50.167969 51.398438 L 50.167969 55.484375 L 45.980469 55.484375 Z M 45.980469 44.859375 L 50.167969 44.859375 L 50.167969 48.945312 L 45.980469 48.945312 Z M 45.980469 38.320312 L 50.167969 38.320312 L 50.167969 42.40625 L 45.980469 42.40625 Z M 45.980469 31.78125 L 50.167969 31.78125 L 50.167969 35.867188 L 45.980469 35.867188 Z M 45.980469 25.242188 L 50.167969 25.242188 L 50.167969 29.328125 L 45.980469 29.328125 Z M 45.980469 18.703125 L 50.167969 18.703125 L 50.167969 22.789062 L 45.980469 22.789062 Z M 45.980469 12.164062 L 50.167969 12.164062 L 50.167969 16.25 L 45.980469 16.25 Z M 45.980469 5.625 L 50.167969 5.625 L 50.167969 9.710938 L 45.980469 9.710938 Z M 33.207031 72.136719 L 33.207031 64.269531 L 50.167969 64.269531 L 50.167969 72.136719 L 54.457031 72.136719 L 54.457031 0.00390625 L 28.917969 0.00390625 L 28.917969 72.136719 L 33.207031 72.136719 " fill-opacity="1" fill-rule="nonzero"/><path fill="#322f30" d="M 28.917969 0.00390625 L 18.902344 8.996094 L 18.902344 72.136719 L 28.917969 72.136719 L 28.917969 0.00390625 " fill-opacity="1" fill-rule="nonzero"/><g clip-path="url(#969ceb95c6)"><path fill="#231f20" d="M 63.304688 72.136719 L 10.054688 72.136719 L 10.054688 74.996094 L 63.304688 74.996094 L 63.304688 72.136719 " fill-opacity="1" fill-rule="nonzero"/></g></svg>