<svg xmlns="http://www.w3.org/2000/svg" xmlns:xlink="http://www.w3.org/1999/xlink" width="100" zoomAndPan="magnify" viewBox="0 0 75 74.999997" height="100" preserveAspectRatio="xMidYMid meet" version="1.0"><defs><clipPath id="23f301c6ec"><path d="M 7.5 4.964844 L 70.5 4.964844 L 70.5 74.714844 L 7.5 74.714844 Z M 7.5 4.964844 " clip-rule="nonzero"/></clipPath></defs><g clip-path="url(#23f301c6ec)"><path fill="#000000" d="M 23.515625 15.542969 L 27.742188 15.542969 L 27.742188 19.734375 L 23.515625 19.734375 Z M 33.660156 19.734375 L 37.890625 19.734375 L 37.890625 15.542969 L 33.660156 15.542969 Z M 23.515625 27.691406 L 27.742188 27.691406 L 27.742188 23.503906 L 23.515625 23.503906 Z M 33.660156 27.691406 L 37.890625 27.691406 L 37.890625 23.503906 L 33.660156 23.503906 Z M 23.515625 35.652344 L 27.742188 35.652344 L 27.742188 31.464844 L 23.515625 31.464844 Z M 33.660156 35.652344 L 37.890625 35.652344 L 37.890625 31.464844 L 33.660156 31.464844 Z M 23.515625 43.613281 L 27.742188 43.613281 L 27.742188 39.421875 L 23.515625 39.421875 Z M 33.660156 43.613281 L 37.890625 43.613281 L 37.890625 39.421875 L 33.660156 39.421875 Z M 23.515625 51.570312 L 27.742188 51.570312 L 27.742188 47.382812 L 23.515625 47.382812 Z M 33.660156 51.570312 L 37.890625 51.570312 L 37.890625 47.382812 L 33.660156 47.382812 Z M 23.515625 59.53125 L 27.742188 59.53125 L 27.742188 55.339844 L 23.515625 55.339844 Z M 33.660156 59.53125 L 37.890625 59.53125 L 37.890625 55.339844 L 33.660156 55.339844 Z M 51.3125 39.632812 L 55.542969 39.632812 L 55.542969 35.441406 L 51.3125 35.441406 Z M 51.3125 47.589844 L 55.542969 47.589844 L 55.542969 43.402344 L 51.3125 43.402344 Z M 51.3125 55.550781 L 55.542969 55.550781 L 55.542969 51.363281 L 51.3125 51.363281 Z M 51.3125 63.511719 L 55.542969 63.511719 L 55.542969 59.320312 L 51.3125 59.320312 Z M 70.5 73.40625 C 70.5 74.140625 69.917969 74.714844 69.179688 74.714844 L 8.820312 74.714844 C 8.082031 74.714844 7.5 74.140625 7.5 73.40625 C 7.5 72.675781 8.082031 72.097656 8.820312 72.097656 L 15.21875 72.097656 L 15.21875 9.992188 C 15.21875 9.261719 15.796875 8.683594 16.539062 8.683594 L 21.03125 8.683594 L 21.03125 6.277344 C 21.03125 5.542969 21.613281 4.964844 22.351562 4.964844 L 39.054688 4.964844 C 39.792969 4.964844 40.375 5.542969 40.375 6.277344 L 40.375 8.683594 L 44.867188 8.683594 C 45.605469 8.683594 46.1875 9.261719 46.1875 9.992188 L 46.1875 26.332031 L 61.515625 26.332031 C 62.253906 26.332031 62.835938 26.90625 62.835938 27.640625 L 62.835938 72.046875 L 69.230469 72.046875 C 69.917969 72.097656 70.5 72.675781 70.5 73.40625 Z M 35.195312 72.097656 L 35.195312 65.972656 L 26.210938 65.972656 L 26.210938 72.097656 Z M 60.191406 72.097656 L 60.191406 29.003906 L 46.1875 29.003906 L 46.1875 67.488281 L 43.546875 67.488281 L 43.546875 11.300781 L 26.898438 11.300781 L 26.898438 8.683594 L 37.679688 8.683594 L 37.679688 7.585938 L 23.671875 7.585938 L 23.671875 9.992188 C 23.671875 10.726562 23.089844 11.300781 22.351562 11.300781 L 17.859375 11.300781 L 17.859375 72.046875 L 23.566406 72.046875 L 23.566406 64.609375 C 23.566406 63.878906 24.148438 63.300781 24.890625 63.300781 L 36.515625 63.300781 C 37.257812 63.300781 37.835938 63.878906 37.835938 64.609375 L 37.835938 72.046875 L 60.191406 72.046875 Z M 60.191406 72.097656 " fill-opacity="1" fill-rule="nonzero"/></g></svg>