<svg xmlns="http://www.w3.org/2000/svg" xmlns:xlink="http://www.w3.org/1999/xlink" width="100" zoomAndPan="magnify" viewBox="0 0 75 74.999997" height="100" preserveAspectRatio="xMidYMid meet" version="1.0"><defs><clipPath id="0c94fffab6"><path d="M 1.265625 4 L 73 4 L 73 75 L 1.265625 75 Z M 1.265625 4 " clip-rule="nonzero"/></clipPath><clipPath id="73fbc3faa1"><path d="M 15 0 L 74.015625 0 L 74.015625 60 L 15 60 Z M 15 0 " clip-rule="nonzero"/></clipPath></defs><rect x="-7.5" width="90" fill="#ffffff" y="-7.5" height="89.999996" fill-opacity="1"/><rect x="-7.5" width="90" fill="#ffffff" y="-7.5" height="89.999996" fill-opacity="1"/><rect x="-7.5" width="90" fill="#ffffff" y="-7.5" height="89.999996" fill-opacity="1"/><g clip-path="url(#0c94fffab6)"><path fill="#fcc521" d="M 36.796875 4.179688 C 17.210938 4.179688 1.265625 20.066406 1.265625 39.574219 C 1.265625 59.085938 17.210938 74.96875 36.796875 74.96875 C 56.382812 74.96875 72.328125 59.085938 72.328125 39.574219 C 72.328125 31.140625 69.464844 23.597656 64.597656 17.417969 L 61.253906 21.371094 C 65.496094 26.570312 67.15625 32.347656 67.15625 39.574219 C 67.15625 56.296875 53.582031 69.808594 36.796875 69.808594 C 20.011719 69.808594 6.441406 56.296875 6.441406 39.574219 C 6.441406 22.855469 20.011719 9.335938 36.796875 9.335938 C 42.117188 9.335938 46.09375 10.097656 50.4375 12.488281 L 53.613281 8.328125 C 48.53125 5.53125 43.003906 4.179688 36.796875 4.179688 Z M 36.796875 4.179688 " fill-opacity="1" fill-rule="evenodd"/></g><g clip-path="url(#73fbc3faa1)"><path fill="#fcc521" d="M 23.648438 34.921875 C 25.078125 34.921875 26.164062 36.09375 26.898438 38.433594 C 28.367188 42.824219 29.414062 45.023438 30.039062 45.023438 C 30.515625 45.023438 31.011719 44.65625 31.527344 43.921875 C 41.851562 27.457031 51.402344 14.132812 60.183594 3.960938 C 62.460938 1.324219 66.082031 0.0078125 71.039062 0.0078125 C 72.214844 0.0078125 73.003906 0.117188 73.410156 0.335938 C 73.8125 0.558594 74.015625 0.832031 74.015625 1.160156 C 74.015625 1.671875 73.410156 2.679688 72.199219 4.179688 C 58.015625 21.160156 44.863281 39.09375 32.738281 57.976562 C 31.894531 59.292969 30.167969 59.953125 27.558594 59.953125 C 24.914062 59.953125 23.351562 59.84375 22.875 59.625 C 21.625 59.074219 20.15625 56.277344 18.464844 51.226562 C 16.554688 45.625 15.601562 42.113281 15.601562 40.683594 C 15.601562 39.148438 16.886719 37.664062 19.457031 36.238281 C 21.039062 35.359375 22.433594 34.921875 23.648438 34.921875 " fill-opacity="1" fill-rule="nonzero"/></g></svg>