<svg xmlns="http://www.w3.org/2000/svg" xmlns:xlink="http://www.w3.org/1999/xlink" width="200" zoomAndPan="magnify" viewBox="0 0 150 149.999998" height="200" preserveAspectRatio="xMidYMid meet" version="1.0"><defs><clipPath id="8ab06cb630"><path d="M 18.882812 18.882812 L 131.117188 18.882812 L 131.117188 131.117188 L 18.882812 131.117188 Z M 18.882812 18.882812 " clip-rule="nonzero"/></clipPath><clipPath id="05d1905ea5"><path d="M 75 18.882812 C 44.007812 18.882812 18.882812 44.007812 18.882812 75 C 18.882812 105.992188 44.007812 131.117188 75 131.117188 C 105.992188 131.117188 131.117188 105.992188 131.117188 75 C 131.117188 44.007812 105.992188 18.882812 75 18.882812 " clip-rule="nonzero"/></clipPath><clipPath id="be9c589d96"><path d="M 22.710938 18.882812 L 126.960938 18.882812 L 126.960938 123.132812 L 22.710938 123.132812 Z M 22.710938 18.882812 " clip-rule="nonzero"/></clipPath></defs><g clip-path="url(#8ab06cb630)"><g clip-path="url(#05d1905ea5)"><path fill="#d9d9d9" d="M 18.882812 18.882812 L 131.117188 18.882812 L 131.117188 131.117188 L 18.882812 131.117188 Z M 18.882812 18.882812 " fill-opacity="1" fill-rule="nonzero"/></g></g><path fill="#000000" d="M 98.375 39.058594 C 100.226562 39.058594 101.738281 40.570312 101.738281 42.421875 L 105.101562 42.421875 C 105.101562 39.296875 102.945312 36.6875 100.054688 35.933594 L 100.054688 32.332031 L 96.695312 32.332031 L 96.695312 35.695312 L 91.648438 35.695312 L 91.648438 42.421875 C 91.648438 46.132812 94.664062 49.148438 98.375 49.148438 C 100.226562 49.148438 101.738281 50.65625 101.738281 52.511719 L 101.738281 55.875 L 98.375 55.875 C 96.523438 55.875 95.011719 54.363281 95.011719 52.511719 L 91.648438 52.511719 C 91.648438 55.636719 93.804688 58.246094 96.695312 59 L 96.695312 62.597656 L 100.054688 62.597656 L 100.054688 59.234375 L 105.101562 59.234375 L 105.101562 52.511719 C 105.101562 48.800781 102.085938 45.785156 98.375 45.785156 C 96.523438 45.785156 95.011719 44.273438 95.011719 42.421875 L 95.011719 39.058594 L 98.375 39.058594 " fill-opacity="1" fill-rule="nonzero"/><path fill="#000000" d="M 110.144531 45.785156 L 110.144531 49.148438 L 113.507812 49.148438 L 113.507812 45.785156 L 110.144531 45.785156 " fill-opacity="1" fill-rule="nonzero"/><path fill="#000000" d="M 83.242188 49.148438 L 86.605469 49.148438 L 86.605469 45.785156 L 83.242188 45.785156 L 83.242188 49.148438 " fill-opacity="1" fill-rule="nonzero"/><path fill="#000000" d="M 98.375 102.953125 C 96.523438 102.953125 95.011719 101.441406 95.011719 99.589844 C 95.011719 97.738281 96.523438 96.226562 98.375 96.226562 C 100.226562 96.226562 101.738281 97.738281 101.738281 99.589844 C 101.738281 101.441406 100.226562 102.953125 98.375 102.953125 Z M 98.375 92.863281 C 94.664062 92.863281 91.648438 95.878906 91.648438 99.589844 C 91.648438 102.71875 93.804688 105.324219 96.695312 106.082031 L 96.695312 109.679688 L 100.054688 109.679688 L 100.054688 106.082031 C 102.945312 105.324219 105.101562 102.71875 105.101562 99.589844 C 105.101562 95.878906 102.085938 92.863281 98.375 92.863281 " fill-opacity="1" fill-rule="nonzero"/><g clip-path="url(#be9c589d96)"><path fill="#000000" d="M 98.375 65.960938 C 88.175781 65.960938 79.878906 57.667969 79.878906 47.464844 C 79.878906 37.265625 88.175781 28.96875 98.375 28.96875 C 108.574219 28.96875 116.871094 37.265625 116.871094 47.464844 C 116.871094 57.667969 108.574219 65.960938 98.375 65.960938 Z M 108.457031 70.539062 C 107.625 69.585938 106.65625 68.761719 105.585938 68.078125 C 114.097656 65.089844 120.234375 56.988281 120.234375 47.464844 C 120.234375 35.414062 110.425781 25.605469 98.375 25.605469 C 86.324219 25.605469 76.515625 35.414062 76.515625 47.464844 C 76.515625 56.988281 82.652344 65.089844 91.164062 68.078125 C 90.09375 68.761719 89.128906 69.585938 88.292969 70.539062 C 84.082031 68.707031 80.488281 65.796875 77.828125 62.058594 C 77.207031 58.632812 75.78125 55.484375 73.757812 52.8125 C 73.371094 51.007812 73.152344 49.207031 73.152344 47.464844 C 73.152344 33.554688 84.464844 22.242188 98.375 22.242188 C 112.285156 22.242188 123.597656 33.554688 123.597656 47.464844 C 123.597656 57.4375 117.554688 66.554688 108.457031 70.539062 Z M 111.828125 101.273438 C 111.828125 107.761719 106.546875 113.042969 100.054688 113.042969 L 96.695312 113.042969 C 90.203125 113.042969 84.921875 107.761719 84.921875 101.273438 L 84.921875 91.183594 C 84.921875 90.257812 85.679688 89.503906 86.605469 89.503906 L 110.144531 89.503906 C 111.070312 89.503906 111.828125 90.257812 111.828125 91.183594 Z M 77.894531 119.769531 L 76.484375 112.714844 L 73.1875 113.371094 L 74.46875 119.769531 L 62.589844 119.769531 L 59.832031 111.492188 L 61.285156 108.597656 L 63.890625 111.210938 L 66.527344 101.996094 L 76.832031 106.5 C 82.25 108.871094 85.921875 113.96875 86.519531 119.769531 Z M 35.847656 106.5 L 45.507812 102.269531 L 49.003906 110.992188 L 51.394531 108.597656 L 52.84375 111.492188 L 50.085938 119.769531 L 38.210938 119.769531 L 39.492188 113.371094 L 36.195312 112.714844 L 34.78125 119.769531 L 26.15625 119.769531 C 26.753906 113.96875 30.425781 108.871094 35.847656 106.5 Z M 51.109375 99.242188 L 53.824219 101.410156 L 50.222656 105.003906 L 48.59375 100.925781 L 48.941406 100.773438 C 49.777344 100.40625 50.507812 99.875 51.109375 99.242188 Z M 55.929688 96.175781 L 56.339844 96.28125 L 56.746094 96.175781 C 57.785156 95.917969 58.78125 95.570312 59.742188 95.15625 C 59.773438 95.53125 59.832031 95.894531 59.917969 96.253906 L 56.339844 99.117188 L 52.757812 96.253906 C 52.84375 95.894531 52.902344 95.53125 52.9375 95.15625 C 53.894531 95.570312 54.894531 95.917969 55.929688 96.175781 Z M 44.570312 77.316406 L 44.570312 72.6875 C 47.144531 72.667969 49.664062 71.773438 51.675781 70.164062 L 54.695312 67.75 C 57.507812 65.503906 61.804688 65.4375 64.679688 67.589844 L 68.109375 70.164062 L 68.109375 77.316406 C 68.109375 84.570312 63.289062 90.875 56.339844 92.804688 C 49.390625 90.875 44.570312 84.570312 44.570312 77.316406 Z M 62.238281 104.785156 L 58.855469 101.410156 L 61.566406 99.242188 C 62.097656 99.792969 62.722656 100.261719 63.425781 100.609375 Z M 56.984375 109.679688 L 55.695312 109.679688 L 53.902344 106.085938 L 56.339844 103.648438 L 58.777344 106.085938 Z M 55.867188 113.042969 L 56.8125 113.042969 L 59.050781 119.769531 L 53.625 119.769531 Z M 101.738281 86.140625 L 95.011719 86.140625 L 95.011719 79.414062 C 95.011719 77.5625 96.523438 76.050781 98.375 76.050781 C 100.226562 76.050781 101.738281 77.5625 101.738281 79.414062 Z M 98.375 69.324219 C 103.9375 69.324219 108.464844 73.851562 108.464844 79.414062 L 108.464844 86.140625 L 105.101562 86.140625 L 105.101562 79.414062 C 105.101562 75.703125 102.085938 72.6875 98.375 72.6875 C 94.664062 72.6875 91.648438 75.703125 91.648438 79.414062 L 91.648438 86.140625 L 88.285156 86.140625 L 88.285156 79.414062 C 88.285156 73.851562 92.8125 69.324219 98.375 69.324219 Z M 78.199219 72.6875 L 78.199219 67.667969 C 80.5625 70.027344 83.308594 71.964844 86.367188 73.378906 C 85.457031 75.195312 84.921875 77.238281 84.921875 79.414062 L 84.921875 86.449219 C 82.972656 87.144531 81.5625 88.996094 81.5625 91.183594 L 81.5625 101.273438 C 81.5625 102.867188 81.816406 104.40625 82.277344 105.855469 C 81.027344 104.898438 79.65625 104.070312 78.179688 103.421875 L 65.082031 97.691406 C 63.851562 97.152344 63.066406 95.945312 63.066406 94.613281 L 63.066406 93.316406 C 65.625 91.550781 67.722656 89.207031 69.179688 86.480469 C 74.671875 84.050781 78.199219 78.730469 78.199219 72.6875 Z M 37.84375 72.6875 L 37.84375 62.761719 C 37.84375 58.59375 40.8125 54.980469 44.898438 54.160156 L 45.703125 54 L 46.074219 53.265625 C 47.859375 49.6875 51.453125 47.464844 55.453125 47.464844 L 56.339844 47.464844 C 66.539062 47.464844 74.835938 55.761719 74.835938 65.960938 L 74.835938 72.6875 C 74.835938 76.058594 73.410156 79.125 71.046875 81.296875 C 71.3125 80.003906 71.472656 78.679688 71.472656 77.316406 L 71.472656 68.484375 L 66.695312 64.898438 C 64.714844 63.414062 62.261719 62.597656 59.785156 62.597656 C 57.1875 62.597656 54.632812 63.492188 52.59375 65.121094 L 49.574219 67.539062 C 48.136719 68.6875 46.324219 69.324219 44.484375 69.324219 L 41.207031 69.324219 L 41.207031 77.316406 C 41.207031 78.679688 41.363281 80.003906 41.632812 81.296875 C 39.269531 79.125 37.84375 76.058594 37.84375 72.6875 Z M 126.960938 47.464844 C 126.960938 31.703125 114.140625 18.882812 98.375 18.882812 C 82.613281 18.882812 69.789062 31.703125 69.789062 47.464844 C 69.789062 47.914062 69.847656 48.371094 69.871094 48.824219 C 66.144531 45.875 61.449219 44.101562 56.339844 44.101562 L 55.453125 44.101562 C 50.441406 44.101562 45.910156 46.742188 43.445312 51.046875 C 38.203125 52.464844 34.480469 57.273438 34.480469 62.761719 L 34.480469 72.6875 C 34.480469 78.730469 38.007812 84.050781 43.5 86.480469 C 44.957031 89.207031 47.050781 91.550781 49.613281 93.316406 L 49.613281 94.613281 C 49.613281 95.945312 48.824219 97.152344 47.597656 97.691406 L 34.5 103.421875 C 27.339844 106.554688 22.710938 113.632812 22.710938 121.449219 L 22.710938 123.132812 L 89.96875 123.132812 L 89.96875 121.449219 C 89.96875 118.828125 89.4375 116.292969 88.476562 113.960938 C 90.847656 115.5 93.664062 116.40625 96.695312 116.40625 L 100.054688 116.40625 C 108.40625 116.40625 115.191406 109.613281 115.191406 101.273438 L 115.191406 91.183594 C 115.191406 88.996094 113.777344 87.144531 111.828125 86.449219 L 111.828125 79.414062 C 111.828125 77.238281 111.292969 75.191406 110.382812 73.371094 C 120.371094 68.726562 126.960938 58.558594 126.960938 47.464844 " fill-opacity="1" fill-rule="nonzero"/></g></svg>