<svg xmlns="http://www.w3.org/2000/svg" xmlns:xlink="http://www.w3.org/1999/xlink" width="200" zoomAndPan="magnify" viewBox="0 0 150 149.999998" height="200" preserveAspectRatio="xMidYMid meet" version="1.0"><defs><clipPath id="e80f9f4185"><path d="M 18.882812 18.882812 L 131.117188 18.882812 L 131.117188 131.117188 L 18.882812 131.117188 Z M 18.882812 18.882812 " clip-rule="nonzero"/></clipPath><clipPath id="278f6bf897"><path d="M 75 18.882812 C 44.007812 18.882812 18.882812 44.007812 18.882812 75 C 18.882812 105.992188 44.007812 131.117188 75 131.117188 C 105.992188 131.117188 131.117188 105.992188 131.117188 75 C 131.117188 44.007812 105.992188 18.882812 75 18.882812 " clip-rule="nonzero"/></clipPath><clipPath id="85c6d6a150"><path d="M 22.894531 22.894531 L 127.144531 22.894531 L 127.144531 127.144531 L 22.894531 127.144531 Z M 22.894531 22.894531 " clip-rule="nonzero"/></clipPath></defs><g clip-path="url(#e80f9f4185)"><g clip-path="url(#278f6bf897)"><path fill="#d9d9d9" d="M 18.882812 18.882812 L 131.117188 18.882812 L 131.117188 131.117188 L 18.882812 131.117188 Z M 18.882812 18.882812 " fill-opacity="1" fill-rule="nonzero"/></g></g><g clip-path="url(#85c6d6a150)"><path fill="#000000" d="M 123.78125 81.746094 C 123.78125 82.671875 123.023438 83.425781 122.097656 83.425781 L 61.566406 83.425781 C 61.566406 82.261719 61.402344 81.140625 61.121094 80.0625 L 120.417969 80.0625 L 120.417969 29.621094 L 46.433594 29.621094 L 46.433594 70.09375 C 45.257812 70.238281 44.136719 70.53125 43.070312 70.964844 L 43.070312 27.9375 C 43.070312 27.011719 43.824219 26.257812 44.753906 26.257812 L 122.097656 26.257812 C 123.023438 26.257812 123.78125 27.011719 123.78125 27.9375 Z M 82.714844 86.789062 C 83.175781 87.847656 83.425781 88.988281 83.425781 90.152344 C 83.425781 94.789062 79.65625 98.558594 75.019531 98.558594 C 70.382812 98.558594 66.609375 94.789062 66.609375 90.152344 C 66.609375 88.988281 66.859375 87.847656 67.320312 86.789062 Z M 93.515625 93.882812 L 90.238281 94.703125 L 89.335938 95.039062 L 88.554688 96.960938 L 90.734375 100.59375 L 85.460938 105.867188 L 81.828125 103.6875 L 79.78125 104.535156 L 78.75 108.648438 L 71.214844 108.648438 C 68.292969 101.972656 62.570312 96.804688 55.539062 94.632812 C 58.261719 92.816406 60.28125 90.039062 61.121094 86.789062 L 63.753906 86.789062 C 63.433594 87.878906 63.25 89.007812 63.25 90.152344 C 63.25 96.640625 68.527344 101.921875 75.019531 101.921875 C 81.507812 101.921875 86.789062 96.640625 86.789062 90.152344 C 86.789062 89.007812 86.605469 87.878906 86.28125 86.789062 L 93.515625 86.789062 Z M 69.972656 123.78125 L 64.929688 123.78125 L 64.929688 110.328125 L 61.566406 110.328125 L 61.566406 123.78125 L 50.671875 123.78125 L 60.554688 100.785156 C 66.242188 104.738281 69.972656 111.308594 69.972656 118.734375 Z M 26.257812 118.734375 C 26.257812 111.308594 29.988281 104.738281 35.675781 100.785156 L 45.558594 123.78125 L 34.664062 123.78125 L 34.664062 110.328125 L 31.300781 110.328125 L 31.300781 123.78125 L 26.257812 123.78125 Z M 53.101562 97.476562 C 52.796875 99.972656 50.691406 101.921875 48.113281 101.921875 C 45.539062 101.921875 43.433594 99.972656 43.128906 97.476562 C 44.734375 97.09375 46.394531 96.878906 48.113281 96.878906 C 49.835938 96.878906 51.496094 97.09375 53.101562 97.476562 Z M 48.113281 105.285156 C 52.195312 105.285156 55.597656 102.363281 56.359375 98.507812 C 56.792969 98.683594 57.207031 98.878906 57.625 99.085938 L 48.113281 121.207031 L 38.605469 99.085938 C 39.023438 98.878906 39.4375 98.683594 39.871094 98.507812 C 40.632812 102.363281 44.035156 105.285156 48.113281 105.285156 Z M 49.796875 70.09375 L 49.796875 32.980469 L 117.054688 32.980469 L 117.054688 76.699219 L 59.746094 76.699219 C 57.683594 73.144531 54.054688 70.625 49.796875 70.09375 Z M 38.027344 83.425781 C 38.027344 77.863281 42.550781 73.335938 48.113281 73.335938 C 53.679688 73.335938 58.203125 77.863281 58.203125 83.425781 C 58.203125 88.988281 53.679688 93.515625 48.113281 93.515625 C 42.550781 93.515625 38.027344 88.988281 38.027344 83.425781 Z M 122.097656 22.894531 L 44.753906 22.894531 C 41.96875 22.894531 39.707031 25.152344 39.707031 27.9375 L 39.707031 72.941406 C 36.640625 75.40625 34.664062 79.1875 34.664062 83.425781 C 34.664062 88.101562 37.0625 92.21875 40.691406 94.632812 C 30.394531 97.808594 22.894531 107.414062 22.894531 118.734375 L 22.894531 127.144531 L 73.335938 127.144531 L 73.335938 118.734375 C 73.335938 116.40625 72.996094 114.15625 72.398438 112.011719 L 81.375 112.011719 L 82.386719 107.949219 L 85.980469 110.105469 L 94.964844 101.113281 L 92.816406 97.519531 L 96.878906 96.507812 L 96.878906 86.789062 L 122.097656 86.789062 C 124.882812 86.789062 127.144531 84.527344 127.144531 81.746094 L 127.144531 27.9375 C 127.144531 25.152344 124.882812 22.894531 122.097656 22.894531 " fill-opacity="1" fill-rule="nonzero"/></g><path fill="#000000" d="M 90.152344 39.707031 L 110.328125 39.707031 L 110.328125 49.796875 L 90.152344 49.796875 Z M 110.328125 69.972656 L 90.152344 69.972656 L 90.152344 59.886719 L 110.328125 59.886719 Z M 76.699219 49.796875 L 56.523438 49.796875 L 56.523438 39.707031 L 76.699219 39.707031 Z M 86.789062 43.070312 L 80.0625 43.070312 L 80.0625 36.34375 L 53.160156 36.34375 L 53.160156 53.160156 L 80.0625 53.160156 L 80.0625 46.433594 L 86.789062 46.433594 L 86.789062 53.160156 L 98.558594 53.160156 L 98.558594 56.523438 L 86.789062 56.523438 L 86.789062 73.335938 L 113.691406 73.335938 L 113.691406 56.523438 L 101.921875 56.523438 L 101.921875 53.160156 L 113.691406 53.160156 L 113.691406 36.34375 L 86.789062 36.34375 L 86.789062 43.070312 " fill-opacity="1" fill-rule="nonzero"/><path fill="#000000" d="M 93.515625 46.433594 L 96.878906 46.433594 L 96.878906 43.070312 L 93.515625 43.070312 L 93.515625 46.433594 " fill-opacity="1" fill-rule="nonzero"/><path fill="#000000" d="M 100.238281 46.433594 L 106.964844 46.433594 L 106.964844 43.070312 L 100.238281 43.070312 L 100.238281 46.433594 " fill-opacity="1" fill-rule="nonzero"/><path fill="#000000" d="M 106.964844 63.25 L 93.515625 63.25 L 93.515625 66.609375 L 106.964844 66.609375 L 106.964844 63.25 " fill-opacity="1" fill-rule="nonzero"/><path fill="#000000" d="M 75.019531 43.070312 L 59.886719 43.070312 L 59.886719 46.433594 L 75.019531 46.433594 L 75.019531 43.070312 " fill-opacity="1" fill-rule="nonzero"/><path fill="#000000" d="M 59.886719 56.523438 L 59.886719 59.886719 L 63.25 59.886719 L 63.25 56.523438 L 59.886719 56.523438 " fill-opacity="1" fill-rule="nonzero"/><path fill="#000000" d="M 66.609375 56.523438 L 66.609375 59.886719 L 69.972656 59.886719 L 69.972656 56.523438 L 66.609375 56.523438 " fill-opacity="1" fill-rule="nonzero"/><path fill="#000000" d="M 73.335938 59.886719 L 76.699219 59.886719 L 76.699219 56.523438 L 73.335938 56.523438 L 73.335938 59.886719 " fill-opacity="1" fill-rule="nonzero"/><path fill="#000000" d="M 53.160156 66.609375 L 76.699219 66.609375 L 76.699219 63.25 L 53.160156 63.25 L 53.160156 66.609375 " fill-opacity="1" fill-rule="nonzero"/><path fill="#000000" d="M 61.566406 73.335938 L 76.699219 73.335938 L 76.699219 69.972656 L 61.566406 69.972656 L 61.566406 73.335938 " fill-opacity="1" fill-rule="nonzero"/><path fill="#000000" d="M 100.238281 96.878906 L 120.417969 96.878906 L 120.417969 93.515625 L 100.238281 93.515625 L 100.238281 96.878906 " fill-opacity="1" fill-rule="nonzero"/><path fill="#000000" d="M 100.238281 103.601562 L 120.417969 103.601562 L 120.417969 100.238281 L 100.238281 100.238281 L 100.238281 103.601562 " fill-opacity="1" fill-rule="nonzero"/><path fill="#000000" d="M 117.054688 110.328125 L 120.417969 110.328125 L 120.417969 106.964844 L 117.054688 106.964844 L 117.054688 110.328125 " fill-opacity="1" fill-rule="nonzero"/><path fill="#000000" d="M 110.328125 110.328125 L 113.691406 110.328125 L 113.691406 106.964844 L 110.328125 106.964844 L 110.328125 110.328125 " fill-opacity="1" fill-rule="nonzero"/><path fill="#000000" d="M 103.601562 110.328125 L 106.964844 110.328125 L 106.964844 106.964844 L 103.601562 106.964844 L 103.601562 110.328125 " fill-opacity="1" fill-rule="nonzero"/></svg>