<svg xmlns="http://www.w3.org/2000/svg" xmlns:xlink="http://www.w3.org/1999/xlink" width="200" zoomAndPan="magnify" viewBox="0 0 150 149.999998" height="200" preserveAspectRatio="xMidYMid meet" version="1.0"><defs><clipPath id="e5c80918f2"><path d="M 18.882812 18.882812 L 131.117188 18.882812 L 131.117188 131.117188 L 18.882812 131.117188 Z M 18.882812 18.882812 " clip-rule="nonzero"/></clipPath><clipPath id="8a3ef51574"><path d="M 75 18.882812 C 44.007812 18.882812 18.882812 44.007812 18.882812 75 C 18.882812 105.992188 44.007812 131.117188 75 131.117188 C 105.992188 131.117188 131.117188 105.992188 131.117188 75 C 131.117188 44.007812 105.992188 18.882812 75 18.882812 " clip-rule="nonzero"/></clipPath><clipPath id="4457a0a742"><path d="M 24.007812 29.296875 L 128.257812 29.296875 L 128.257812 122.296875 L 24.007812 122.296875 Z M 24.007812 29.296875 " clip-rule="nonzero"/></clipPath></defs><g clip-path="url(#e5c80918f2)"><g clip-path="url(#8a3ef51574)"><path fill="#d9d9d9" d="M 18.882812 18.882812 L 131.117188 18.882812 L 131.117188 131.117188 L 18.882812 131.117188 Z M 18.882812 18.882812 " fill-opacity="1" fill-rule="nonzero"/></g></g><g clip-path="url(#4457a0a742)"><path fill="#000000" d="M 59.574219 101.667969 C 59.324219 101.667969 59.058594 101.613281 58.808594 101.496094 L 51.171875 97.859375 L 59.574219 116.246094 L 67.988281 97.859375 L 60.335938 101.496094 C 60.101562 101.613281 59.835938 101.667969 59.574219 101.667969 Z M 85.535156 118.742188 L 91.605469 118.742188 L 91.605469 107.347656 C 91.605469 102.765625 88.878906 98.808594 84.949219 97 C 84.863281 96.972656 84.789062 96.941406 84.714844 96.898438 C 83.308594 96.285156 81.769531 95.949219 80.15625 95.949219 L 75.390625 95.949219 L 79.042969 100.3125 C 79.628906 101 79.585938 102.003906 78.96875 102.648438 L 63.691406 118.742188 L 81.664062 118.742188 L 81.664062 109.230469 C 81.664062 108.25 82.457031 107.464844 83.441406 107.464844 C 84.40625 107.464844 85.199219 108.25 85.199219 109.230469 L 85.199219 118.742188 Z M 124.707031 112.628906 L 124.707031 83.910156 L 112.773438 83.910156 L 112.773438 97 C 112.773438 97.699219 112.351562 98.34375 111.703125 98.621094 C 111.058594 98.898438 110.296875 98.765625 109.785156 98.269531 L 106.003906 94.664062 L 102.25 98.269531 C 101.910156 98.589844 101.472656 98.765625 101.03125 98.765625 C 100.796875 98.765625 100.5625 98.722656 100.328125 98.621094 C 99.683594 98.34375 99.257812 97.699219 99.257812 97 L 99.257812 83.910156 L 87.324219 83.910156 L 87.324219 94.242188 C 91.972656 96.78125 95.152344 101.699219 95.152344 107.347656 L 95.152344 112.628906 Z M 109.242188 83.910156 L 102.792969 83.910156 L 102.792969 92.855469 L 104.769531 90.957031 C 105.121094 90.636719 105.5625 90.460938 106.003906 90.460938 C 106.441406 90.460938 106.882812 90.625 107.234375 90.957031 L 109.242188 92.871094 Z M 83.777344 92.871094 L 83.777344 82.144531 C 83.777344 81.167969 84.570312 80.378906 85.550781 80.378906 L 126.484375 80.378906 C 127.464844 80.378906 128.257812 81.167969 128.257812 82.144531 L 128.257812 120.507812 C 128.257812 121.488281 127.464844 122.273438 126.484375 122.273438 L 25.78125 122.273438 C 24.796875 122.273438 24.007812 121.488281 24.007812 120.507812 L 24.007812 107.347656 C 24.007812 99.128906 30.734375 92.433594 38.988281 92.433594 L 46.113281 92.433594 L 47.640625 85.546875 C 45.542969 83.867188 43.960938 81.605469 43.3125 78.730469 L 41.480469 70.515625 C 40.441406 68.675781 34.621094 57.613281 37.859375 47.386719 C 37.992188 46.933594 38.960938 43.738281 41.65625 40.542969 C 44.28125 37.433594 49.132812 33.710938 57.269531 33.710938 C 58.621094 33.710938 60.027344 33.8125 61.449219 34.019531 C 62.546875 34.078125 72.3125 34.910156 77.078125 41.636719 C 78.117188 41.765625 79.761719 42.25 81.066406 43.925781 C 83.441406 47.007812 83.558594 52.726562 81.402344 60.925781 C 80.757812 63.277344 79.203125 68.601562 77.632812 70.675781 L 75.847656 78.730469 C 75.199219 81.605469 73.617188 83.867188 71.507812 85.546875 L 73.03125 92.433594 L 80.15625 92.433594 C 81.402344 92.433594 82.617188 92.578125 83.777344 92.871094 Z M 95.152344 118.742188 L 124.707031 118.742188 L 124.707031 116.144531 L 95.152344 116.144531 Z M 109.023438 69.828125 L 103.027344 69.828125 C 102.175781 69.828125 101.441406 69.230469 101.28125 68.398438 L 100.359375 63.613281 C 99.007812 63.085938 97.761719 62.371094 96.632812 61.46875 L 92 63.074219 C 91.210938 63.351562 90.316406 63.015625 89.890625 62.285156 L 86.898438 57.117188 C 86.472656 56.390625 86.621094 55.457031 87.265625 54.902344 L 90.960938 51.71875 C 90.871094 51.003906 90.8125 50.289062 90.8125 49.574219 C 90.8125 48.859375 90.871094 48.128906 90.960938 47.429688 L 87.265625 44.234375 C 86.621094 43.679688 86.472656 42.757812 86.898438 42.03125 L 89.890625 36.863281 C 90.316406 36.121094 91.210938 35.800781 92 36.078125 L 96.632812 37.667969 C 97.761719 36.777344 99.007812 36.0625 100.359375 35.523438 L 101.28125 30.734375 C 101.441406 29.917969 102.175781 29.320312 103.027344 29.320312 L 109.023438 29.320312 C 109.859375 29.320312 110.589844 29.917969 110.753906 30.734375 L 111.675781 35.523438 C 113.023438 36.0625 114.269531 36.777344 115.414062 37.667969 L 120.03125 36.078125 C 120.839844 35.800781 121.71875 36.121094 122.144531 36.863281 L 125.148438 42.03125 C 125.558594 42.757812 125.414062 43.679688 124.765625 44.234375 L 121.074219 47.429688 C 121.175781 48.128906 121.21875 48.859375 121.21875 49.574219 C 121.21875 50.289062 121.175781 51.003906 121.074219 51.71875 L 124.765625 54.902344 C 125.414062 55.457031 125.558594 56.390625 125.148438 57.117188 L 122.144531 62.285156 C 121.71875 63.015625 120.839844 63.351562 120.03125 63.074219 L 115.414062 61.46875 C 114.269531 62.371094 113.023438 63.085938 111.675781 63.613281 L 110.753906 68.398438 C 110.589844 69.230469 109.859375 69.828125 109.023438 69.828125 Z M 104.476562 66.296875 L 107.554688 66.296875 L 108.390625 61.964844 C 108.507812 61.335938 108.976562 60.824219 109.59375 60.621094 C 111.175781 60.125 112.597656 59.292969 113.84375 58.167969 C 114.328125 57.746094 115.003906 57.601562 115.621094 57.820312 L 119.8125 59.265625 L 121.351562 56.609375 L 117.996094 53.71875 C 117.511719 53.308594 117.289062 52.652344 117.421875 52.027344 C 117.597656 51.222656 117.6875 50.390625 117.6875 49.574219 C 117.6875 48.742188 117.597656 47.925781 117.421875 47.121094 C 117.289062 46.496094 117.496094 45.839844 117.996094 45.414062 L 121.351562 42.527344 L 119.8125 39.886719 L 115.621094 41.328125 C 115.003906 41.535156 114.328125 41.402344 113.84375 40.964844 C 112.613281 39.839844 111.175781 39.023438 109.59375 38.511719 C 108.976562 38.324219 108.507812 37.796875 108.390625 37.171875 L 107.554688 32.835938 L 104.476562 32.835938 L 103.640625 37.171875 C 103.523438 37.796875 103.070312 38.324219 102.453125 38.511719 C 100.855469 39.023438 99.433594 39.839844 98.1875 40.964844 C 97.703125 41.402344 97.03125 41.535156 96.414062 41.328125 L 92.222656 39.886719 L 90.695312 42.527344 L 94.039062 45.414062 C 94.539062 45.839844 94.757812 46.496094 94.609375 47.121094 C 94.449219 47.925781 94.363281 48.742188 94.363281 49.574219 C 94.363281 50.390625 94.449219 51.222656 94.609375 52.027344 C 94.757812 52.652344 94.539062 53.308594 94.039062 53.71875 L 90.695312 56.609375 L 92.222656 59.265625 L 96.414062 57.820312 C 97.03125 57.601562 97.703125 57.746094 98.1875 58.167969 C 99.433594 59.292969 100.855469 60.125 102.453125 60.621094 C 103.070312 60.824219 103.523438 61.335938 103.640625 61.964844 Z M 106.015625 57.335938 C 101.722656 57.335938 98.21875 53.851562 98.21875 49.574219 C 98.21875 45.285156 101.722656 41.796875 106.015625 41.796875 C 110.328125 41.796875 113.816406 45.285156 113.816406 49.574219 C 113.816406 53.851562 110.328125 57.335938 106.015625 57.335938 Z M 106.015625 45.328125 C 103.671875 45.328125 101.75 47.226562 101.75 49.574219 C 101.75 51.910156 103.671875 53.820312 106.015625 53.820312 C 108.363281 53.820312 110.28125 51.910156 110.28125 49.574219 C 110.28125 47.226562 108.363281 45.328125 106.015625 45.328125 Z M 74.246094 69.652344 C 74.351562 66.53125 73.953125 58.257812 70.847656 55.03125 C 70.027344 54.171875 69.058594 53.746094 67.914062 53.746094 C 67.296875 53.746094 66.625 53.863281 65.890625 54.113281 C 64.6875 54.796875 58.046875 58.433594 50.570312 58.492188 C 50.042969 58.578125 47.242188 59.191406 45.644531 61.539062 C 44.339844 63.4375 44.078125 66.0625 44.839844 69.363281 C 44.867188 69.449219 44.898438 69.535156 44.914062 69.625 L 46.757812 77.972656 C 47.289062 80.292969 48.710938 82.070312 50.601562 83.339844 L 50.613281 83.339844 C 53.121094 85.019531 56.433594 85.808594 59.574219 85.808594 C 65.085938 85.808594 71.183594 83.386719 72.386719 77.972656 Z M 67.914062 50.230469 C 70.054688 50.230469 71.902344 51.019531 73.410156 52.59375 C 75.683594 54.960938 76.785156 58.8125 77.3125 62.300781 C 77.5625 61.527344 77.78125 60.765625 77.984375 60.023438 C 80.417969 50.726562 79.203125 47.296875 78.265625 46.085938 C 77.605469 45.253906 76.828125 45.125 76.417969 45.125 C 76.386719 45.125 76.359375 45.125 76.34375 45.125 C 75.609375 45.253906 74.964844 44.917969 74.585938 44.292969 C 70.859375 38.121094 61.273438 37.535156 61.183594 37.519531 C 61.125 37.519531 61.082031 37.519531 61.023438 37.507812 C 59.734375 37.332031 58.472656 37.230469 57.269531 37.230469 C 44.429688 37.230469 41.394531 47.894531 41.277344 48.347656 C 41.261719 48.363281 41.261719 48.40625 41.246094 48.421875 C 39.808594 52.929688 40.5 57.789062 41.628906 61.640625 C 41.921875 60.882812 42.289062 60.167969 42.742188 59.511719 C 45.425781 55.628906 50 55.003906 50.191406 54.972656 C 50.261719 54.972656 50.335938 54.960938 50.425781 54.960938 C 57.578125 54.960938 64.160156 51.035156 64.234375 50.988281 C 64.335938 50.929688 64.453125 50.875 64.570312 50.828125 C 65.746094 50.433594 66.859375 50.230469 67.914062 50.230469 Z M 59.574219 89.324219 C 56.625 89.324219 53.546875 88.726562 50.835938 87.484375 L 49.574219 93.207031 L 59.574219 97.949219 L 69.585938 93.207031 L 68.324219 87.484375 C 65.613281 88.726562 62.519531 89.324219 59.574219 89.324219 Z M 47.097656 97.46875 L 43.828125 101.363281 L 53.5625 111.605469 Z M 65.597656 111.605469 L 75.316406 101.363281 L 72.0625 97.480469 Z M 27.554688 118.742188 L 33.945312 118.742188 L 33.945312 109.230469 C 33.945312 108.25 34.738281 107.464844 35.71875 107.464844 C 36.703125 107.464844 37.496094 108.25 37.496094 109.230469 L 37.496094 118.742188 L 55.46875 118.742188 L 40.175781 102.648438 C 39.5625 102.003906 39.53125 101 40.105469 100.3125 L 43.753906 95.949219 L 38.988281 95.949219 C 32.6875 95.949219 27.554688 101.070312 27.554688 107.347656 Z M 27.554688 118.742188 " fill-opacity="1" fill-rule="evenodd"/></g></svg>