<svg xmlns="http://www.w3.org/2000/svg" xmlns:xlink="http://www.w3.org/1999/xlink" width="200" zoomAndPan="magnify" viewBox="0 0 150 149.999998" height="200" preserveAspectRatio="xMidYMid meet" version="1.0"><defs><clipPath id="e905771917"><path d="M 18.882812 15 L 131.117188 15 L 131.117188 127.238281 L 18.882812 127.238281 Z M 18.882812 15 " clip-rule="nonzero"/></clipPath><clipPath id="a2ca0c105a"><path d="M 75 15 C 44.007812 15 18.882812 40.125 18.882812 71.117188 C 18.882812 102.113281 44.007812 127.238281 75 127.238281 C 105.992188 127.238281 131.117188 102.113281 131.117188 71.117188 C 131.117188 40.125 105.992188 15 75 15 " clip-rule="nonzero"/></clipPath><clipPath id="0eee7271ff"><path d="M 22.605469 18.722656 L 127.605469 18.722656 L 127.605469 80 L 22.605469 80 Z M 22.605469 18.722656 " clip-rule="nonzero"/></clipPath><clipPath id="61b3c9837f"><path d="M 31.074219 83.246094 L 127.605469 83.246094 L 127.605469 123.503906 L 31.074219 123.503906 Z M 31.074219 83.246094 " clip-rule="nonzero"/></clipPath><clipPath id="e5f650ab52"><path d="M 22.605469 113 L 26 113 L 26 118 L 22.605469 118 Z M 22.605469 113 " clip-rule="nonzero"/></clipPath></defs><g clip-path="url(#e905771917)"><g clip-path="url(#a2ca0c105a)"><path fill="#d9d9d9" d="M 18.882812 15 L 131.117188 15 L 131.117188 127.238281 L 18.882812 127.238281 Z M 18.882812 15 " fill-opacity="1" fill-rule="nonzero"/></g></g><g clip-path="url(#0eee7271ff)"><path fill="#000000" d="M 32.605469 62.933594 L 33.015625 58.789062 C 34.710938 41.84375 48.835938 29.0625 65.871094 29.0625 C 68.503906 29.0625 71.109375 29.390625 73.644531 30 C 73.496094 30.792969 73.410156 31.613281 73.410156 32.449219 C 73.410156 32.785156 73.4375 33.109375 73.464844 33.441406 C 71.003906 32.785156 68.46875 32.449219 65.890625 32.449219 C 50.984375 32.449219 38.34375 43.601562 36.496094 58.402344 L 35.929688 62.933594 L 39.871094 62.933594 L 34.460938 71.589844 L 29.046875 62.933594 Z M 86.960938 22.285156 C 92.5625 22.285156 97.121094 26.84375 97.121094 32.449219 C 97.121094 38.050781 92.5625 42.609375 86.960938 42.609375 C 81.355469 42.609375 76.796875 38.050781 76.796875 32.449219 C 76.796875 26.84375 81.355469 22.285156 86.960938 22.285156 Z M 105.695312 39.816406 L 118.933594 26.582031 C 119.515625 26 120.292969 25.675781 121.121094 25.675781 C 122.828125 25.675781 124.21875 27.0625 124.21875 28.769531 C 124.21875 29.597656 123.894531 30.378906 123.3125 30.960938 L 98.816406 55.457031 L 98.816406 76.480469 L 75.105469 76.480469 L 75.105469 56.15625 L 71.71875 56.15625 L 71.71875 76.480469 L 66.636719 76.480469 L 66.636719 61.238281 C 66.636719 52.835938 73.476562 45.996094 81.878906 45.996094 L 82.25 45.996094 L 80.074219 60.132812 L 86.960938 67.019531 L 93.847656 60.132812 L 91.605469 45.578125 L 95.15625 45.082031 C 99.125 44.519531 102.863281 42.648438 105.695312 39.816406 Z M 88.242188 45.996094 L 90.234375 58.957031 L 86.960938 62.230469 L 83.683594 58.957031 L 85.675781 45.996094 Z M 45.984375 59.542969 L 39.765625 59.542969 L 39.859375 58.816406 C 41.492188 45.71875 52.683594 35.835938 65.890625 35.835938 C 68.773438 35.835938 71.59375 36.324219 74.304688 37.238281 C 75.15625 39.488281 76.582031 41.453125 78.414062 42.945312 C 69.792969 44.582031 63.25 52.15625 63.25 61.238281 L 63.25 79.867188 L 102.203125 79.867188 L 102.203125 56.859375 L 125.707031 33.355469 C 126.929688 32.128906 127.605469 30.503906 127.605469 28.769531 C 127.605469 25.199219 124.695312 22.285156 121.121094 22.285156 C 119.386719 22.285156 117.761719 22.960938 116.539062 24.183594 L 103.300781 37.421875 C 101.644531 39.078125 99.609375 40.320312 97.40625 41.066406 C 99.34375 38.726562 100.507812 35.722656 100.507812 32.449219 C 100.507812 24.980469 94.429688 18.898438 86.960938 18.898438 C 81.515625 18.898438 76.824219 22.132812 74.675781 26.773438 C 71.804688 26.058594 68.851562 25.675781 65.871094 25.675781 C 47.089844 25.675781 31.515625 39.765625 29.648438 58.453125 L 29.539062 59.542969 L 22.9375 59.542969 L 34.460938 77.980469 L 45.984375 59.542969 " fill-opacity="1" fill-rule="nonzero"/></g><g clip-path="url(#61b3c9837f)"><path fill="#000000" d="M 92.039062 103.578125 L 92.039062 96.804688 L 81.878906 96.804688 L 81.878906 103.578125 L 75.105469 103.578125 L 75.105469 86.640625 L 81.878906 86.640625 L 81.878906 93.414062 L 92.039062 93.414062 L 92.039062 86.640625 L 98.816406 86.640625 L 98.816406 103.578125 Z M 88.652344 103.578125 L 85.265625 103.578125 L 85.265625 100.191406 L 88.652344 100.191406 Z M 85.265625 86.640625 L 88.652344 86.640625 L 88.652344 90.027344 L 85.265625 90.027344 Z M 54.78125 103.578125 L 54.78125 96.804688 L 44.621094 96.804688 L 44.621094 103.578125 L 37.847656 103.578125 L 37.847656 86.640625 L 44.621094 86.640625 L 44.621094 93.414062 L 54.78125 93.414062 L 54.78125 86.640625 L 61.554688 86.640625 L 61.554688 103.578125 Z M 51.394531 103.578125 L 48.007812 103.578125 L 48.007812 100.191406 L 51.394531 100.191406 Z M 48.007812 86.640625 L 51.394531 86.640625 L 51.394531 90.027344 L 48.007812 90.027344 Z M 105.589844 103.578125 L 102.203125 103.578125 L 102.203125 83.253906 L 71.71875 83.253906 L 71.71875 103.578125 L 64.945312 103.578125 L 64.945312 83.253906 L 34.460938 83.253906 L 34.460938 103.578125 L 31.074219 103.578125 L 31.074219 106.964844 L 108.976562 106.964844 L 108.976562 103.179688 L 120.921875 110.351562 L 108.976562 117.523438 L 108.976562 113.738281 L 36.152344 113.738281 L 36.152344 117.125 L 105.589844 117.125 L 105.589844 123.503906 L 127.511719 110.351562 L 105.589844 97.199219 L 105.589844 103.578125 " fill-opacity="1" fill-rule="nonzero"/></g><path fill="#000000" d="M 29.378906 117.125 L 32.765625 117.125 L 32.765625 113.738281 L 29.378906 113.738281 L 29.378906 117.125 " fill-opacity="1" fill-rule="nonzero"/><g clip-path="url(#e5f650ab52)"><path fill="#000000" d="M 22.605469 117.125 L 25.992188 117.125 L 25.992188 113.738281 L 22.605469 113.738281 L 22.605469 117.125 " fill-opacity="1" fill-rule="nonzero"/></g></svg>