<svg xmlns="http://www.w3.org/2000/svg" xmlns:xlink="http://www.w3.org/1999/xlink" width="100" zoomAndPan="magnify" viewBox="0 0 75 74.999997" height="100" preserveAspectRatio="xMidYMid meet" version="1.0"><defs><clipPath id="6db3941e2f"><path d="M 2 28 L 45 28 L 45 74.765625 L 2 74.765625 Z M 2 28 " clip-rule="nonzero"/></clipPath><clipPath id="cb563bc153"><path d="M 44 44 L 75 44 L 75 74.765625 L 44 74.765625 Z M 44 44 " clip-rule="nonzero"/></clipPath><clipPath id="03c897ba2f"><path d="M 23 53 L 25 53 L 25 74.765625 L 23 74.765625 Z M 23 53 " clip-rule="nonzero"/></clipPath><clipPath id="584cea492b"><path d="M 0 24.515625 L 48 24.515625 L 48 29 L 0 29 Z M 0 24.515625 " clip-rule="nonzero"/></clipPath></defs><g clip-path="url(#6db3941e2f)"><path fill="#231f20" d="M 11.527344 41.890625 L 11.527344 49.886719 L 5.277344 49.886719 L 5.277344 41.890625 Z M 5.277344 30.890625 L 11.527344 30.890625 L 11.527344 38.882812 L 5.277344 38.882812 Z M 15.390625 41.890625 L 21.636719 41.890625 L 21.636719 49.886719 L 15.390625 49.886719 Z M 15.390625 30.890625 L 21.636719 30.890625 L 21.636719 38.882812 L 15.390625 38.882812 Z M 25.503906 41.890625 L 31.75 41.890625 L 31.75 49.886719 L 25.503906 49.886719 Z M 25.503906 30.890625 L 31.75 30.890625 L 31.75 38.882812 L 25.503906 38.882812 Z M 35.617188 41.890625 L 41.863281 41.890625 L 41.863281 49.886719 L 35.617188 49.886719 Z M 35.617188 30.890625 L 41.863281 30.890625 L 41.863281 38.882812 L 35.617188 38.882812 Z M 2.15625 74.207031 L 13.375 74.207031 L 13.375 53.824219 L 23.078125 53.824219 C 23.171875 53.644531 23.355469 53.523438 23.570312 53.523438 C 23.789062 53.523438 23.972656 53.644531 24.066406 53.824219 L 33.769531 53.824219 L 33.769531 74.207031 L 44.988281 74.207031 L 44.988281 28.375 L 2.15625 28.375 L 2.15625 74.207031 " fill-opacity="1" fill-rule="nonzero"/></g><g clip-path="url(#cb563bc153)"><path fill="#231f20" d="M 51.8125 60.144531 L 58.0625 60.144531 L 58.0625 68.140625 L 51.8125 68.140625 Z M 51.8125 48.9375 L 58.0625 48.9375 L 58.0625 56.933594 L 51.8125 56.933594 Z M 61.925781 60.144531 L 68.175781 60.144531 L 68.175781 68.140625 L 61.925781 68.140625 Z M 61.925781 48.9375 L 68.175781 48.9375 L 68.175781 56.933594 L 61.925781 56.933594 Z M 75 74.207031 L 75 44.703125 L 44.988281 44.703125 L 44.988281 74.207031 L 75 74.207031 " fill-opacity="1" fill-rule="nonzero"/></g><g clip-path="url(#03c897ba2f)"><path fill="#231f20" d="M 24.066406 53.824219 C 23.972656 53.644531 23.789062 53.523438 23.570312 53.523438 C 23.355469 53.523438 23.171875 53.644531 23.078125 53.824219 C 23.039062 53.902344 23.015625 53.984375 23.015625 54.078125 L 23.015625 74.207031 C 23.015625 74.511719 23.265625 74.761719 23.570312 74.761719 C 23.878906 74.761719 24.128906 74.511719 24.128906 74.207031 L 24.128906 54.078125 C 24.128906 53.984375 24.105469 53.902344 24.066406 53.824219 " fill-opacity="1" fill-rule="nonzero"/></g><g clip-path="url(#584cea492b)"><path fill="#231f20" d="M 44.988281 28.375 L 47.144531 28.375 L 47.144531 24.523438 L 0 24.523438 L 0 28.375 L 44.988281 28.375 " fill-opacity="1" fill-rule="nonzero"/></g></svg>