<svg xmlns="http://www.w3.org/2000/svg" xmlns:xlink="http://www.w3.org/1999/xlink" width="100" zoomAndPan="magnify" viewBox="0 0 75 74.999997" height="100" preserveAspectRatio="xMidYMid meet" version="1.0"><defs><clipPath id="fa4c83e18a"><path d="M 5.164062 20 L 69.664062 20 L 69.664062 74.75 L 5.164062 74.75 Z M 5.164062 20 " clip-rule="nonzero"/></clipPath></defs><g clip-path="url(#fa4c83e18a)"><path fill="#000000" d="M 68.398438 72.1875 L 66.421875 72.1875 L 66.421875 27.71875 C 66.421875 27.011719 65.867188 26.457031 65.15625 26.457031 L 57.058594 26.457031 L 57.058594 21.300781 C 57.058594 20.59375 56.5 20.039062 55.792969 20.039062 L 36.25 20.039062 C 35.539062 20.039062 34.984375 20.59375 34.984375 21.300781 L 34.984375 40.757812 L 9.667969 40.757812 C 8.960938 40.757812 8.402344 41.3125 8.402344 42.019531 L 8.402344 72.1875 L 6.429688 72.1875 C 5.71875 72.1875 5.164062 72.742188 5.164062 73.449219 C 5.164062 74.15625 5.71875 74.710938 6.429688 74.710938 L 68.398438 74.710938 C 69.105469 74.710938 69.664062 74.15625 69.664062 73.449219 C 69.664062 72.742188 69.105469 72.1875 68.398438 72.1875 Z M 10.933594 43.28125 L 57.058594 43.28125 L 57.058594 67.4375 L 59.589844 67.4375 L 59.589844 42.019531 C 59.589844 41.3125 59.03125 40.757812 58.324219 40.757812 L 37.515625 40.757812 L 37.515625 22.566406 L 54.527344 22.566406 L 54.527344 26.457031 L 41.96875 26.457031 C 41.261719 26.457031 40.703125 27.011719 40.703125 27.71875 L 40.703125 36.867188 L 43.234375 36.867188 L 43.234375 28.984375 L 63.890625 28.984375 L 63.890625 72.136719 L 40.402344 72.136719 L 40.402344 64.554688 C 40.402344 63.847656 39.84375 63.292969 39.132812 63.292969 L 30.527344 63.292969 C 29.820312 63.292969 29.261719 63.847656 29.261719 64.554688 L 29.261719 72.1875 L 10.933594 72.1875 Z M 31.792969 72.1875 L 31.792969 65.820312 L 37.867188 65.820312 L 37.867188 72.1875 Z M 16.097656 47.375 L 20.148438 47.375 L 20.148438 51.417969 L 16.097656 51.417969 Z M 28.503906 47.375 L 28.503906 51.417969 L 24.453125 51.417969 L 24.453125 47.375 Z M 36.855469 51.417969 L 32.804688 51.417969 L 32.804688 47.375 L 36.855469 47.375 Z M 45.210938 51.417969 L 41.160156 51.417969 L 41.160156 47.375 L 45.210938 47.375 Z M 53.5625 51.417969 L 49.511719 51.417969 L 49.511719 47.375 L 53.5625 47.375 Z M 47.945312 32.621094 L 51.996094 32.621094 L 51.996094 36.664062 L 47.945312 36.664062 Z M 60.296875 36.664062 L 56.246094 36.664062 L 56.246094 32.621094 L 60.296875 32.621094 Z M 16.097656 54.703125 L 20.148438 54.703125 L 20.148438 58.746094 L 16.097656 58.746094 Z M 24.453125 54.703125 L 28.503906 54.703125 L 28.503906 58.746094 L 24.453125 58.746094 Z M 36.855469 58.746094 L 32.804688 58.746094 L 32.804688 54.703125 L 36.855469 54.703125 Z M 45.210938 58.746094 L 41.160156 58.746094 L 41.160156 54.703125 L 45.210938 54.703125 Z M 53.5625 58.746094 L 49.511719 58.746094 L 49.511719 54.703125 L 53.5625 54.703125 Z M 53.5625 58.746094 " fill-opacity="1" fill-rule="nonzero"/></g></svg>