<svg xmlns="http://www.w3.org/2000/svg" xmlns:xlink="http://www.w3.org/1999/xlink" width="40" zoomAndPan="magnify" viewBox="0 0 30 30.000001" height="40" preserveAspectRatio="xMidYMid meet" version="1.0"><defs><clipPath id="9d68e5f324"><path d="M 10.515625 5.023438 L 19.226562 5.023438 L 19.226562 23.894531 L 10.515625 23.894531 Z M 10.515625 5.023438 " clip-rule="nonzero"/></clipPath></defs><g clip-path="url(#9d68e5f324)"><path fill="#ffffff" d="M 17.214844 8.160156 L 19.226562 8.160156 L 19.226562 5.058594 L 16.660156 5.058594 L 16.660156 5.070312 C 13.285156 5.199219 12.589844 7.132812 12.53125 9.175781 L 12.523438 9.175781 L 12.523438 11.324219 L 10.515625 11.324219 L 10.515625 14.429688 L 12.523438 14.429688 L 12.523438 23.863281 L 16.128906 23.863281 L 16.128906 14.429688 L 18.714844 14.429688 L 19.226562 11.324219 L 16.128906 11.324219 L 16.128906 9.398438 C 16.128906 8.714844 16.578125 8.160156 17.214844 8.160156 Z M 17.214844 8.160156 " fill-opacity="1" fill-rule="nonzero"/></g></svg>