<svg xmlns="http://www.w3.org/2000/svg" xmlns:xlink="http://www.w3.org/1999/xlink" width="100" zoomAndPan="magnify" viewBox="0 0 75 74.999997" height="100" preserveAspectRatio="xMidYMid meet" version="1.0"><defs><clipPath id="a09a212026"><path d="M 45 18.097656 L 62 18.097656 L 62 32 L 45 32 Z M 45 18.097656 " clip-rule="nonzero"/></clipPath><clipPath id="4d9a62dcf9"><path d="M 29 18.097656 L 46 18.097656 L 46 32 L 29 32 Z M 29 18.097656 " clip-rule="nonzero"/></clipPath><clipPath id="a23836bc24"><path d="M 12 18.097656 L 30 18.097656 L 30 32 L 12 32 Z M 12 18.097656 " clip-rule="nonzero"/></clipPath><clipPath id="1c98caace4"><path d="M 46 33 L 64.363281 33 L 64.363281 50 L 46 50 Z M 46 33 " clip-rule="nonzero"/></clipPath><clipPath id="23590e13b3"><path d="M 10.363281 33 L 29 33 L 29 50 L 10.363281 50 Z M 10.363281 33 " clip-rule="nonzero"/></clipPath><clipPath id="ab239005b0"><path d="M 31 51 L 44 51 L 44 57.097656 L 31 57.097656 Z M 31 51 " clip-rule="nonzero"/></clipPath></defs><path fill="#fcc521" d="M 75 37.5 C 75 38.726562 74.941406 39.953125 74.820312 41.175781 C 74.699219 42.398438 74.519531 43.609375 74.28125 44.816406 C 74.039062 46.019531 73.742188 47.210938 73.386719 48.386719 C 73.027344 49.5625 72.617188 50.714844 72.144531 51.851562 C 71.675781 52.984375 71.152344 54.09375 70.570312 55.175781 C 69.992188 56.261719 69.363281 57.3125 68.679688 58.332031 C 67.996094 59.355469 67.265625 60.339844 66.488281 61.289062 C 65.707031 62.238281 64.886719 63.148438 64.015625 64.015625 C 63.148438 64.886719 62.238281 65.707031 61.289062 66.488281 C 60.339844 67.265625 59.355469 67.996094 58.332031 68.679688 C 57.3125 69.363281 56.261719 69.992188 55.175781 70.570312 C 54.09375 71.152344 52.984375 71.675781 51.851562 72.144531 C 50.714844 72.617188 49.5625 73.027344 48.386719 73.386719 C 47.210938 73.742188 46.019531 74.039062 44.816406 74.28125 C 43.609375 74.519531 42.398438 74.699219 41.175781 74.820312 C 39.953125 74.941406 38.726562 75 37.5 75 C 36.273438 75 35.046875 74.941406 33.824219 74.820312 C 32.601562 74.699219 31.390625 74.519531 30.183594 74.28125 C 28.980469 74.039062 27.789062 73.742188 26.613281 73.386719 C 25.4375 73.027344 24.285156 72.617188 23.148438 72.144531 C 22.015625 71.675781 20.90625 71.152344 19.824219 70.570312 C 18.738281 69.992188 17.6875 69.363281 16.667969 68.679688 C 15.644531 67.996094 14.660156 67.265625 13.710938 66.488281 C 12.761719 65.707031 11.851562 64.886719 10.984375 64.015625 C 10.113281 63.148438 9.292969 62.238281 8.511719 61.289062 C 7.734375 60.339844 7.003906 59.355469 6.320312 58.332031 C 5.636719 57.3125 5.007812 56.261719 4.429688 55.175781 C 3.847656 54.09375 3.324219 52.984375 2.855469 51.851562 C 2.382812 50.714844 1.972656 49.5625 1.613281 48.386719 C 1.257812 47.210938 0.960938 46.019531 0.71875 44.816406 C 0.480469 43.609375 0.300781 42.398438 0.179688 41.175781 C 0.0585938 39.953125 0 38.726562 0 37.5 C 0 36.273438 0.0585938 35.046875 0.179688 33.824219 C 0.300781 32.601562 0.480469 31.390625 0.71875 30.183594 C 0.960938 28.980469 1.257812 27.789062 1.613281 26.613281 C 1.972656 25.4375 2.382812 24.285156 2.855469 23.148438 C 3.324219 22.015625 3.847656 20.90625 4.429688 19.824219 C 5.007812 18.738281 5.636719 17.6875 6.320312 16.667969 C 7.003906 15.644531 7.734375 14.660156 8.511719 13.710938 C 9.292969 12.761719 10.113281 11.851562 10.984375 10.984375 C 11.851562 10.113281 12.761719 9.292969 13.710938 8.511719 C 14.660156 7.734375 15.644531 7.003906 16.667969 6.320312 C 17.6875 5.636719 18.738281 5.007812 19.824219 4.429688 C 20.90625 3.847656 22.015625 3.324219 23.148438 2.855469 C 24.285156 2.382812 25.4375 1.972656 26.613281 1.613281 C 27.789062 1.257812 28.980469 0.960938 30.183594 0.71875 C 31.390625 0.480469 32.601562 0.300781 33.824219 0.179688 C 35.046875 0.0585938 36.273438 0 37.5 0 C 38.726562 0 39.953125 0.0585938 41.175781 0.179688 C 42.398438 0.300781 43.609375 0.480469 44.816406 0.71875 C 46.019531 0.960938 47.210938 1.257812 48.386719 1.613281 C 49.5625 1.972656 50.714844 2.382812 51.851562 2.855469 C 52.984375 3.324219 54.09375 3.847656 55.175781 4.429688 C 56.261719 5.007812 57.3125 5.636719 58.332031 6.320312 C 59.355469 7.003906 60.339844 7.734375 61.289062 8.511719 C 62.238281 9.292969 63.148438 10.113281 64.015625 10.984375 C 64.886719 11.851562 65.707031 12.761719 66.488281 13.710938 C 67.265625 14.660156 67.996094 15.644531 68.679688 16.667969 C 69.363281 17.6875 69.992188 18.738281 70.570312 19.824219 C 71.152344 20.90625 71.675781 22.015625 72.144531 23.148438 C 72.617188 24.285156 73.027344 25.4375 73.386719 26.613281 C 73.742188 27.789062 74.039062 28.980469 74.28125 30.183594 C 74.519531 31.390625 74.699219 32.601562 74.820312 33.824219 C 74.941406 35.046875 75 36.273438 75 37.5 Z M 75 37.5 " fill-opacity="1" fill-rule="nonzero"/><g clip-path="url(#a09a212026)"><path fill="#ffffff" d="M 61.757812 31.847656 L 46.363281 31.847656 L 45.640625 18.089844 L 59.792969 18.089844 Z M 61.757812 31.847656 " fill-opacity="1" fill-rule="nonzero"/></g><g clip-path="url(#4d9a62dcf9)"><path fill="#ffffff" d="M 44.4375 18.089844 L 30.289062 18.089844 L 29.667969 31.847656 L 45.0625 31.847656 Z M 37.71875 19.796875 C 35.488281 20.460938 33.347656 21.339844 31.324219 22.445312 C 31.324219 22.445312 31.445312 19.171875 31.445312 19.171875 L 40.109375 19.171875 C 39.289062 19.355469 38.492188 19.566406 37.71875 19.796875 Z M 37.71875 19.796875 " fill-opacity="1" fill-rule="nonzero"/></g><g clip-path="url(#a23836bc24)"><path fill="#ffffff" d="M 14.933594 18.089844 L 12.964844 31.847656 L 28.363281 31.847656 L 29.089844 18.089844 Z M 27.476562 24.925781 C 25.292969 26.566406 23.332031 28.484375 21.59375 30.59375 C 21.59375 30.59375 14.441406 30.59375 14.441406 30.59375 L 15.984375 19.171875 L 27.824219 19.171875 Z M 27.476562 24.925781 " fill-opacity="1" fill-rule="nonzero"/></g><g clip-path="url(#1c98caace4)"><path fill="#ffffff" d="M 64.324219 49.789062 L 47.3125 49.789062 L 46.433594 33.128906 L 61.941406 33.128906 Z M 64.324219 49.789062 " fill-opacity="1" fill-rule="nonzero"/></g><path fill="#ffffff" d="M 45.871094 49.789062 L 28.855469 49.789062 L 29.609375 33.128906 L 45.117188 33.128906 Z M 45.871094 49.789062 " fill-opacity="1" fill-rule="nonzero"/><g clip-path="url(#23590e13b3)"><path fill="#ffffff" d="M 12.78125 33.128906 L 10.402344 49.789062 L 27.417969 49.789062 L 28.296875 33.128906 Z M 16.871094 37.644531 C 15.640625 39.882812 14.570312 42.230469 13.632812 44.605469 C 13.15625 45.8125 12.710938 47.035156 12.304688 48.253906 L 12.050781 48.253906 L 13.925781 34.421875 L 18.792969 34.421875 C 18.113281 35.464844 17.472656 36.546875 16.871094 37.644531 Z M 16.871094 37.644531 " fill-opacity="1" fill-rule="nonzero"/></g><g clip-path="url(#ab239005b0)"><path fill="#ffffff" d="M 43.300781 57.101562 L 31.425781 57.101562 L 31.914062 53.703125 L 34.269531 53.703125 L 34.269531 51.121094 L 40.457031 51.121094 L 40.457031 53.703125 L 42.8125 53.703125 Z M 43.300781 57.101562 " fill-opacity="1" fill-rule="nonzero"/></g></svg>