<svg xmlns="http://www.w3.org/2000/svg" xmlns:xlink="http://www.w3.org/1999/xlink" width="100" zoomAndPan="magnify" viewBox="0 0 75 74.999997" height="100" preserveAspectRatio="xMidYMid meet" version="1.0"><defs><clipPath id="ebcfad677f"><path d="M 0 0 L 74.25 0 L 74.25 75 L 0 75 Z M 0 0 " clip-rule="nonzero"/></clipPath></defs><g clip-path="url(#ebcfad677f)"><path fill="#000000" d="M 40.304688 73.195312 C 39.808594 73.195312 39.40625 73.601562 39.40625 74.097656 C 39.40625 74.597656 39.808594 75 40.304688 75 L 73.339844 75 C 73.835938 75 74.238281 74.597656 74.238281 74.097656 C 74.238281 73.601562 73.835938 73.195312 73.339844 73.195312 L 60.078125 73.195312 L 60.078125 50.890625 L 55.488281 55.617188 C 55.472656 55.636719 55.453125 55.65625 55.433594 55.675781 L 54.4375 56.699219 L 53.566406 57.597656 L 53.566406 73.195312 Z M 59.695312 34.292969 L 54.996094 38.339844 L 68.628906 39.503906 L 73.683594 34.296875 L 59.695312 34.296875 Z M 44.890625 37.476562 L 52.488281 38.125 L 56.941406 34.296875 L 49.199219 34.296875 Z M 46.722656 43.085938 L 50.574219 39.769531 L 42.691406 39.097656 L 39.3125 41.589844 Z M 48.957031 43.535156 L 62.136719 46.191406 L 67.007812 41.175781 L 53.082031 39.984375 Z M 47.230469 45.019531 L 41.171875 50.230469 L 54.550781 54.007812 L 60.285156 48.097656 C 60.316406 48.0625 60.347656 48.03125 60.382812 48 L 60.648438 47.722656 Z M 31.359375 47.460938 L 39.097656 49.644531 L 44.996094 44.570312 L 37.359375 43.03125 Z M 29.429688 57.964844 L 37.460938 51.054688 L 29.523438 48.8125 L 20.964844 55.128906 Z M 39.535156 51.640625 L 31.414062 58.625 L 45.492188 63.335938 L 51.980469 56.65625 C 52.007812 56.621094 52.039062 56.589844 52.070312 56.558594 L 53.125 55.476562 Z M 7.457031 6.195312 C 7.105469 5.84375 6.535156 5.84375 6.1875 6.195312 C 5.835938 6.546875 5.835938 7.121094 6.1875 7.472656 L 9.871094 11.171875 C 10.222656 11.527344 10.792969 11.527344 11.144531 11.171875 C 11.496094 10.820312 11.496094 10.25 11.144531 9.898438 Z M 0.910156 20.253906 C 0.414062 20.253906 0.0117188 20.65625 0.0117188 21.15625 C 0.0117188 21.652344 0.414062 22.058594 0.910156 22.058594 L 6.125 22.058594 C 6.621094 22.058594 7.023438 21.652344 7.023438 21.15625 C 7.023438 20.65625 6.621094 20.253906 6.125 20.253906 Z M 6.1875 34.839844 C 5.835938 35.191406 5.835938 35.761719 6.1875 36.113281 C 6.535156 36.46875 7.105469 36.46875 7.457031 36.113281 L 11.144531 32.414062 C 11.496094 32.0625 11.496094 31.488281 11.144531 31.136719 C 10.792969 30.785156 10.222656 30.785156 9.871094 31.136719 Z M 20.191406 41.410156 C 20.191406 41.90625 20.59375 42.3125 21.089844 42.3125 C 21.585938 42.3125 21.988281 41.90625 21.988281 41.410156 L 21.988281 36.175781 C 21.988281 35.675781 21.585938 35.273438 21.089844 35.273438 C 20.59375 35.273438 20.191406 35.675781 20.191406 36.175781 Z M 34.71875 36.113281 C 35.070312 36.46875 35.640625 36.46875 35.992188 36.113281 C 36.34375 35.761719 36.34375 35.191406 35.992188 34.839844 L 32.304688 31.136719 C 31.953125 30.785156 31.382812 30.785156 31.03125 31.136719 C 30.683594 31.488281 30.683594 32.0625 31.03125 32.414062 Z M 41.265625 22.058594 C 41.761719 22.058594 42.164062 21.652344 42.164062 21.15625 C 42.164062 20.65625 41.761719 20.253906 41.265625 20.253906 L 36.050781 20.253906 C 35.554688 20.253906 35.152344 20.65625 35.152344 21.15625 C 35.152344 21.652344 35.554688 22.058594 36.050781 22.058594 Z M 35.992188 7.472656 C 36.34375 7.121094 36.34375 6.546875 35.992188 6.195312 C 35.640625 5.84375 35.070312 5.84375 34.71875 6.195312 L 31.03125 9.898438 C 30.683594 10.25 30.683594 10.820312 31.03125 11.171875 C 31.382812 11.527344 31.953125 11.527344 32.304688 11.171875 Z M 21.988281 0.902344 C 21.988281 0.402344 21.585938 0 21.089844 0 C 20.59375 0 20.191406 0.402344 20.191406 0.902344 L 20.191406 6.136719 C 20.191406 6.632812 20.59375 7.039062 21.089844 7.039062 C 21.585938 7.039062 21.988281 6.632812 21.988281 6.136719 Z M 21.089844 9.558594 C 24.277344 9.558594 27.167969 10.855469 29.257812 12.953125 C 31.347656 15.054688 32.640625 17.953125 32.640625 21.15625 C 32.640625 24.359375 31.347656 27.257812 29.257812 29.355469 C 27.167969 31.453125 24.277344 32.753906 21.089844 32.753906 C 17.898438 32.753906 15.007812 31.453125 12.917969 29.355469 C 10.828125 27.257812 9.535156 24.359375 9.535156 21.15625 C 9.535156 17.953125 10.828125 15.054688 12.917969 12.953125 C 15.007812 10.855469 17.898438 9.558594 21.089844 9.558594 Z M 21.089844 9.558594 " fill-opacity="1" fill-rule="nonzero"/></g></svg>