<svg xmlns="http://www.w3.org/2000/svg" xmlns:xlink="http://www.w3.org/1999/xlink" width="100" zoomAndPan="magnify" viewBox="0 0 75 74.999997" height="100" preserveAspectRatio="xMidYMid meet" version="1.0"><defs><clipPath id="c3be35c568"><path d="M 0 56 L 75 56 L 75 63.75 L 0 63.75 Z M 0 56 " clip-rule="nonzero"/></clipPath><clipPath id="84b59997bd"><path d="M 0 11.25 L 75 11.25 L 75 19 L 0 19 Z M 0 11.25 " clip-rule="nonzero"/></clipPath></defs><path fill="#000000" d="M 71.25 33.75 L 3.75 33.75 C 3.253906 33.75 2.773438 33.84375 2.316406 34.035156 C 1.855469 34.226562 1.449219 34.496094 1.097656 34.847656 C 0.746094 35.199219 0.476562 35.605469 0.285156 36.066406 C 0.09375 36.523438 0 37.003906 0 37.5 C 0 37.996094 0.09375 38.476562 0.285156 38.933594 C 0.476562 39.394531 0.746094 39.800781 1.097656 40.152344 C 1.449219 40.503906 1.855469 40.773438 2.316406 40.964844 C 2.773438 41.15625 3.253906 41.25 3.75 41.25 L 71.25 41.25 C 71.746094 41.25 72.226562 41.15625 72.683594 40.964844 C 73.144531 40.773438 73.550781 40.503906 73.902344 40.152344 C 74.253906 39.800781 74.523438 39.394531 74.714844 38.933594 C 74.90625 38.476562 75 37.996094 75 37.5 C 75 37.003906 74.90625 36.523438 74.714844 36.066406 C 74.523438 35.605469 74.253906 35.199219 73.902344 34.847656 C 73.550781 34.496094 73.144531 34.226562 72.683594 34.035156 C 72.226562 33.84375 71.746094 33.75 71.25 33.75 Z M 71.25 33.75 " fill-opacity="1" fill-rule="nonzero"/><g clip-path="url(#c3be35c568)"><path fill="#000000" d="M 71.25 56.25 L 3.75 56.25 C 3.253906 56.25 2.773438 56.34375 2.316406 56.535156 C 1.855469 56.726562 1.449219 56.996094 1.097656 57.347656 C 0.746094 57.699219 0.476562 58.105469 0.285156 58.566406 C 0.09375 59.023438 0 59.503906 0 60 C 0 60.496094 0.09375 60.976562 0.285156 61.433594 C 0.476562 61.894531 0.746094 62.300781 1.097656 62.652344 C 1.449219 63.003906 1.855469 63.273438 2.316406 63.464844 C 2.773438 63.65625 3.253906 63.75 3.75 63.75 L 71.25 63.75 C 71.746094 63.75 72.226562 63.65625 72.683594 63.464844 C 73.144531 63.273438 73.550781 63.003906 73.902344 62.652344 C 74.253906 62.300781 74.523438 61.894531 74.714844 61.433594 C 74.90625 60.976562 75 60.496094 75 60 C 75 59.503906 74.90625 59.023438 74.714844 58.566406 C 74.523438 58.105469 74.253906 57.699219 73.902344 57.347656 C 73.550781 56.996094 73.144531 56.726562 72.683594 56.535156 C 72.226562 56.34375 71.746094 56.25 71.25 56.25 Z M 71.25 56.25 " fill-opacity="1" fill-rule="nonzero"/></g><g clip-path="url(#84b59997bd)"><path fill="#000000" d="M 3.75 18.75 L 71.25 18.75 C 71.746094 18.75 72.226562 18.65625 72.683594 18.464844 C 73.144531 18.273438 73.550781 18.003906 73.902344 17.652344 C 74.253906 17.300781 74.523438 16.894531 74.714844 16.433594 C 74.90625 15.976562 75 15.496094 75 15 C 75 14.503906 74.90625 14.023438 74.714844 13.566406 C 74.523438 13.105469 74.253906 12.699219 73.902344 12.347656 C 73.550781 11.996094 73.144531 11.726562 72.683594 11.535156 C 72.226562 11.34375 71.746094 11.25 71.25 11.25 L 3.75 11.25 C 3.253906 11.25 2.773438 11.34375 2.316406 11.535156 C 1.855469 11.726562 1.449219 11.996094 1.097656 12.347656 C 0.746094 12.699219 0.476562 13.105469 0.285156 13.566406 C 0.09375 14.023438 0 14.503906 0 15 C 0 15.496094 0.09375 15.976562 0.285156 16.433594 C 0.476562 16.894531 0.746094 17.300781 1.097656 17.652344 C 1.449219 18.003906 1.855469 18.273438 2.316406 18.464844 C 2.773438 18.65625 3.253906 18.75 3.75 18.75 Z M 3.75 18.75 " fill-opacity="1" fill-rule="nonzero"/></g></svg>