<svg xmlns="http://www.w3.org/2000/svg" xmlns:xlink="http://www.w3.org/1999/xlink" width="100" zoomAndPan="magnify" viewBox="0 0 75 74.999997" height="100" preserveAspectRatio="xMidYMid meet" version="1.0"><defs><clipPath id="7873e2ccdb"><path d="M 3.75 69 L 71.25 69 L 71.25 75 L 3.75 75 Z M 3.75 69 " clip-rule="nonzero"/></clipPath><clipPath id="46a0d31dc0"><path d="M 5 0.171875 L 70 0.171875 L 70 73 L 5 73 Z M 5 0.171875 " clip-rule="nonzero"/></clipPath></defs><g clip-path="url(#7873e2ccdb)"><path fill="#000000" d="M 3.769531 69.402344 L 71.132812 69.402344 L 71.132812 75.230469 L 3.769531 75.230469 Z M 3.769531 69.402344 " fill-opacity="1" fill-rule="nonzero"/></g><path fill="#ffffff" d="M 37.441406 1.378906 L 6.425781 14.921875 L 6.425781 71.34375 L 68.476562 71.34375 L 68.476562 14.921875 Z M 37.441406 1.378906 " fill-opacity="1" fill-rule="nonzero"/><g clip-path="url(#46a0d31dc0)"><path fill="#000000" d="M 69.582031 72.453125 L 5.320312 72.453125 L 5.320312 14.203125 L 37.460938 0.171875 L 69.582031 14.203125 Z M 7.550781 70.21875 L 67.351562 70.21875 L 67.351562 15.660156 L 37.460938 2.601562 L 7.550781 15.660156 Z M 7.550781 70.21875 " fill-opacity="1" fill-rule="nonzero"/></g><path fill="#ffffff" d="M 16.117188 57.746094 L 58.765625 57.746094 L 58.765625 71.34375 L 16.117188 71.34375 Z M 16.117188 57.746094 " fill-opacity="1" fill-rule="nonzero"/><path fill="#000000" d="M 59.8125 72.375 L 15.089844 72.375 L 15.089844 56.714844 L 59.792969 56.714844 L 59.792969 72.375 Z M 17.164062 70.316406 L 57.757812 70.316406 L 57.757812 58.773438 L 17.164062 58.773438 Z M 17.164062 70.316406 " fill-opacity="1" fill-rule="nonzero"/><path fill="#ffffff" d="M 14.179688 28.597656 L 19.996094 28.597656 L 19.996094 34.429688 L 14.179688 34.429688 Z M 14.179688 28.597656 " fill-opacity="1" fill-rule="nonzero"/><path fill="#000000" d="M 21.042969 35.457031 L 13.171875 35.457031 L 13.171875 27.570312 L 21.042969 27.570312 Z M 15.226562 33.398438 L 18.988281 33.398438 L 18.988281 29.628906 L 15.226562 29.628906 Z M 15.226562 33.398438 " fill-opacity="1" fill-rule="nonzero"/><path fill="#ffffff" d="M 27.75 28.597656 L 33.566406 28.597656 L 33.566406 34.429688 L 27.75 34.429688 Z M 27.75 28.597656 " fill-opacity="1" fill-rule="nonzero"/><path fill="#000000" d="M 34.613281 35.457031 L 26.742188 35.457031 L 26.742188 27.570312 L 34.613281 27.570312 Z M 28.796875 33.398438 L 32.558594 33.398438 L 32.558594 29.628906 L 28.796875 29.628906 Z M 28.796875 33.398438 " fill-opacity="1" fill-rule="nonzero"/><path fill="#ffffff" d="M 41.320312 28.597656 L 47.132812 28.597656 L 47.132812 34.429688 L 41.320312 34.429688 Z M 41.320312 28.597656 " fill-opacity="1" fill-rule="nonzero"/><path fill="#000000" d="M 48.179688 35.457031 L 40.3125 35.457031 L 40.3125 27.570312 L 48.179688 27.570312 Z M 42.367188 33.398438 L 46.125 33.398438 L 46.125 29.628906 L 42.367188 29.628906 Z M 42.367188 33.398438 " fill-opacity="1" fill-rule="nonzero"/><path fill="#ffffff" d="M 54.886719 28.597656 L 60.703125 28.597656 L 60.703125 34.429688 L 54.886719 34.429688 Z M 54.886719 28.597656 " fill-opacity="1" fill-rule="nonzero"/><path fill="#000000" d="M 61.75 35.457031 L 53.878906 35.457031 L 53.878906 27.570312 L 61.75 27.570312 Z M 55.933594 33.398438 L 59.695312 33.398438 L 59.695312 29.628906 L 55.933594 29.628906 Z M 55.933594 33.398438 " fill-opacity="1" fill-rule="nonzero"/><path fill="#ffffff" d="M 14.179688 42.199219 L 19.996094 42.199219 L 19.996094 48.03125 L 14.179688 48.03125 Z M 14.179688 42.199219 " fill-opacity="1" fill-rule="nonzero"/><path fill="#000000" d="M 21.042969 49.058594 L 13.171875 49.058594 L 13.171875 41.171875 L 21.042969 41.171875 Z M 15.226562 47 L 18.988281 47 L 18.988281 43.230469 L 15.226562 43.230469 Z M 15.226562 47 " fill-opacity="1" fill-rule="nonzero"/><path fill="#ffffff" d="M 27.75 42.199219 L 33.566406 42.199219 L 33.566406 48.03125 L 27.75 48.03125 Z M 27.75 42.199219 " fill-opacity="1" fill-rule="nonzero"/><path fill="#000000" d="M 34.613281 49.058594 L 26.742188 49.058594 L 26.742188 41.171875 L 34.613281 41.171875 Z M 28.796875 47 L 32.558594 47 L 32.558594 43.230469 L 28.796875 43.230469 Z M 28.796875 47 " fill-opacity="1" fill-rule="nonzero"/><path fill="#ffffff" d="M 41.320312 42.199219 L 47.132812 42.199219 L 47.132812 48.03125 L 41.320312 48.03125 Z M 41.320312 42.199219 " fill-opacity="1" fill-rule="nonzero"/><path fill="#000000" d="M 48.179688 49.058594 L 40.3125 49.058594 L 40.3125 41.171875 L 48.179688 41.171875 Z M 42.367188 47 L 46.125 47 L 46.125 43.230469 L 42.367188 43.230469 Z M 42.367188 47 " fill-opacity="1" fill-rule="nonzero"/><path fill="#ffffff" d="M 54.886719 42.199219 L 60.703125 42.199219 L 60.703125 48.03125 L 54.886719 48.03125 Z M 54.886719 42.199219 " fill-opacity="1" fill-rule="nonzero"/><path fill="#000000" d="M 61.75 49.058594 L 53.878906 49.058594 L 53.878906 41.171875 L 61.75 41.171875 Z M 55.933594 47 L 59.695312 47 L 59.695312 43.230469 L 55.933594 43.230469 Z M 55.933594 47 " fill-opacity="1" fill-rule="nonzero"/><path fill="#000000" d="M 38.351562 57.726562 L 40.40625 57.726562 L 40.40625 71.324219 L 38.351562 71.324219 Z M 38.351562 57.726562 " fill-opacity="1" fill-rule="nonzero"/><path fill="#000000" d="M 34.476562 57.726562 L 36.53125 57.726562 L 36.53125 71.324219 L 34.476562 71.324219 Z M 34.476562 57.726562 " fill-opacity="1" fill-rule="nonzero"/><path fill="#ffffff" d="M 22.902344 15 L 51.980469 15 L 51.980469 18.882812 L 22.902344 18.882812 Z M 22.902344 15 " fill-opacity="1" fill-rule="nonzero"/><path fill="#000000" d="M 53.105469 19.992188 L 21.796875 19.992188 L 21.796875 13.871094 L 53.105469 13.871094 Z M 24.027344 17.757812 L 50.875 17.757812 L 50.875 16.105469 L 24.027344 16.105469 Z M 24.027344 17.757812 " fill-opacity="1" fill-rule="nonzero"/></svg>