<svg xmlns="http://www.w3.org/2000/svg" xmlns:xlink="http://www.w3.org/1999/xlink" width="100" zoomAndPan="magnify" viewBox="0 0 75 74.999997" height="100" preserveAspectRatio="xMidYMid meet" version="1.0"><path fill="#000000" d="M 8.914062 44.707031 L 8.914062 73.675781 C 8.914062 74.402344 9.503906 74.996094 10.230469 74.996094 L 41.324219 74.996094 L 41.324219 48.761719 L 55.929688 48.761719 L 55.929688 74.996094 L 64.617188 74.996094 C 65.347656 74.996094 65.9375 74.402344 65.9375 73.675781 L 65.9375 44.707031 L 37.441406 16.332031 Z M 32.097656 60.984375 L 18.921875 60.984375 L 18.921875 48.765625 L 32.097656 48.765625 Z M 32.097656 60.984375 " fill-opacity="1" fill-rule="nonzero"/><path fill="#000000" d="M 71.710938 34.289062 L 37.425781 0.00390625 L 21.25 16.175781 L 21.25 9.058594 C 21.25 7.398438 19.902344 6.046875 18.238281 6.046875 C 16.578125 6.046875 15.226562 7.398438 15.226562 9.058594 L 15.226562 22.203125 L 3.136719 34.289062 C 1.667969 35.761719 1.667969 38.144531 3.136719 39.613281 C 3.875 40.347656 4.835938 40.71875 5.800781 40.71875 C 6.765625 40.71875 7.726562 40.347656 8.464844 39.617188 L 37.425781 10.65625 L 66.386719 39.613281 C 67.859375 41.085938 70.242188 41.085938 71.710938 39.613281 C 73.183594 38.144531 73.183594 35.757812 71.710938 34.289062 Z M 71.710938 34.289062 " fill-opacity="1" fill-rule="nonzero"/></svg>