<svg xmlns="http://www.w3.org/2000/svg" xmlns:xlink="http://www.w3.org/1999/xlink" width="100" zoomAndPan="magnify" viewBox="0 0 75 74.999997" height="100" preserveAspectRatio="xMidYMid meet" version="1.0"><path fill="#fcc521" d="M 18.527344 56.894531 C 19.546875 47.308594 27.652344 39.847656 37.503906 39.847656 C 47.347656 39.847656 55.453125 47.308594 56.472656 56.894531 Z M 37.5 18.105469 C 42.761719 18.105469 47.027344 22.371094 47.027344 27.632812 C 47.027344 32.894531 42.761719 37.160156 37.5 37.160156 C 32.238281 37.160156 27.972656 32.894531 27.972656 27.632812 C 27.972656 22.371094 32.238281 18.105469 37.5 18.105469 Z M 37.5 0 C 16.789062 0 0 16.789062 0 37.5 C 0 58.210938 16.789062 75 37.5 75 C 58.210938 75 75 58.210938 75 37.5 C 75 16.789062 58.210938 0 37.5 0 " fill-opacity="1" fill-rule="nonzero"/></svg>