<svg xmlns="http://www.w3.org/2000/svg" xmlns:xlink="http://www.w3.org/1999/xlink" width="200" zoomAndPan="magnify" viewBox="0 0 150 149.999998" height="200" preserveAspectRatio="xMidYMid meet" version="1.0"><defs><clipPath id="0eb7d74baf"><path d="M 1 0 L 149.25 0 L 149.25 150 L 1 150 Z M 1 0 " clip-rule="nonzero"/></clipPath></defs><g clip-path="url(#0eb7d74baf)"><path fill="#e5a810" d="M 103.273438 9.917969 C 94.601562 6.546875 85.328125 4.949219 76.082031 5.160156 L 76.082031 0.0117188 C 85.960938 0.253906 95.777344 2.390625 104.75 6.367188 C 113.722656 10.308594 121.851562 16.03125 128.59375 23.046875 C 135.308594 30.0625 140.609375 38.402344 144.101562 47.375 C 147.59375 56.347656 149.25 65.980469 149.070312 75.527344 C 148.828125 65.980469 146.75 56.527344 142.925781 47.855469 C 139.101562 39.183594 133.59375 31.328125 126.789062 24.851562 C 119.984375 18.378906 111.945312 13.261719 103.273438 9.917969 Z M 6.863281 56.980469 C 9.089844 47.855469 13.125 39.15625 18.726562 31.507812 C 24.296875 23.859375 31.460938 17.324219 39.621094 12.355469 C 31.25 16.964844 23.753906 23.226562 17.703125 30.722656 C 11.648438 38.222656 7.101562 46.984375 4.363281 56.316406 C 1.652344 65.652344 0.75 75.558594 1.832031 85.3125 C 2.886719 95.066406 5.929688 104.644531 10.65625 113.3125 L 15.113281 110.753906 C 10.324219 102.867188 7.074219 94.015625 5.65625 84.832031 C 4.242188 75.617188 4.664062 66.101562 6.863281 56.980469 Z M 119.320312 131.890625 C 112.09375 137.734375 103.632812 142.128906 94.632812 144.777344 C 85.628906 147.398438 76.054688 148.269531 66.628906 147.246094 C 57.207031 146.222656 47.992188 143.304688 39.589844 138.726562 C 47.75 143.664062 56.933594 147.035156 66.449219 148.511719 C 75.964844 149.988281 85.808594 149.566406 95.265625 147.246094 C 104.71875 144.929688 113.722656 140.742188 121.640625 134.933594 C 129.558594 129.152344 136.332031 121.746094 141.453125 113.285156 L 136.996094 110.726562 C 132.597656 118.824219 126.578125 126.050781 119.320312 131.890625 Z M 31.550781 31.023438 C 37.242188 25.0625 44.136719 20.15625 51.753906 16.785156 C 59.375 13.382812 67.683594 11.515625 76.113281 11.304688 C 84.515625 11.09375 93.035156 12.539062 100.953125 15.609375 C 108.902344 18.648438 116.25 23.316406 122.484375 29.21875 C 116.550781 23.015625 109.386719 17.925781 101.464844 14.40625 C 93.546875 10.882812 84.875 8.925781 76.144531 8.714844 C 67.382812 8.503906 58.558594 10.039062 50.308594 13.199219 C 42.03125 16.390625 34.382812 21.269531 27.910156 27.410156 Z M 59.792969 136.410156 C 51.785156 134.453125 44.109375 130.957031 37.363281 126.050781 C 30.617188 121.144531 24.835938 114.878906 20.441406 107.714844 C 16.046875 100.519531 13.066406 92.449219 11.738281 84.046875 C 10.414062 75.648438 10.777344 66.945312 12.765625 58.605469 C 10.355469 66.855469 9.542969 75.585938 10.445312 84.230469 C 11.347656 92.839844 14 101.332031 18.183594 109.007812 C 22.367188 116.6875 28.121094 123.582031 34.984375 129.121094 C 41.847656 134.660156 49.890625 138.878906 58.441406 141.375 Z M 136.933594 59.269531 C 139.253906 67.1875 140.066406 75.585938 139.164062 83.867188 C 138.289062 92.148438 135.761719 100.308594 131.757812 107.714844 C 127.722656 115.121094 122.210938 121.746094 115.617188 127.074219 C 109.023438 132.433594 101.316406 136.46875 93.066406 138.90625 C 101.40625 136.890625 109.386719 133.214844 116.402344 128.097656 C 123.417969 123.007812 129.4375 116.476562 133.984375 109.007812 C 138.53125 101.542969 141.632812 93.140625 142.988281 84.410156 C 144.371094 75.675781 143.980469 66.644531 141.902344 57.972656 Z M 136.933594 59.269531 " fill-opacity="1" fill-rule="nonzero"/></g></svg>