<svg xmlns="http://www.w3.org/2000/svg" xmlns:xlink="http://www.w3.org/1999/xlink" width="100" zoomAndPan="magnify" viewBox="0 0 75 74.999997" height="100" preserveAspectRatio="xMidYMid meet" version="1.0"><path fill="#ffffff" d="M 37.5 72.226562 C 18.320312 72.226562 2.773438 56.679688 2.773438 37.5 C 2.773438 18.320312 18.320312 2.773438 37.5 2.773438 C 56.679688 2.773438 72.226562 18.320312 72.226562 37.5 C 72.226562 56.679688 56.679688 72.226562 37.5 72.226562 Z M 37.5 -0.00390625 C 16.789062 -0.00390625 -0.00390625 16.789062 -0.00390625 37.5 C -0.00390625 58.210938 16.789062 75.003906 37.5 75.003906 C 58.210938 75.003906 75.003906 58.210938 75.003906 37.5 C 75.003906 16.789062 58.210938 -0.00390625 37.5 -0.00390625 " fill-opacity="1" fill-rule="nonzero"/><path fill="#ffffff" d="M 37.5 36.761719 C 32.429688 36.761719 28.316406 32.652344 28.316406 27.582031 C 28.316406 22.507812 32.429688 18.398438 37.5 18.398438 C 42.570312 18.398438 46.683594 22.507812 46.683594 27.582031 C 46.683594 32.652344 42.570312 36.761719 37.5 36.761719 Z M 37.5 5.835938 C 25.492188 5.835938 15.753906 15.570312 15.753906 27.582031 C 15.753906 39.589844 37.5 69.164062 37.5 69.164062 C 37.5 69.164062 59.246094 39.589844 59.246094 27.582031 C 59.246094 15.570312 49.507812 5.835938 37.5 5.835938 " fill-opacity="1" fill-rule="nonzero"/></svg>