<svg xmlns="http://www.w3.org/2000/svg" xmlns:xlink="http://www.w3.org/1999/xlink" width="100" zoomAndPan="magnify" viewBox="0 0 75 74.999997" height="100" preserveAspectRatio="xMidYMid meet" version="1.0"><defs><clipPath id="21906f1d91"><path d="M 1.140625 69 L 73.890625 69 L 73.890625 74.671875 L 1.140625 74.671875 Z M 1.140625 69 " clip-rule="nonzero"/></clipPath><clipPath id="de098e90c2"><path d="M 8 1.171875 L 30 1.171875 L 30 70 L 8 70 Z M 8 1.171875 " clip-rule="nonzero"/></clipPath><clipPath id="385681d49c"><path d="M 29 1.171875 L 51 1.171875 L 51 70 L 29 70 Z M 29 1.171875 " clip-rule="nonzero"/></clipPath></defs><g clip-path="url(#21906f1d91)"><path fill="#231f20" d="M 73.867188 69.457031 L 66.191406 69.457031 L 66.191406 69.46875 L 37.816406 69.46875 L 37.816406 69.457031 L 1.164062 69.457031 L 1.164062 74.675781 L 73.867188 74.675781 L 73.867188 69.457031 " fill-opacity="1" fill-rule="nonzero"/></g><g clip-path="url(#de098e90c2)"><path fill="#231f20" d="M 27.179688 10.988281 L 10.328125 19.332031 L 10.328125 15.683594 L 27.179688 7.335938 Z M 27.179688 18.179688 L 10.328125 25.15625 L 10.328125 21.570312 L 27.179688 13.992188 Z M 27.179688 25.15625 L 10.328125 31.292969 L 10.328125 27.777344 L 27.179688 21.070312 Z M 27.179688 31.835938 L 10.328125 37.117188 L 10.328125 33.660156 L 27.179688 27.867188 Z M 27.179688 38.488281 L 10.328125 42.664062 L 10.328125 39.28125 L 27.179688 34.308594 Z M 27.179688 45.695312 L 10.328125 48.269531 L 10.328125 44.804688 L 27.179688 41.070312 Z M 27.179688 52.4375 L 10.328125 53.867188 L 10.328125 50.300781 L 27.179688 48.269531 Z M 27.179688 59.078125 L 10.328125 59.714844 L 10.328125 56.195312 L 27.179688 54.96875 Z M 27.179688 65.367188 L 10.328125 65.597656 L 10.328125 62.328125 L 27.179688 61.804688 Z M 8.839844 12.878906 L 8.839844 69.457031 L 29.617188 69.457031 L 29.617188 1.175781 L 8.839844 12.878906 " fill-opacity="1" fill-rule="nonzero"/></g><g clip-path="url(#385681d49c)"><path fill="#322f30" d="M 31.667969 13.867188 L 48.410156 19.605469 L 48.410156 23.058594 L 31.667969 17.320312 Z M 31.667969 7.011719 L 48.410156 13.703125 L 48.410156 17.222656 L 31.667969 10.53125 Z M 31.667969 65.617188 L 31.667969 62.347656 L 37.816406 62.347656 L 37.816406 58.65625 L 31.667969 58.410156 L 31.667969 55.140625 L 37.816406 55.386719 L 37.816406 52.320312 L 31.667969 51.832031 L 31.667969 48.554688 L 37.816406 49.042969 L 37.816406 45.632812 L 31.667969 44.828125 L 31.667969 41.53125 L 37.816406 42.335938 L 37.816406 38.902344 L 31.667969 37.644531 L 31.667969 34.308594 L 37.816406 35.566406 L 37.816406 32.578125 L 31.667969 31 L 31.667969 27.625 L 39.359375 29.601562 L 43.125 27.480469 L 31.667969 24.101562 L 31.667969 20.691406 L 47.09375 25.242188 L 50.003906 23.605469 L 50.003906 10.734375 L 29.617188 1.175781 L 29.617188 69.457031 L 37.816406 69.457031 L 37.816406 65.617188 L 31.667969 65.617188 " fill-opacity="1" fill-rule="nonzero"/></g><path fill="#231f20" d="M 39 64.464844 L 50.304688 64.101562 L 50.304688 66.554688 L 39 66.714844 Z M 39 60.238281 L 50.304688 59.667969 L 50.304688 62.226562 L 39 62.660156 Z M 50.304688 54.777344 L 50.304688 57.652344 L 39 58.632812 L 39 56.367188 Z M 50.304688 50.300781 L 50.304688 52.898438 L 39 54.96875 L 39 52.671875 Z M 39 48.585938 L 50.304688 45.164062 L 50.304688 48.039062 L 39 50.917969 Z M 39 44.714844 L 50.304688 40.726562 L 50.304688 43.460938 L 39 47.097656 Z M 39 40.664062 L 50.304688 36.042969 L 50.304688 38.859375 L 39 43.085938 Z M 50.304688 31.167969 L 50.304688 33.636719 L 39 38.859375 L 39 36.390625 Z M 39 32.332031 L 50.304688 26.585938 L 50.304688 29.097656 L 39 34.847656 Z M 52.140625 69.46875 L 52.140625 22.402344 L 50.003906 23.605469 L 47.09375 25.242188 L 43.125 27.480469 L 39.359375 29.601562 L 37.816406 30.46875 L 37.816406 69.46875 L 52.140625 69.46875 " fill-opacity="1" fill-rule="nonzero"/><path fill="#322f30" d="M 53.550781 64.566406 L 65.089844 64.566406 L 65.089844 66.820312 L 53.550781 66.820312 Z M 53.550781 59.597656 L 65.089844 60.058594 L 65.089844 62.3125 L 53.550781 62.128906 Z M 53.550781 55.058594 L 65.089844 55.980469 L 65.089844 58.238281 L 53.550781 57.554688 Z M 53.550781 50.023438 L 65.089844 51.730469 L 65.089844 54 L 53.550781 52.71875 Z M 53.550781 45.238281 L 65.089844 47.601562 L 65.089844 49.902344 L 53.550781 47.917969 Z M 53.550781 40.632812 L 65.089844 43.597656 L 65.089844 45.921875 L 53.550781 42.957031 Z M 53.550781 35.855469 L 65.089844 39.257812 L 65.089844 41.605469 L 53.550781 38.203125 Z M 53.550781 31.148438 L 65.089844 35.105469 L 65.089844 37.484375 L 53.550781 33.53125 Z M 53.550781 26.425781 L 65.089844 31.035156 L 65.089844 33.460938 L 53.550781 28.851562 Z M 52.140625 69.46875 L 66.191406 69.46875 L 66.191406 28.992188 L 52.140625 22.402344 L 52.140625 69.46875 " fill-opacity="1" fill-rule="nonzero"/></svg>