<svg xmlns="http://www.w3.org/2000/svg" xmlns:xlink="http://www.w3.org/1999/xlink" width="100" zoomAndPan="magnify" viewBox="0 0 75 74.999997" height="100" preserveAspectRatio="xMidYMid meet" version="1.0"><defs><clipPath id="e312d133da"><path d="M 4.5 6.25 L 70.5 6.25 L 70.5 75 L 4.5 75 Z M 4.5 6.25 " clip-rule="nonzero"/></clipPath></defs><g clip-path="url(#e312d133da)"><path fill="#000000" d="M 29.484375 33.695312 L 34.535156 33.695312 L 34.535156 38.765625 L 29.484375 38.765625 Z M 40.464844 38.820312 L 45.515625 38.820312 L 45.515625 33.75 L 40.464844 33.75 Z M 29.484375 48.136719 L 34.535156 48.136719 L 34.535156 43.066406 L 29.484375 43.066406 Z M 40.464844 48.136719 L 45.515625 48.136719 L 45.515625 43.066406 L 40.464844 43.066406 Z M 29.484375 57.449219 L 34.535156 57.449219 L 34.535156 52.378906 L 29.484375 52.378906 Z M 40.464844 57.449219 L 45.515625 57.449219 L 45.515625 52.378906 L 40.464844 52.378906 Z M 29.484375 66.761719 L 34.535156 66.761719 L 34.535156 61.691406 L 29.484375 61.691406 Z M 40.464844 66.761719 L 45.515625 66.761719 L 45.515625 61.691406 L 40.464844 61.691406 Z M 70.445312 73.871094 C 70.445312 74.644531 69.839844 75.25 69.070312 75.25 L 5.929688 75.25 C 5.160156 75.25 4.554688 74.644531 4.554688 73.871094 C 4.554688 73.101562 5.160156 72.496094 5.929688 72.496094 L 20.09375 72.496094 L 20.09375 40.199219 L 12.628906 40.199219 L 12.628906 69.574219 L 9.882812 69.574219 L 9.882812 38.820312 C 9.882812 38.050781 10.484375 37.441406 11.253906 37.441406 L 20.09375 37.441406 L 20.09375 26.863281 C 20.09375 26.089844 20.699219 25.484375 21.46875 25.484375 L 25.96875 25.484375 L 25.96875 17.824219 C 25.96875 17.050781 26.574219 16.445312 27.34375 16.445312 L 30.03125 16.445312 L 30.03125 13.746094 C 30.03125 9.613281 33.382812 6.25 37.5 6.25 C 41.617188 6.25 44.96875 9.613281 44.96875 13.746094 L 44.96875 16.445312 L 47.65625 16.445312 C 48.425781 16.445312 49.03125 17.050781 49.03125 17.824219 L 49.03125 25.484375 L 53.53125 25.484375 C 54.300781 25.484375 54.90625 26.089844 54.90625 26.863281 L 54.90625 37.441406 L 63.746094 37.441406 C 64.515625 37.441406 65.117188 38.050781 65.117188 38.820312 L 65.117188 72.496094 L 69.125 72.496094 C 69.839844 72.496094 70.445312 73.101562 70.445312 73.871094 Z M 32.777344 16.445312 L 42.222656 16.445312 L 42.222656 13.746094 C 42.222656 11.15625 40.082031 9.003906 37.5 9.003906 C 34.917969 9.003906 32.777344 11.15625 32.777344 13.746094 Z M 28.714844 25.484375 L 46.285156 25.484375 L 46.285156 19.203125 L 28.714844 19.203125 Z M 62.371094 72.496094 L 62.371094 40.199219 L 54.90625 40.199219 L 54.90625 69.574219 L 52.160156 69.574219 L 52.160156 28.238281 L 22.839844 28.238281 L 22.839844 72.496094 Z M 62.371094 72.496094 " fill-opacity="1" fill-rule="nonzero"/></g></svg>