<svg xmlns="http://www.w3.org/2000/svg" xmlns:xlink="http://www.w3.org/1999/xlink" width="200" zoomAndPan="magnify" viewBox="0 0 150 149.999998" height="200" preserveAspectRatio="xMidYMid meet" version="1.0"><path fill="#000000" d="M 135.484375 33.871094 L 140.324219 33.871094 L 140.324219 29.03125 L 135.484375 29.03125 L 135.484375 33.871094 " fill-opacity="1" fill-rule="nonzero"/><path fill="#000000" d="M 125.804688 33.871094 L 130.644531 33.871094 L 130.644531 29.03125 L 125.804688 29.03125 L 125.804688 33.871094 " fill-opacity="1" fill-rule="nonzero"/><path fill="#000000" d="M 116.128906 33.871094 L 120.96875 33.871094 L 120.96875 29.03125 L 116.128906 29.03125 L 116.128906 33.871094 " fill-opacity="1" fill-rule="nonzero"/><path fill="#000000" d="M 111.289062 29.03125 L 87.097656 29.03125 L 87.097656 33.871094 L 111.289062 33.871094 L 111.289062 29.03125 " fill-opacity="1" fill-rule="nonzero"/><path fill="#000000" d="M 140.324219 19.355469 L 87.097656 19.355469 L 87.097656 24.195312 L 140.324219 24.195312 L 140.324219 19.355469 " fill-opacity="1" fill-rule="nonzero"/><path fill="#000000" d="M 140.324219 9.675781 L 87.097656 9.675781 L 87.097656 14.515625 L 140.324219 14.515625 L 140.324219 9.675781 " fill-opacity="1" fill-rule="nonzero"/><path fill="#000000" d="M 145.160156 38.710938 L 120.96875 38.710938 L 120.96875 52.347656 C 120.96875 53.09375 119.890625 53.480469 119.417969 52.914062 L 107.585938 38.710938 L 82.257812 38.710938 L 82.257812 4.839844 L 145.160156 4.839844 Z M 96.773438 62.902344 C 96.773438 86.917969 77.238281 106.453125 53.226562 106.453125 C 29.210938 106.453125 9.675781 86.917969 9.675781 62.902344 C 9.675781 38.890625 29.210938 19.355469 53.226562 19.355469 C 61.921875 19.355469 70.246094 21.914062 77.417969 26.726562 L 77.417969 32.753906 C 70.597656 27.292969 62.050781 24.195312 53.226562 24.195312 C 31.875 24.195312 14.515625 41.554688 14.515625 62.902344 C 14.515625 84.253906 31.875 101.613281 53.226562 101.613281 C 74.574219 101.613281 91.933594 84.253906 91.933594 62.902344 C 91.933594 56.015625 90.128906 49.40625 86.726562 43.546875 L 92.226562 43.546875 C 95.1875 49.53125 96.773438 56.183594 96.773438 62.902344 Z M 29.949219 114.824219 L 21.152344 109.542969 L 25.222656 102.292969 C 27.992188 104.269531 30.949219 105.96875 34.105469 107.332031 Z M 13.957031 143.613281 C 13.125 145.085938 11.058594 145.585938 9.648438 144.660156 L 6.179688 142.335938 C 5.339844 141.777344 4.839844 140.84375 4.839844 139.839844 L 4.839844 139.320312 C 4.839844 138.808594 4.972656 138.300781 5.226562 137.847656 L 18.777344 113.765625 L 27.597656 119.058594 Z M 62.167969 59.804688 C 65.550781 57.136719 67.742188 53.019531 67.742188 48.386719 C 67.742188 40.382812 61.230469 33.871094 53.226562 33.871094 C 45.222656 33.871094 38.710938 40.382812 38.710938 48.386719 C 38.710938 53.019531 40.902344 57.136719 44.285156 59.804688 C 35.363281 63.367188 29.03125 72.078125 29.03125 82.257812 L 29.03125 86.566406 C 23.058594 80.453125 19.355469 72.109375 19.355469 62.902344 C 19.355469 44.230469 34.550781 29.03125 53.226562 29.03125 C 62.34375 29.03125 71.125 32.785156 77.484375 39.304688 C 77.710938 41.203125 79.042969 42.753906 80.820312 43.3125 C 84.914062 49.058594 87.097656 55.804688 87.097656 62.902344 C 87.097656 72.109375 83.390625 80.453125 77.417969 86.566406 L 77.417969 82.257812 C 77.417969 72.078125 71.085938 63.367188 62.167969 59.804688 Z M 72.582031 90.660156 C 67.089844 94.496094 60.417969 96.773438 53.226562 96.773438 C 46.035156 96.773438 39.363281 94.496094 33.871094 90.660156 L 33.871094 82.257812 C 33.871094 71.589844 42.554688 62.902344 53.226562 62.902344 C 63.894531 62.902344 72.582031 71.589844 72.582031 82.257812 Z M 43.546875 48.386719 C 43.546875 43.046875 47.886719 38.710938 53.226562 38.710938 C 58.566406 38.710938 62.902344 43.046875 62.902344 48.386719 C 62.902344 53.726562 58.566406 58.066406 53.226562 58.066406 C 47.886719 58.066406 43.546875 53.726562 43.546875 48.386719 Z M 145.160156 0 L 82.257812 0 C 79.59375 0 77.417969 2.171875 77.417969 4.839844 L 77.417969 21.019531 C 70.085938 16.765625 61.816406 14.515625 53.226562 14.515625 C 26.546875 14.515625 4.839844 36.222656 4.839844 62.902344 C 4.839844 77.390625 11.265625 90.375 21.386719 99.25 L 1.011719 135.484375 C 0.351562 136.65625 0 137.980469 0 139.320312 L 0 139.839844 C 0 142.46875 1.304688 144.90625 3.496094 146.371094 L 6.964844 148.675781 C 8.261719 149.546875 9.773438 150 11.320312 150 C 14.167969 150 16.804688 148.449219 18.183594 145.964844 L 38.691406 109.050781 C 43.285156 110.496094 48.160156 111.289062 53.226562 111.289062 C 79.90625 111.289062 101.613281 89.582031 101.613281 62.902344 C 101.613281 56.230469 100.203125 49.625 97.558594 43.546875 L 105.316406 43.546875 L 115.703125 56.003906 C 116.789062 57.316406 118.386719 58.066406 120.089844 58.066406 C 123.246094 58.066406 125.804688 55.503906 125.804688 52.347656 L 125.804688 43.546875 L 145.160156 43.546875 C 147.828125 43.546875 150 41.375 150 38.710938 L 150 4.839844 C 150 2.171875 147.828125 0 145.160156 0 " fill-opacity="1" fill-rule="nonzero"/><path fill="#000000" d="M 130.644531 82.257812 L 130.644531 84.675781 C 130.644531 85.527344 130.625 86.386719 130.570312 87.238281 C 129.40625 108.890625 117.148438 123.21875 95.660156 128.566406 C 109.503906 119.484375 117.925781 107.472656 120.269531 93.285156 C 120.730469 90.460938 120.96875 87.558594 120.96875 84.675781 L 120.96875 82.257812 L 113.8125 82.257812 L 125.804688 66.84375 L 137.800781 82.257812 Z M 103.929688 87.097656 L 116.0625 87.097656 C 115.976562 88.910156 115.78125 90.714844 115.488281 92.503906 C 112.765625 109.070312 101.253906 121.980469 81.273438 130.851562 L 68.660156 136.464844 L 82.429688 135.472656 C 114.578125 133.179688 133.886719 115.695312 135.410156 87.503906 C 135.417969 87.363281 135.417969 87.230469 135.425781 87.097656 L 147.683594 87.097656 L 125.804688 58.960938 L 103.929688 87.097656 " fill-opacity="1" fill-rule="nonzero"/></svg>