<svg xmlns="http://www.w3.org/2000/svg" xmlns:xlink="http://www.w3.org/1999/xlink" width="100" zoomAndPan="magnify" viewBox="0 0 75 74.999997" height="100" preserveAspectRatio="xMidYMid meet" version="1.0"><path fill="#ffffff" d="M 37.5 0 C 16.820312 0 0 16.820312 0 37.5 C 0 58.179688 16.820312 75 37.5 75 C 58.179688 75 75 58.179688 75 37.5 C 75 16.820312 58.179688 0 37.5 0 Z M 37.5 72.371094 C 18.246094 72.371094 2.628906 56.753906 2.628906 37.5 C 2.628906 18.246094 18.246094 2.628906 37.5 2.628906 C 56.753906 2.628906 72.371094 18.246094 72.371094 37.5 C 72.371094 56.753906 56.753906 72.371094 37.5 72.371094 Z M 37.5 72.371094 " fill-opacity="1" fill-rule="nonzero"/><path fill="#ffffff" d="M 56.378906 25.417969 L 43.683594 37.5 L 56.378906 49.582031 C 56.722656 49.117188 56.9375 48.597656 57.035156 48.03125 L 57.035156 26.96875 C 56.9375 26.402344 56.722656 25.882812 56.378906 25.417969 Z M 56.378906 25.417969 " fill-opacity="1" fill-rule="nonzero"/><path fill="#ffffff" d="M 37.5 43.386719 L 32.277344 38.414062 L 19.589844 50.484375 C 20.1875 50.878906 20.84375 51.074219 21.558594 51.074219 L 53.441406 51.074219 C 54.15625 51.074219 54.8125 50.878906 55.410156 50.484375 L 42.722656 38.414062 Z M 37.5 43.386719 " fill-opacity="1" fill-rule="nonzero"/><path fill="#ffffff" d="M 18.621094 25.417969 C 18.277344 25.882812 18.0625 26.402344 17.964844 26.96875 L 17.964844 48.03125 C 18.0625 48.597656 18.277344 49.117188 18.621094 49.582031 L 31.316406 37.5 Z M 18.621094 25.417969 " fill-opacity="1" fill-rule="nonzero"/><path fill="#ffffff" d="M 32.277344 36.585938 L 37.5 41.566406 L 55.410156 24.515625 C 54.8125 24.121094 54.15625 23.925781 53.441406 23.925781 L 21.558594 23.925781 C 20.84375 23.925781 20.1875 24.121094 19.589844 24.515625 Z M 32.277344 36.585938 " fill-opacity="1" fill-rule="nonzero"/></svg>