<svg xmlns="http://www.w3.org/2000/svg" xmlns:xlink="http://www.w3.org/1999/xlink" width="100" zoomAndPan="magnify" viewBox="0 0 75 74.999997" height="100" preserveAspectRatio="xMidYMid meet" version="1.0"><defs><clipPath id="ff84f17aeb"><path d="M 13 10.585938 L 55 10.585938 L 55 64.585938 L 13 64.585938 Z M 13 10.585938 " clip-rule="nonzero"/></clipPath><clipPath id="da6a334dca"><path d="M 13 10.585938 L 35 10.585938 L 35 25 L 13 25 Z M 13 10.585938 " clip-rule="nonzero"/></clipPath><clipPath id="2baad38f0c"><path d="M 42 40 L 61.726562 40 L 61.726562 60 L 42 60 Z M 42 40 " clip-rule="nonzero"/></clipPath></defs><path fill="#fcc521" d="M 75 37.5 C 75 38.726562 74.941406 39.953125 74.820312 41.175781 C 74.699219 42.398438 74.519531 43.609375 74.28125 44.816406 C 74.039062 46.019531 73.742188 47.210938 73.386719 48.386719 C 73.027344 49.5625 72.617188 50.714844 72.144531 51.851562 C 71.675781 52.984375 71.152344 54.09375 70.570312 55.175781 C 69.992188 56.261719 69.363281 57.3125 68.679688 58.332031 C 67.996094 59.355469 67.265625 60.339844 66.488281 61.289062 C 65.707031 62.238281 64.886719 63.148438 64.015625 64.015625 C 63.148438 64.886719 62.238281 65.707031 61.289062 66.488281 C 60.339844 67.265625 59.355469 67.996094 58.332031 68.679688 C 57.3125 69.363281 56.261719 69.992188 55.175781 70.570312 C 54.09375 71.152344 52.984375 71.675781 51.851562 72.144531 C 50.714844 72.617188 49.5625 73.027344 48.386719 73.386719 C 47.210938 73.742188 46.019531 74.039062 44.816406 74.28125 C 43.609375 74.519531 42.398438 74.699219 41.175781 74.820312 C 39.953125 74.941406 38.726562 75 37.5 75 C 36.273438 75 35.046875 74.941406 33.824219 74.820312 C 32.601562 74.699219 31.390625 74.519531 30.183594 74.28125 C 28.980469 74.039062 27.789062 73.742188 26.613281 73.386719 C 25.4375 73.027344 24.285156 72.617188 23.148438 72.144531 C 22.015625 71.675781 20.90625 71.152344 19.824219 70.570312 C 18.738281 69.992188 17.6875 69.363281 16.667969 68.679688 C 15.644531 67.996094 14.660156 67.265625 13.710938 66.488281 C 12.761719 65.707031 11.851562 64.886719 10.984375 64.015625 C 10.113281 63.148438 9.292969 62.238281 8.511719 61.289062 C 7.734375 60.339844 7.003906 59.355469 6.320312 58.332031 C 5.636719 57.3125 5.007812 56.261719 4.429688 55.175781 C 3.847656 54.09375 3.324219 52.984375 2.855469 51.851562 C 2.382812 50.714844 1.972656 49.5625 1.613281 48.386719 C 1.257812 47.210938 0.960938 46.019531 0.71875 44.816406 C 0.480469 43.609375 0.300781 42.398438 0.179688 41.175781 C 0.0585938 39.953125 0 38.726562 0 37.5 C 0 36.273438 0.0585938 35.046875 0.179688 33.824219 C 0.300781 32.601562 0.480469 31.390625 0.71875 30.183594 C 0.960938 28.980469 1.257812 27.789062 1.613281 26.613281 C 1.972656 25.4375 2.382812 24.285156 2.855469 23.148438 C 3.324219 22.015625 3.847656 20.90625 4.429688 19.824219 C 5.007812 18.738281 5.636719 17.6875 6.320312 16.667969 C 7.003906 15.644531 7.734375 14.660156 8.511719 13.710938 C 9.292969 12.761719 10.113281 11.851562 10.984375 10.984375 C 11.851562 10.113281 12.761719 9.292969 13.710938 8.511719 C 14.660156 7.734375 15.644531 7.003906 16.667969 6.320312 C 17.6875 5.636719 18.738281 5.007812 19.824219 4.429688 C 20.90625 3.847656 22.015625 3.324219 23.148438 2.855469 C 24.285156 2.382812 25.4375 1.972656 26.613281 1.613281 C 27.789062 1.257812 28.980469 0.960938 30.183594 0.71875 C 31.390625 0.480469 32.601562 0.300781 33.824219 0.179688 C 35.046875 0.0585938 36.273438 0 37.5 0 C 38.726562 0 39.953125 0.0585938 41.175781 0.179688 C 42.398438 0.300781 43.609375 0.480469 44.816406 0.71875 C 46.019531 0.960938 47.210938 1.257812 48.386719 1.613281 C 49.5625 1.972656 50.714844 2.382812 51.851562 2.855469 C 52.984375 3.324219 54.09375 3.847656 55.175781 4.429688 C 56.261719 5.007812 57.3125 5.636719 58.332031 6.320312 C 59.355469 7.003906 60.339844 7.734375 61.289062 8.511719 C 62.238281 9.292969 63.148438 10.113281 64.015625 10.984375 C 64.886719 11.851562 65.707031 12.761719 66.488281 13.710938 C 67.265625 14.660156 67.996094 15.644531 68.679688 16.667969 C 69.363281 17.6875 69.992188 18.738281 70.570312 19.824219 C 71.152344 20.90625 71.675781 22.015625 72.144531 23.148438 C 72.617188 24.285156 73.027344 25.4375 73.386719 26.613281 C 73.742188 27.789062 74.039062 28.980469 74.28125 30.183594 C 74.519531 31.390625 74.699219 32.601562 74.820312 33.824219 C 74.941406 35.046875 75 36.273438 75 37.5 Z M 75 37.5 " fill-opacity="1" fill-rule="nonzero"/><g clip-path="url(#ff84f17aeb)"><path fill="#ffffff" d="M 50.554688 64.585938 L 17.457031 64.585938 C 15.1875 64.585938 13.351562 62.703125 13.351562 60.441406 L 13.351562 19.972656 C 13.351562 19.722656 13.507812 19.503906 13.726562 19.410156 L 33.757812 10.996094 L 50.554688 10.996094 C 52.824219 10.996094 54.660156 12.847656 54.660156 15.140625 L 54.660156 48.636719 C 54.660156 49.453125 53.417969 49.453125 53.417969 48.636719 L 53.417969 15.140625 C 53.417969 13.539062 52.140625 12.25 50.554688 12.25 L 33.882812 12.25 L 14.597656 20.382812 L 14.597656 60.441406 C 14.597656 62.011719 15.871094 63.332031 17.457031 63.332031 L 50.554688 63.332031 C 52.140625 63.332031 53.417969 62.011719 53.417969 60.441406 L 53.417969 55.796875 C 53.417969 54.980469 54.660156 54.980469 54.660156 55.796875 L 54.660156 60.441406 C 54.660156 62.703125 52.824219 64.585938 50.554688 64.585938 Z M 50.554688 64.585938 " fill-opacity="1" fill-rule="evenodd"/></g><g clip-path="url(#da6a334dca)"><path fill="#ffffff" d="M 24.488281 24.464844 C 24.082031 24.464844 23.648438 24.371094 23.242188 24.210938 L 13.757812 20.570312 C 12.980469 20.257812 13.414062 19.09375 14.191406 19.378906 L 23.679688 23.019531 C 24.363281 23.300781 25.296875 23.300781 25.824219 22.484375 L 33.261719 11.277344 C 33.695312 10.585938 34.753906 11.277344 34.285156 11.96875 L 26.882812 23.175781 C 26.324219 24.023438 25.453125 24.464844 24.488281 24.464844 Z M 24.488281 24.464844 " fill-opacity="1" fill-rule="evenodd"/></g><path fill="#ffffff" d="M 40.851562 46.878906 C 40.695312 46.878906 40.539062 46.816406 40.414062 46.722656 L 35.0625 41.324219 C 34.816406 41.070312 34.816406 40.664062 35.0625 40.414062 L 42.25 33.160156 C 42.5 32.941406 42.902344 32.941406 43.152344 33.160156 L 48.472656 38.558594 C 48.71875 38.8125 48.71875 39.21875 48.472656 39.4375 L 41.285156 46.722656 C 41.160156 46.816406 41.003906 46.878906 40.851562 46.878906 Z M 36.402344 40.882812 L 40.851562 45.371094 L 47.164062 39 L 42.683594 34.511719 Z M 36.402344 40.882812 " fill-opacity="1" fill-rule="evenodd"/><path fill="#ffffff" d="M 49.652344 40.789062 C 49.1875 40.789062 48.75 40.632812 48.441406 40.285156 L 41.441406 33.222656 C 40.757812 32.53125 40.757812 31.402344 41.441406 30.710938 C 42.34375 29.800781 43.027344 28.828125 44.054688 28.828125 C 44.519531 28.828125 44.957031 29.015625 45.296875 29.328125 L 52.296875 36.394531 C 52.980469 37.085938 52.980469 38.214844 52.296875 38.90625 C 51.394531 39.816406 50.679688 40.789062 49.652344 40.789062 Z M 44.054688 30.082031 C 43.679688 30.082031 42.808594 31.121094 42.3125 31.621094 C 42.125 31.808594 42.125 32.15625 42.3125 32.34375 L 49.3125 39.40625 C 49.839844 39.941406 50.585938 38.84375 51.394531 37.996094 C 51.613281 37.808594 51.613281 37.492188 51.394531 37.273438 L 44.425781 30.242188 C 44.332031 30.113281 44.179688 30.082031 44.054688 30.082031 Z M 44.054688 30.082031 " fill-opacity="1" fill-rule="evenodd"/><path fill="#ffffff" d="M 39.511719 51.054688 C 39.015625 51.054688 38.578125 50.867188 38.269531 50.554688 L 31.269531 43.488281 C 30.585938 42.796875 30.585938 41.667969 31.269531 40.976562 C 32.171875 40.066406 32.855469 39.09375 33.882812 39.09375 C 34.347656 39.09375 34.785156 39.25 35.125 39.597656 L 42.125 46.660156 C 42.808594 47.351562 42.808594 48.480469 42.125 49.171875 C 41.222656 50.082031 40.507812 51.054688 39.511719 51.054688 Z M 33.882812 40.351562 C 33.507812 40.351562 32.636719 41.386719 32.140625 41.886719 C 31.953125 42.078125 31.953125 42.390625 32.140625 42.609375 L 39.140625 49.644531 C 39.667969 50.175781 40.414062 49.109375 41.222656 48.261719 C 41.441406 48.074219 41.441406 47.726562 41.222656 47.539062 L 34.253906 40.476562 C 34.160156 40.382812 34.039062 40.351562 33.882812 40.351562 Z M 33.882812 40.351562 " fill-opacity="1" fill-rule="evenodd"/><g clip-path="url(#2baad38f0c)"><path fill="#ffffff" d="M 58.144531 59.71875 C 57.429688 59.71875 56.746094 59.4375 56.246094 58.9375 L 42.28125 44.839844 C 42.03125 44.589844 42.03125 44.179688 42.28125 43.929688 L 45.828125 40.351562 C 46.074219 40.097656 46.449219 40.097656 46.699219 40.351562 L 60.664062 54.445312 C 61.722656 55.515625 61.722656 57.242188 60.664062 58.308594 C 59.917969 59.0625 59.390625 59.71875 58.144531 59.71875 Z M 43.585938 44.398438 L 57.117188 58.058594 C 57.679688 58.589844 58.644531 58.589844 59.171875 58.058594 C 59.730469 57.460938 60.882812 56.457031 59.792969 55.355469 L 46.261719 41.699219 Z M 43.585938 44.398438 " fill-opacity="1" fill-rule="evenodd"/></g><path fill="#ffffff" d="M 45.328125 47.632812 C 44.769531 47.632812 44.488281 46.972656 44.894531 46.566406 L 48.441406 42.988281 C 49 42.390625 49.902344 43.300781 49.3125 43.867188 L 45.765625 47.476562 C 45.640625 47.570312 45.484375 47.632812 45.328125 47.632812 Z M 45.328125 47.632812 " fill-opacity="1" fill-rule="evenodd"/><path fill="#ffffff" d="M 55.53125 57.960938 C 55.003906 57.960938 54.722656 57.304688 55.097656 56.894531 L 58.644531 53.316406 C 59.234375 52.71875 60.105469 53.597656 59.542969 54.195312 L 56 57.773438 C 55.875 57.898438 55.71875 57.960938 55.53125 57.960938 Z M 55.53125 57.960938 " fill-opacity="1" fill-rule="evenodd"/><path fill="#ffffff" d="M 42.746094 53.128906 L 25.886719 53.128906 C 25.078125 53.128906 25.078125 51.871094 25.886719 51.871094 L 42.746094 51.871094 C 43.554688 51.871094 43.554688 53.128906 42.746094 53.128906 Z M 42.746094 53.128906 " fill-opacity="1" fill-rule="evenodd"/><path fill="#ffffff" d="M 45.984375 56.738281 L 22.652344 56.738281 C 21.84375 56.738281 21.84375 55.480469 22.652344 55.480469 L 45.984375 55.480469 C 46.792969 55.480469 46.792969 56.738281 45.984375 56.738281 Z M 45.984375 56.738281 " fill-opacity="1" fill-rule="evenodd"/><path fill="#ffffff" d="M 21.9375 38.433594 C 19.449219 38.433594 18.515625 35.074219 19.882812 35.074219 C 20.226562 35.074219 20.507812 35.359375 20.507812 35.703125 C 20.507812 37.617188 23.398438 37.617188 23.398438 35.703125 C 23.398438 34.636719 22.902344 34.480469 21.8125 34.226562 C 20.785156 33.976562 19.261719 33.601562 19.261719 31.496094 C 19.261719 27.917969 24.644531 27.917969 24.644531 31.496094 C 24.644531 32.34375 23.398438 32.34375 23.398438 31.496094 C 23.398438 29.582031 20.507812 29.582031 20.507812 31.496094 C 20.507812 32.5625 20.972656 32.71875 22.09375 33.003906 C 23.121094 33.222656 24.644531 33.601562 24.644531 35.703125 C 24.644531 37.210938 23.429688 38.433594 21.9375 38.433594 Z M 21.9375 38.433594 " fill-opacity="1" fill-rule="evenodd"/><path fill="#ffffff" d="M 21.9375 30.050781 C 21.097656 30.050781 21.316406 28.859375 21.316406 27.855469 C 21.316406 27.007812 22.558594 27.007812 22.558594 27.855469 C 22.558594 28.859375 22.808594 30.050781 21.9375 30.050781 Z M 21.9375 30.050781 " fill-opacity="1" fill-rule="evenodd"/><path fill="#ffffff" d="M 21.9375 40.003906 C 21.097656 40.003906 21.316406 38.8125 21.316406 37.808594 C 21.316406 36.960938 22.558594 36.960938 22.558594 37.808594 C 22.558594 38.8125 22.808594 40.003906 21.9375 40.003906 Z M 21.9375 40.003906 " fill-opacity="1" fill-rule="evenodd"/></svg>