<svg xmlns="http://www.w3.org/2000/svg" xmlns:xlink="http://www.w3.org/1999/xlink" width="40" zoomAndPan="magnify" viewBox="0 0 30 30.000001" height="40" preserveAspectRatio="xMidYMid meet" version="1.0"><defs><clipPath id="e10e7b650a"><path d="M 0.484375 5.226562 L 29.515625 5.226562 L 29.515625 24 L 0.484375 24 Z M 0.484375 5.226562 " clip-rule="nonzero"/></clipPath><clipPath id="effcb9a8c4"><path d="M 0.484375 5.226562 L 29.515625 5.226562 L 29.515625 24.097656 L 0.484375 24.097656 Z M 0.484375 5.226562 " clip-rule="nonzero"/></clipPath><clipPath id="9b2f273474"><path d="M 0.484375 12 L 29.515625 12 L 29.515625 24.097656 L 0.484375 24.097656 Z M 0.484375 12 " clip-rule="nonzero"/></clipPath><clipPath id="057b2fe5e5"><path d="M 1 5.226562 L 29 5.226562 L 29 17 L 1 17 Z M 1 5.226562 " clip-rule="nonzero"/></clipPath><clipPath id="78e350a1a5"><path d="M 0.484375 5.226562 L 29.515625 5.226562 L 29.515625 17 L 0.484375 17 Z M 0.484375 5.226562 " clip-rule="nonzero"/></clipPath></defs><g clip-path="url(#e10e7b650a)"><path fill="#ffffff" d="M 1.386719 5.566406 L 28.609375 5.566406 C 28.757812 5.566406 28.886719 5.621094 28.992188 5.726562 C 29.097656 5.835938 29.148438 5.964844 29.148438 6.113281 L 29.148438 23.21875 C 29.148438 23.367188 29.097656 23.496094 28.992188 23.601562 C 28.886719 23.710938 28.757812 23.761719 28.609375 23.761719 L 1.386719 23.761719 C 1.238281 23.761719 1.113281 23.710938 1.007812 23.601562 C 0.902344 23.496094 0.847656 23.367188 0.847656 23.21875 L 0.847656 6.113281 C 0.847656 5.964844 0.902344 5.835938 1.007812 5.726562 C 1.113281 5.621094 1.238281 5.566406 1.386719 5.566406 " fill-opacity="1" fill-rule="nonzero"/></g><g clip-path="url(#effcb9a8c4)"><path stroke-linecap="round" transform="matrix(0.179108, 0, 0, 0.181951, -4.52369, -96.390199)" fill="none" stroke-linejoin="round" d="M 32.999103 560.35159 L 184.989144 560.35159 C 185.817903 560.35159 186.537615 560.652151 187.12647 561.231805 C 187.715325 561.832928 187.998848 562.541395 187.998848 563.357204 L 187.998848 657.368539 C 187.998848 658.184349 187.715325 658.892816 187.12647 659.47247 C 186.537615 660.073593 185.817903 660.352686 184.989144 660.352686 L 32.999103 660.352686 C 32.170344 660.352686 31.472441 660.073593 30.883586 659.47247 C 30.294731 658.892816 29.989399 658.184349 29.989399 657.368539 L 29.989399 563.357204 C 29.989399 562.541395 30.294731 561.832928 30.883586 561.231805 C 31.472441 560.652151 32.170344 560.35159 32.999103 560.35159 " stroke="#000000" stroke-width="3.75" stroke-opacity="1" stroke-miterlimit="4"/></g><g clip-path="url(#9b2f273474)"><path stroke-linecap="butt" transform="matrix(0.179108, 0, 0, 0.181951, -4.52369, -96.390199)" fill="none" stroke-linejoin="round" d="M 31.995868 658.356099 L 108.001793 602.36579 L 187.998848 660.352686 " stroke="#000000" stroke-width="3.75" stroke-opacity="1" stroke-miterlimit="4"/></g><g clip-path="url(#057b2fe5e5)"><path fill="#ffffff" d="M 1.195312 5.695312 L 14.765625 16.605469 L 28.789062 5.574219 Z M 1.195312 5.695312 " fill-opacity="1" fill-rule="evenodd"/></g><g clip-path="url(#78e350a1a5)"><path stroke-linecap="butt" transform="matrix(0.179108, 0, 0, 0.181951, -4.52369, -96.390199)" fill="none" stroke-linejoin="round" d="M 31.93044 561.060056 L 107.696461 621.02207 L 185.992378 560.394527 Z M 31.93044 561.060056 " stroke="#000000" stroke-width="3.75" stroke-opacity="1" stroke-miterlimit="4"/></g></svg>