<svg xmlns="http://www.w3.org/2000/svg" xmlns:xlink="http://www.w3.org/1999/xlink" width="40" zoomAndPan="magnify" viewBox="0 0 30 30.000001" height="40" preserveAspectRatio="xMidYMid meet" version="1.0"><defs><filter x="0%" y="0%" width="100%" height="100%" id="0d97432d59"><feColorMatrix values="0 0 0 0 1 0 0 0 0 1 0 0 0 0 1 0 0 0 1 0" color-interpolation-filters="sRGB"/></filter><clipPath id="b84a33f20e"><path d="M 0.484375 0 L 29.515625 0 L 29.515625 29.03125 L 0.484375 29.03125 Z M 0.484375 0 " clip-rule="nonzero"/></clipPath><mask id="fa45cc1555"><g filter="url(#0d97432d59)"><rect x="-3" width="36" fill="#000000" y="-3" height="36.000001" fill-opacity="0.6667"/></g></mask><clipPath id="5eb07ef65e"><path d="M 0.484375 0 L 29.515625 0 L 29.515625 29.03125 L 0.484375 29.03125 Z M 0.484375 0 " clip-rule="nonzero"/></clipPath><clipPath id="4bcaa725cf"><path d="M 15 0 C 6.984375 0 0.484375 6.5 0.484375 14.515625 C 0.484375 22.53125 6.984375 29.03125 15 29.03125 C 23.015625 29.03125 29.515625 22.53125 29.515625 14.515625 C 29.515625 6.5 23.015625 0 15 0 " clip-rule="nonzero"/></clipPath><clipPath id="c35a6a66d3"><rect x="0" width="30" y="0" height="30"/></clipPath><clipPath id="788d80b541"><path d="M 5.628906 15 L 24.5 15 L 24.5 20.890625 L 5.628906 20.890625 Z M 5.628906 15 " clip-rule="nonzero"/></clipPath><clipPath id="41d9c20865"><path d="M 5.628906 7.828125 L 24.5 7.828125 L 24.5 15 L 5.628906 15 Z M 5.628906 7.828125 " clip-rule="nonzero"/></clipPath><clipPath id="4f6e540f28"><path d="M 5.628906 8 L 13 8 L 13 20.890625 L 5.628906 20.890625 Z M 5.628906 8 " clip-rule="nonzero"/></clipPath><clipPath id="8a76e05971"><path d="M 18 8 L 24.5 8 L 24.5 20.890625 L 18 20.890625 Z M 18 8 " clip-rule="nonzero"/></clipPath></defs><g clip-path="url(#b84a33f20e)"><g mask="url(#fa45cc1555)"><g transform="matrix(1, 0, 0, 1, 0, 0.000000000000005692)"><g clip-path="url(#c35a6a66d3)"><g clip-path="url(#5eb07ef65e)"><g clip-path="url(#4bcaa725cf)"><path fill="#fcc521" d="M 0.484375 0 L 29.515625 0 L 29.515625 29.03125 L 0.484375 29.03125 Z M 0.484375 0 " fill-opacity="1" fill-rule="nonzero"/></g></g></g></g></g></g><g clip-path="url(#788d80b541)"><path fill="#ffffff" d="M 15.066406 16.917969 L 12.707031 15.03125 L 5.769531 20.550781 C 6.046875 20.6875 6.324219 20.820312 6.738281 20.820312 L 23.390625 20.820312 C 23.804688 20.820312 24.082031 20.6875 24.363281 20.417969 L 17.421875 15.03125 Z M 15.066406 16.917969 " fill-opacity="1" fill-rule="nonzero"/></g><g clip-path="url(#41d9c20865)"><path fill="#ffffff" d="M 24.363281 8.304688 C 24.082031 8.035156 23.804688 7.898438 23.390625 7.898438 L 6.738281 7.898438 C 6.324219 7.898438 6.046875 8.035156 5.769531 8.304688 L 15.066406 14.496094 Z M 24.363281 8.304688 " fill-opacity="1" fill-rule="nonzero"/></g><g clip-path="url(#4f6e540f28)"><path fill="#ffffff" d="M 5.628906 8.839844 L 5.628906 20.011719 L 12.011719 14.496094 Z M 5.628906 8.839844 " fill-opacity="1" fill-rule="nonzero"/></g><g clip-path="url(#8a76e05971)"><path fill="#ffffff" d="M 18.117188 14.496094 L 24.5 20.011719 L 24.5 8.839844 Z M 18.117188 14.496094 " fill-opacity="1" fill-rule="nonzero"/></g></svg>