<svg xmlns="http://www.w3.org/2000/svg" xmlns:xlink="http://www.w3.org/1999/xlink" width="100" zoomAndPan="magnify" viewBox="0 0 75 74.999997" height="100" preserveAspectRatio="xMidYMid meet" version="1.0"><defs><clipPath id="3b1a7c7ddd"><path d="M 37.5 0 C 16.789062 0 0 16.789062 0 37.5 C 0 58.210938 16.789062 75 37.5 75 C 58.210938 75 75 58.210938 75 37.5 C 75 16.789062 58.210938 0 37.5 0 " clip-rule="nonzero"/></clipPath><clipPath id="d9d117eb18"><path d="M 27.484375 16.304688 L 47.734375 16.304688 L 47.734375 59 L 27.484375 59 Z M 27.484375 16.304688 " clip-rule="nonzero"/></clipPath></defs><g clip-path="url(#3b1a7c7ddd)"><rect x="-7.5" width="90" fill="#f0000f" y="-7.5" height="89.999996" fill-opacity="1"/></g><g clip-path="url(#d9d117eb18)"><path fill="#ffffff" d="M 43.0625 23.394531 L 47.734375 23.394531 L 47.734375 16.371094 L 41.769531 16.371094 L 41.769531 16.398438 C 33.925781 16.683594 32.308594 21.066406 32.175781 25.699219 L 32.15625 25.699219 L 32.15625 30.574219 L 27.484375 30.574219 L 27.484375 37.609375 L 32.15625 37.609375 L 32.15625 58.992188 L 40.539062 58.992188 L 40.539062 37.609375 L 46.550781 37.609375 L 47.734375 30.574219 L 40.539062 30.574219 L 40.539062 26.210938 C 40.539062 24.660156 41.582031 23.394531 43.0625 23.394531 Z M 43.0625 23.394531 " fill-opacity="1" fill-rule="nonzero"/></g></svg>