<svg xmlns="http://www.w3.org/2000/svg" xmlns:xlink="http://www.w3.org/1999/xlink" width="40" zoomAndPan="magnify" viewBox="0 0 30 30.000001" height="40" preserveAspectRatio="xMidYMid meet" version="1.0"><defs><clipPath id="01f4c6ad26"><path d="M 0.484375 0 L 29.515625 0 L 29.515625 29.03125 L 0.484375 29.03125 Z M 0.484375 0 " clip-rule="nonzero"/></clipPath><clipPath id="aaca141d6c"><path d="M 15 0 C 6.984375 0 0.484375 6.5 0.484375 14.515625 C 0.484375 22.53125 6.984375 29.03125 15 29.03125 C 23.015625 29.03125 29.515625 22.53125 29.515625 14.515625 C 29.515625 6.5 23.015625 0 15 0 " clip-rule="nonzero"/></clipPath><clipPath id="f612cf8f41"><path d="M 5.457031 4.972656 L 24.328125 4.972656 L 24.328125 23.84375 L 5.457031 23.84375 Z M 5.457031 4.972656 " clip-rule="nonzero"/></clipPath></defs><g clip-path="url(#01f4c6ad26)"><g clip-path="url(#aaca141d6c)"><path fill="#737373" d="M 0.484375 0 L 29.515625 0 L 29.515625 29.03125 L 0.484375 29.03125 Z M 0.484375 0 " fill-opacity="1" fill-rule="nonzero"/></g></g><g clip-path="url(#f612cf8f41)"><path fill="#ffffff" d="M 9.257812 13.144531 C 10.765625 16.109375 13.191406 18.539062 16.164062 20.046875 L 18.472656 17.734375 C 18.757812 17.449219 19.171875 17.363281 19.535156 17.480469 C 20.710938 17.867188 21.972656 18.078125 23.277344 18.078125 C 23.859375 18.078125 24.328125 18.542969 24.328125 19.125 L 24.328125 22.792969 C 24.328125 23.375 23.859375 23.84375 23.277344 23.84375 C 13.433594 23.84375 5.457031 15.863281 5.457031 6.019531 C 5.457031 5.4375 5.925781 4.972656 6.503906 4.972656 L 10.171875 4.972656 C 10.753906 4.972656 11.222656 5.4375 11.222656 6.019531 C 11.222656 7.324219 11.429688 8.589844 11.820312 9.761719 C 11.933594 10.125 11.851562 10.539062 11.5625 10.828125 Z M 9.257812 13.144531 " fill-opacity="1" fill-rule="nonzero"/></g></svg>