<svg xmlns="http://www.w3.org/2000/svg" xmlns:xlink="http://www.w3.org/1999/xlink" width="100" zoomAndPan="magnify" viewBox="0 0 75 74.999997" height="100" preserveAspectRatio="xMidYMid meet" version="1.0"><defs><clipPath id="07e22df23f"><path d="M 37.5 0 C 16.789062 0 0 16.789062 0 37.5 C 0 58.210938 16.789062 75 37.5 75 C 58.210938 75 75 58.210938 75 37.5 C 75 16.789062 58.210938 0 37.5 0 " clip-rule="nonzero"/></clipPath><clipPath id="f47e564355"><path d="M 12.949219 21.789062 L 46 21.789062 L 46 50 L 12.949219 50 Z M 12.949219 21.789062 " clip-rule="nonzero"/></clipPath><clipPath id="6e9d6f404f"><path d="M 34 30 L 61.699219 30 L 61.699219 53.289062 L 34 53.289062 Z M 34 30 " clip-rule="nonzero"/></clipPath></defs><g clip-path="url(#07e22df23f)"><rect x="-7.5" width="90" fill="#f0000f" y="-7.5" height="89.999996" fill-opacity="1"/></g><g clip-path="url(#f47e564355)"><path fill="#ffffff" d="M 32.738281 42.136719 L 32.738281 33.246094 C 32.738281 30.945312 34.503906 29.082031 36.675781 29.082031 L 45.292969 29.082031 L 45.292969 26.960938 C 45.292969 24.117188 43.109375 21.8125 40.421875 21.8125 L 17.824219 21.8125 C 15.132812 21.8125 12.949219 24.117188 12.949219 26.960938 L 12.949219 37.964844 C 12.949219 40.808594 15.132812 43.113281 17.824219 43.113281 L 21.550781 43.113281 L 21.550781 49.195312 C 21.550781 49.53125 22.007812 49.765625 22.246094 49.484375 C 24.023438 47.359375 25.796875 45.238281 27.574219 43.113281 L 32.851562 43.113281 C 32.78125 42.800781 32.738281 42.472656 32.738281 42.136719 Z M 32.738281 42.136719 " fill-opacity="1" fill-rule="nonzero"/></g><g clip-path="url(#6e9d6f404f)"><path fill="#ffffff" d="M 34.976562 34.710938 L 34.976562 44.636719 C 34.976562 46.710938 36.566406 48.390625 38.527344 48.390625 L 47.894531 48.390625 C 49.1875 49.9375 50.484375 51.484375 51.777344 53.035156 C 51.949219 53.242188 52.285156 53.066406 52.285156 52.824219 L 52.285156 48.390625 L 58.148438 48.390625 C 60.109375 48.390625 61.699219 46.710938 61.699219 44.636719 L 61.699219 34.710938 C 61.699219 32.636719 60.109375 30.957031 58.148438 30.957031 L 38.527344 30.957031 C 36.566406 30.957031 34.976562 32.636719 34.976562 34.710938 Z M 34.976562 34.710938 " fill-opacity="1" fill-rule="nonzero"/></g></svg>