<svg xmlns="http://www.w3.org/2000/svg" xmlns:xlink="http://www.w3.org/1999/xlink" width="40" zoomAndPan="magnify" viewBox="0 0 30 30.000001" height="40" preserveAspectRatio="xMidYMid meet" version="1.0"><defs><clipPath id="08d3d47b12"><path d="M 0.484375 0 L 29.515625 0 L 29.515625 29.03125 L 0.484375 29.03125 Z M 0.484375 0 " clip-rule="nonzero"/></clipPath><clipPath id="1893a6c2f3"><path d="M 15 0 C 6.984375 0 0.484375 6.5 0.484375 14.515625 C 0.484375 22.53125 6.984375 29.03125 15 29.03125 C 23.015625 29.03125 29.515625 22.53125 29.515625 14.515625 C 29.515625 6.5 23.015625 0 15 0 " clip-rule="nonzero"/></clipPath><clipPath id="ece5fd90ab"><path d="M 5.628906 15 L 24.5 15 L 24.5 20.890625 L 5.628906 20.890625 Z M 5.628906 15 " clip-rule="nonzero"/></clipPath><clipPath id="e9cc36f4cd"><path d="M 5.628906 7.828125 L 24.5 7.828125 L 24.5 15 L 5.628906 15 Z M 5.628906 7.828125 " clip-rule="nonzero"/></clipPath><clipPath id="71664c0e3f"><path d="M 5.628906 8 L 13 8 L 13 20.890625 L 5.628906 20.890625 Z M 5.628906 8 " clip-rule="nonzero"/></clipPath><clipPath id="d7cd4f8c9c"><path d="M 18 8 L 24.5 8 L 24.5 20.890625 L 18 20.890625 Z M 18 8 " clip-rule="nonzero"/></clipPath></defs><g clip-path="url(#08d3d47b12)"><g clip-path="url(#1893a6c2f3)"><path fill="#737373" d="M 0.484375 0 L 29.515625 0 L 29.515625 29.03125 L 0.484375 29.03125 Z M 0.484375 0 " fill-opacity="1" fill-rule="nonzero"/></g></g><g clip-path="url(#ece5fd90ab)"><path fill="#ffffff" d="M 15.066406 16.917969 L 12.707031 15.03125 L 5.769531 20.550781 C 6.046875 20.6875 6.324219 20.820312 6.738281 20.820312 L 23.390625 20.820312 C 23.804688 20.820312 24.082031 20.6875 24.363281 20.417969 L 17.421875 15.03125 Z M 15.066406 16.917969 " fill-opacity="1" fill-rule="nonzero"/></g><g clip-path="url(#e9cc36f4cd)"><path fill="#ffffff" d="M 24.363281 8.304688 C 24.082031 8.035156 23.804688 7.898438 23.390625 7.898438 L 6.738281 7.898438 C 6.324219 7.898438 6.046875 8.035156 5.769531 8.304688 L 15.066406 14.496094 Z M 24.363281 8.304688 " fill-opacity="1" fill-rule="nonzero"/></g><g clip-path="url(#71664c0e3f)"><path fill="#ffffff" d="M 5.628906 8.839844 L 5.628906 20.011719 L 12.011719 14.496094 Z M 5.628906 8.839844 " fill-opacity="1" fill-rule="nonzero"/></g><g clip-path="url(#d7cd4f8c9c)"><path fill="#ffffff" d="M 18.117188 14.496094 L 24.5 20.011719 L 24.5 8.839844 Z M 18.117188 14.496094 " fill-opacity="1" fill-rule="nonzero"/></g></svg>