<svg xmlns="http://www.w3.org/2000/svg" xmlns:xlink="http://www.w3.org/1999/xlink" width="100" zoomAndPan="magnify" viewBox="0 0 75 74.999997" height="100" preserveAspectRatio="xMidYMid meet" version="1.0"><defs><clipPath id="9b4671dd46"><path d="M 37.5 0 C 16.789062 0 0 16.789062 0 37.5 C 0 58.210938 16.789062 75 37.5 75 C 58.210938 75 75 58.210938 75 37.5 C 75 16.789062 58.210938 0 37.5 0 " clip-rule="nonzero"/></clipPath><clipPath id="1b3905b031"><path d="M 16.863281 16.863281 L 58.113281 16.863281 L 58.113281 58.113281 L 16.863281 58.113281 Z M 16.863281 16.863281 " clip-rule="nonzero"/></clipPath></defs><g clip-path="url(#9b4671dd46)"><rect x="-7.5" width="90" fill="#f0000f" y="-7.5" height="89.999996" fill-opacity="1"/></g><g clip-path="url(#1b3905b031)"><path fill="#ffffff" d="M 25.167969 34.726562 C 28.46875 41.210938 33.773438 46.515625 40.269531 49.816406 L 45.3125 44.761719 C 45.941406 44.132812 46.847656 43.949219 47.640625 44.203125 C 50.207031 45.050781 52.96875 45.507812 55.820312 45.507812 C 57.09375 45.507812 58.113281 46.527344 58.113281 47.800781 L 58.113281 55.820312 C 58.113281 57.09375 57.09375 58.113281 55.820312 58.113281 C 34.300781 58.113281 16.863281 40.671875 16.863281 19.152344 C 16.863281 17.882812 17.894531 16.863281 19.152344 16.863281 L 27.175781 16.863281 C 28.445312 16.863281 29.464844 17.882812 29.464844 19.152344 C 29.464844 22.007812 29.925781 24.769531 30.773438 27.335938 C 31.023438 28.125 30.839844 29.03125 30.210938 29.660156 Z M 25.167969 34.726562 " fill-opacity="1" fill-rule="nonzero"/></g></svg>