<svg xmlns="http://www.w3.org/2000/svg" xmlns:xlink="http://www.w3.org/1999/xlink" width="40" zoomAndPan="magnify" viewBox="0 0 30 30.000001" height="40" preserveAspectRatio="xMidYMid meet" version="1.0"><defs><clipPath id="f6efd7ecba"><path d="M 0.484375 0 L 29.515625 0 L 29.515625 29.03125 L 0.484375 29.03125 Z M 0.484375 0 " clip-rule="nonzero"/></clipPath><clipPath id="77b96f20eb"><path d="M 15 0 C 6.984375 0 0.484375 6.5 0.484375 14.515625 C 0.484375 22.53125 6.984375 29.03125 15 29.03125 C 23.015625 29.03125 29.515625 22.53125 29.515625 14.515625 C 29.515625 6.5 23.015625 0 15 0 " clip-rule="nonzero"/></clipPath><clipPath id="55b3e6171f"><path d="M 10.515625 5.023438 L 19.226562 5.023438 L 19.226562 23.894531 L 10.515625 23.894531 Z M 10.515625 5.023438 " clip-rule="nonzero"/></clipPath></defs><g clip-path="url(#f6efd7ecba)"><g clip-path="url(#77b96f20eb)"><path fill="#737373" d="M 0.484375 0 L 29.515625 0 L 29.515625 29.03125 L 0.484375 29.03125 Z M 0.484375 0 " fill-opacity="1" fill-rule="nonzero"/></g></g><g clip-path="url(#55b3e6171f)"><path fill="#ffffff" d="M 17.214844 8.160156 L 19.226562 8.160156 L 19.226562 5.058594 L 16.660156 5.058594 L 16.660156 5.070312 C 13.285156 5.199219 12.589844 7.132812 12.53125 9.175781 L 12.523438 9.175781 L 12.523438 11.324219 L 10.515625 11.324219 L 10.515625 14.429688 L 12.523438 14.429688 L 12.523438 23.863281 L 16.128906 23.863281 L 16.128906 14.429688 L 18.714844 14.429688 L 19.226562 11.324219 L 16.128906 11.324219 L 16.128906 9.398438 C 16.128906 8.714844 16.578125 8.160156 17.214844 8.160156 Z M 17.214844 8.160156 " fill-opacity="1" fill-rule="nonzero"/></g></svg>