<svg xmlns="http://www.w3.org/2000/svg" xmlns:xlink="http://www.w3.org/1999/xlink" width="200" zoomAndPan="magnify" viewBox="0 0 150 149.999998" height="200" preserveAspectRatio="xMidYMid meet" version="1.0"><defs><clipPath id="dfa45707d8"><path d="M 18.882812 18.882812 L 131.117188 18.882812 L 131.117188 131.117188 L 18.882812 131.117188 Z M 18.882812 18.882812 " clip-rule="nonzero"/></clipPath><clipPath id="cc265c0ed2"><path d="M 75 18.882812 C 44.007812 18.882812 18.882812 44.007812 18.882812 75 C 18.882812 105.992188 44.007812 131.117188 75 131.117188 C 105.992188 131.117188 131.117188 105.992188 131.117188 75 C 131.117188 44.007812 105.992188 18.882812 75 18.882812 " clip-rule="nonzero"/></clipPath><clipPath id="c5251035db"><path d="M 22.824219 15 L 127.074219 15 L 127.074219 128.25 L 22.824219 128.25 Z M 22.824219 15 " clip-rule="nonzero"/></clipPath></defs><g clip-path="url(#dfa45707d8)"><g clip-path="url(#cc265c0ed2)"><path fill="#fcc521" d="M 18.882812 18.882812 L 131.117188 18.882812 L 131.117188 131.117188 L 18.882812 131.117188 Z M 18.882812 18.882812 " fill-opacity="1" fill-rule="nonzero"/></g></g><path fill="#000000" d="M 74.949219 20.601562 L 30.273438 20.601562 C 30.027344 20.601562 29.789062 20.648438 29.558594 20.742188 C 29.332031 20.835938 29.128906 20.96875 28.957031 21.144531 C 28.78125 21.316406 28.648438 21.519531 28.550781 21.746094 C 28.457031 21.972656 28.410156 22.210938 28.410156 22.457031 L 28.410156 55.855469 C 28.410156 56.101562 28.457031 56.335938 28.550781 56.5625 C 28.648438 56.792969 28.78125 56.992188 28.957031 57.164062 C 29.128906 57.339844 29.332031 57.472656 29.558594 57.566406 C 29.789062 57.660156 30.027344 57.710938 30.273438 57.710938 L 74.949219 57.710938 C 75.199219 57.710938 75.433594 57.660156 75.664062 57.566406 C 75.890625 57.472656 76.09375 57.339844 76.265625 57.164062 C 76.441406 56.992188 76.578125 56.792969 76.671875 56.5625 C 76.765625 56.335938 76.8125 56.101562 76.8125 55.855469 L 76.8125 22.457031 C 76.8125 22.210938 76.765625 21.972656 76.671875 21.746094 C 76.578125 21.519531 76.441406 21.316406 76.265625 21.144531 C 76.09375 20.96875 75.890625 20.835938 75.664062 20.742188 C 75.433594 20.648438 75.199219 20.601562 74.949219 20.601562 Z M 73.089844 54 L 32.132812 54 L 32.132812 24.3125 L 73.089844 24.3125 Z M 73.089844 54 " fill-opacity="1" fill-rule="nonzero"/><path fill="#000000" d="M 49.128906 35.871094 L 47.027344 46.207031 C 47.019531 46.328125 47.019531 46.453125 47.027344 46.578125 C 47.027344 46.941406 47.0625 47.304688 47.132812 47.664062 C 47.207031 48.019531 47.3125 48.367188 47.453125 48.707031 C 47.59375 49.042969 47.765625 49.363281 47.96875 49.667969 C 48.171875 49.972656 48.402344 50.253906 48.664062 50.511719 C 48.921875 50.769531 49.203125 51 49.507812 51.203125 C 49.8125 51.40625 50.136719 51.578125 50.472656 51.71875 C 50.8125 51.859375 51.164062 51.964844 51.523438 52.035156 C 51.882812 52.105469 52.246094 52.144531 52.613281 52.144531 C 52.980469 52.144531 53.339844 52.105469 53.703125 52.035156 C 54.0625 51.964844 54.410156 51.859375 54.75 51.71875 C 55.085938 51.578125 55.410156 51.40625 55.714844 51.203125 C 56.019531 51 56.300781 50.769531 56.5625 50.511719 C 56.820312 50.253906 57.050781 49.972656 57.253906 49.667969 C 57.460938 49.363281 57.632812 49.042969 57.773438 48.707031 C 57.910156 48.367188 58.019531 48.019531 58.089844 47.664062 C 58.160156 47.304688 58.195312 46.941406 58.195312 46.578125 C 58.207031 46.453125 58.207031 46.328125 58.195312 46.207031 L 56.128906 35.871094 C 56.933594 36.066406 57.71875 36.324219 58.480469 36.652344 C 59.242188 36.976562 59.96875 37.363281 60.667969 37.808594 C 61.363281 38.253906 62.019531 38.757812 62.632812 39.3125 C 63.246094 39.867188 63.808594 40.46875 64.320312 41.117188 C 64.832031 41.769531 65.285156 42.453125 65.683594 43.179688 C 66.078125 43.902344 66.414062 44.65625 66.683594 45.4375 C 66.957031 46.214844 67.160156 47.011719 67.296875 47.828125 C 67.433594 48.640625 67.503906 49.460938 67.503906 50.289062 L 71.226562 50.289062 C 71.226562 49.183594 71.128906 48.085938 70.929688 47 C 70.734375 45.910156 70.441406 44.847656 70.054688 43.8125 C 69.667969 42.777344 69.191406 41.785156 68.625 40.835938 C 68.058594 39.882812 67.414062 38.992188 66.6875 38.15625 C 65.960938 37.320312 65.167969 36.554688 64.304688 35.859375 C 63.441406 35.167969 62.523438 34.554688 61.550781 34.023438 C 60.578125 33.492188 59.566406 33.050781 58.515625 32.703125 C 57.464844 32.351562 56.390625 32.097656 55.292969 31.9375 L 54.472656 27.652344 C 54.472656 27.40625 54.425781 27.167969 54.332031 26.941406 C 54.238281 26.714844 54.101562 26.511719 53.929688 26.339844 C 53.753906 26.164062 53.550781 26.03125 53.324219 25.9375 C 53.097656 25.84375 52.859375 25.796875 52.613281 25.796875 C 52.363281 25.796875 52.128906 25.84375 51.898438 25.9375 C 51.671875 26.03125 51.46875 26.164062 51.296875 26.339844 C 51.121094 26.511719 50.988281 26.714844 50.890625 26.941406 C 50.796875 27.167969 50.75 27.40625 50.75 27.652344 L 49.894531 31.9375 C 48.796875 32.097656 47.726562 32.355469 46.675781 32.707031 C 45.625 33.058594 44.617188 33.5 43.644531 34.03125 C 42.675781 34.5625 41.757812 35.175781 40.898438 35.871094 C 40.039062 36.566406 39.246094 37.332031 38.523438 38.167969 C 37.796875 39 37.152344 39.894531 36.589844 40.84375 C 36.027344 41.792969 35.550781 42.785156 35.164062 43.820312 C 34.777344 44.855469 34.488281 45.914062 34.289062 47.003906 C 34.09375 48.089844 33.996094 49.183594 33.996094 50.289062 L 37.71875 50.289062 C 37.71875 49.460938 37.789062 48.640625 37.929688 47.824219 C 38.066406 47.007812 38.273438 46.210938 38.542969 45.429688 C 38.816406 44.648438 39.152344 43.894531 39.550781 43.171875 C 39.949219 42.445312 40.40625 41.757812 40.917969 41.109375 C 41.433594 40.460938 41.996094 39.859375 42.613281 39.300781 C 43.226562 38.746094 43.882812 38.246094 44.582031 37.800781 C 45.28125 37.355469 46.011719 36.96875 46.777344 36.644531 C 47.539062 36.324219 48.324219 36.0625 49.128906 35.871094 Z M 52.613281 37.484375 L 54.472656 46.761719 C 54.472656 47.007812 54.425781 47.246094 54.332031 47.472656 C 54.238281 47.699219 54.101562 47.898438 53.929688 48.074219 C 53.753906 48.246094 53.550781 48.382812 53.324219 48.476562 C 53.097656 48.570312 52.859375 48.617188 52.613281 48.617188 C 52.363281 48.617188 52.128906 48.570312 51.898438 48.476562 C 51.671875 48.382812 51.46875 48.246094 51.296875 48.074219 C 51.121094 47.898438 50.988281 47.699219 50.890625 47.472656 C 50.796875 47.246094 50.75 47.007812 50.75 46.761719 Z M 52.613281 37.484375 " fill-opacity="1" fill-rule="nonzero"/><path fill="#000000" d="M 54.472656 91.105469 C 54.472656 91.351562 54.425781 91.589844 54.332031 91.816406 C 54.238281 92.042969 54.101562 92.246094 53.929688 92.417969 C 53.753906 92.59375 53.550781 92.726562 53.324219 92.820312 C 53.097656 92.914062 52.859375 92.960938 52.613281 92.960938 C 52.363281 92.960938 52.128906 92.914062 51.898438 92.820312 C 51.671875 92.726562 51.46875 92.59375 51.296875 92.417969 C 51.121094 92.246094 50.988281 92.042969 50.890625 91.816406 C 50.796875 91.589844 50.75 91.351562 50.75 91.105469 C 50.75 90.859375 50.796875 90.625 50.890625 90.398438 C 50.988281 90.167969 51.121094 89.96875 51.296875 89.796875 C 51.46875 89.621094 51.671875 89.488281 51.898438 89.394531 C 52.128906 89.300781 52.363281 89.25 52.613281 89.25 C 52.859375 89.25 53.097656 89.300781 53.324219 89.394531 C 53.550781 89.488281 53.753906 89.621094 53.929688 89.796875 C 54.101562 89.96875 54.238281 90.167969 54.332031 90.398438 C 54.425781 90.625 54.472656 90.859375 54.472656 91.105469 Z M 54.472656 91.105469 " fill-opacity="1" fill-rule="nonzero"/><path fill="#000000" d="M 58.738281 87.933594 C 58.5625 88.109375 58.429688 88.308594 58.335938 88.535156 C 58.242188 88.765625 58.195312 89 58.195312 89.246094 C 58.199219 89.492188 58.246094 89.726562 58.339844 89.953125 C 58.433594 90.179688 58.570312 90.382812 58.742188 90.554688 C 58.917969 90.726562 59.121094 90.863281 59.347656 90.957031 C 59.574219 91.050781 59.8125 91.097656 60.058594 91.097656 C 60.304688 91.097656 60.542969 91.050781 60.769531 90.957031 C 60.996094 90.863281 61.199219 90.726562 61.371094 90.554688 C 61.546875 90.382812 61.683594 90.179688 61.777344 89.953125 C 61.871094 89.726562 61.917969 89.492188 61.917969 89.246094 C 61.921875 89 61.875 88.765625 61.78125 88.535156 C 61.6875 88.308594 61.554688 88.109375 61.378906 87.933594 C 61.207031 87.757812 61.003906 87.625 60.773438 87.527344 C 60.546875 87.433594 60.304688 87.386719 60.058594 87.386719 C 59.808594 87.386719 59.570312 87.433594 59.34375 87.527344 C 59.113281 87.625 58.910156 87.757812 58.738281 87.933594 Z M 58.738281 87.933594 " fill-opacity="1" fill-rule="nonzero"/><path fill="#000000" d="M 43.84375 87.933594 C 43.671875 88.109375 43.535156 88.308594 43.441406 88.535156 C 43.347656 88.765625 43.304688 89 43.304688 89.246094 C 43.304688 89.492188 43.351562 89.726562 43.445312 89.953125 C 43.542969 90.179688 43.675781 90.382812 43.851562 90.554688 C 44.023438 90.726562 44.226562 90.863281 44.453125 90.957031 C 44.683594 91.050781 44.917969 91.097656 45.164062 91.097656 C 45.410156 91.097656 45.648438 91.050781 45.875 90.957031 C 46.105469 90.863281 46.304688 90.726562 46.480469 90.554688 C 46.65625 90.382812 46.789062 90.179688 46.882812 89.953125 C 46.980469 89.726562 47.027344 89.492188 47.027344 89.246094 C 47.027344 89 46.980469 88.765625 46.886719 88.535156 C 46.792969 88.308594 46.660156 88.109375 46.488281 87.933594 C 46.3125 87.757812 46.109375 87.625 45.882812 87.527344 C 45.652344 87.433594 45.414062 87.386719 45.164062 87.386719 C 44.917969 87.386719 44.679688 87.433594 44.449219 87.527344 C 44.21875 87.625 44.019531 87.757812 43.84375 87.933594 Z M 43.84375 87.933594 " fill-opacity="1" fill-rule="nonzero"/><path fill="#000000" d="M 69.367188 76.261719 C 69.367188 76.507812 69.320312 76.746094 69.222656 76.972656 C 69.128906 77.199219 68.996094 77.402344 68.820312 77.574219 C 68.644531 77.75 68.445312 77.882812 68.21875 77.976562 C 67.988281 78.070312 67.75 78.117188 67.503906 78.117188 C 67.257812 78.117188 67.019531 78.070312 66.792969 77.976562 C 66.5625 77.882812 66.363281 77.75 66.1875 77.574219 C 66.015625 77.402344 65.878906 77.199219 65.785156 76.972656 C 65.691406 76.746094 65.644531 76.507812 65.644531 76.261719 C 65.644531 76.015625 65.691406 75.78125 65.785156 75.554688 C 65.878906 75.328125 66.015625 75.125 66.1875 74.953125 C 66.363281 74.777344 66.5625 74.644531 66.792969 74.550781 C 67.019531 74.457031 67.257812 74.40625 67.503906 74.40625 C 67.75 74.40625 67.988281 74.457031 68.21875 74.550781 C 68.445312 74.644531 68.644531 74.777344 68.820312 74.953125 C 68.996094 75.125 69.128906 75.328125 69.222656 75.554688 C 69.320312 75.78125 69.367188 76.015625 69.367188 76.261719 Z M 69.367188 76.261719 " fill-opacity="1" fill-rule="nonzero"/><path fill="#000000" d="M 66.964844 70.160156 C 67.136719 69.984375 67.273438 69.785156 67.367188 69.558594 C 67.457031 69.328125 67.503906 69.09375 67.503906 68.847656 C 67.503906 68.601562 67.457031 68.367188 67.363281 68.140625 C 67.265625 67.914062 67.132812 67.710938 66.957031 67.539062 C 66.78125 67.367188 66.582031 67.230469 66.355469 67.136719 C 66.125 67.042969 65.890625 66.996094 65.644531 66.996094 C 65.398438 66.996094 65.160156 67.042969 64.933594 67.136719 C 64.703125 67.230469 64.503906 67.367188 64.328125 67.539062 C 64.152344 67.710938 64.019531 67.914062 63.925781 68.140625 C 63.828125 68.367188 63.78125 68.601562 63.78125 68.847656 C 63.78125 69.09375 63.828125 69.328125 63.921875 69.558594 C 64.015625 69.785156 64.148438 69.984375 64.320312 70.160156 C 64.496094 70.335938 64.699219 70.46875 64.925781 70.566406 C 65.15625 70.660156 65.394531 70.707031 65.644531 70.707031 C 65.890625 70.707031 66.128906 70.660156 66.359375 70.566406 C 66.589844 70.46875 66.789062 70.335938 66.964844 70.160156 Z M 66.964844 70.160156 " fill-opacity="1" fill-rule="nonzero"/><path fill="#000000" d="M 64.320312 82.367188 C 64.148438 82.542969 64.015625 82.742188 63.921875 82.96875 C 63.828125 83.199219 63.78125 83.433594 63.78125 83.679688 C 63.78125 83.925781 63.828125 84.160156 63.925781 84.386719 C 64.019531 84.613281 64.152344 84.816406 64.328125 84.988281 C 64.503906 85.160156 64.703125 85.296875 64.933594 85.390625 C 65.160156 85.484375 65.398438 85.53125 65.644531 85.53125 C 65.890625 85.53125 66.125 85.484375 66.355469 85.390625 C 66.582031 85.296875 66.78125 85.160156 66.957031 84.988281 C 67.132812 84.816406 67.265625 84.613281 67.363281 84.386719 C 67.457031 84.160156 67.503906 83.925781 67.503906 83.679688 C 67.503906 83.433594 67.457031 83.199219 67.367188 82.96875 C 67.273438 82.742188 67.136719 82.542969 66.964844 82.367188 C 66.789062 82.191406 66.589844 82.058594 66.359375 81.960938 C 66.128906 81.867188 65.890625 81.820312 65.644531 81.820312 C 65.394531 81.820312 65.15625 81.867188 64.925781 81.960938 C 64.699219 82.058594 64.496094 82.191406 64.320312 82.367188 Z M 64.320312 82.367188 " fill-opacity="1" fill-rule="nonzero"/><path fill="#000000" d="M 39.582031 76.261719 C 39.582031 76.507812 39.535156 76.746094 39.4375 76.972656 C 39.34375 77.199219 39.210938 77.402344 39.035156 77.574219 C 38.859375 77.75 38.660156 77.882812 38.429688 77.976562 C 38.203125 78.070312 37.964844 78.117188 37.71875 78.117188 C 37.472656 78.117188 37.234375 78.070312 37.007812 77.976562 C 36.777344 77.882812 36.578125 77.75 36.402344 77.574219 C 36.226562 77.402344 36.09375 77.199219 36 76.972656 C 35.90625 76.746094 35.855469 76.507812 35.855469 76.261719 C 35.855469 76.015625 35.90625 75.78125 36 75.554688 C 36.09375 75.328125 36.226562 75.125 36.402344 74.953125 C 36.578125 74.777344 36.777344 74.644531 37.007812 74.550781 C 37.234375 74.457031 37.472656 74.40625 37.71875 74.40625 C 37.964844 74.40625 38.203125 74.457031 38.429688 74.550781 C 38.660156 74.644531 38.859375 74.777344 39.035156 74.953125 C 39.210938 75.125 39.34375 75.328125 39.4375 75.554688 C 39.535156 75.78125 39.582031 76.015625 39.582031 76.261719 Z M 39.582031 76.261719 " fill-opacity="1" fill-rule="nonzero"/><path fill="#000000" d="M 40.902344 70.160156 C 41.074219 69.984375 41.210938 69.785156 41.304688 69.558594 C 41.394531 69.328125 41.441406 69.09375 41.441406 68.847656 C 41.441406 68.601562 41.394531 68.367188 41.300781 68.140625 C 41.203125 67.914062 41.070312 67.710938 40.894531 67.539062 C 40.71875 67.367188 40.519531 67.230469 40.292969 67.136719 C 40.0625 67.042969 39.828125 66.996094 39.582031 66.996094 C 39.335938 66.996094 39.097656 67.042969 38.871094 67.136719 C 38.640625 67.230469 38.441406 67.367188 38.265625 67.539062 C 38.089844 67.710938 37.957031 67.914062 37.863281 68.140625 C 37.765625 68.367188 37.71875 68.601562 37.71875 68.847656 C 37.71875 69.09375 37.765625 69.328125 37.859375 69.558594 C 37.953125 69.785156 38.085938 69.984375 38.257812 70.160156 C 38.433594 70.335938 38.636719 70.46875 38.863281 70.566406 C 39.09375 70.660156 39.332031 70.707031 39.582031 70.707031 C 39.828125 70.707031 40.066406 70.660156 40.296875 70.566406 C 40.527344 70.46875 40.726562 70.335938 40.902344 70.160156 Z M 40.902344 70.160156 " fill-opacity="1" fill-rule="nonzero"/><path fill="#000000" d="M 38.257812 82.367188 C 38.085938 82.542969 37.953125 82.742188 37.859375 82.96875 C 37.765625 83.199219 37.71875 83.433594 37.71875 83.679688 C 37.71875 83.925781 37.765625 84.160156 37.863281 84.386719 C 37.957031 84.613281 38.089844 84.816406 38.265625 84.988281 C 38.441406 85.160156 38.640625 85.296875 38.871094 85.390625 C 39.097656 85.484375 39.335938 85.53125 39.582031 85.53125 C 39.828125 85.53125 40.0625 85.484375 40.292969 85.390625 C 40.519531 85.296875 40.71875 85.160156 40.894531 84.988281 C 41.070312 84.816406 41.203125 84.613281 41.300781 84.386719 C 41.394531 84.160156 41.441406 83.925781 41.441406 83.679688 C 41.441406 83.433594 41.394531 83.199219 41.304688 82.96875 C 41.210938 82.742188 41.074219 82.542969 40.902344 82.367188 C 40.726562 82.191406 40.527344 82.058594 40.296875 81.960938 C 40.066406 81.867188 39.828125 81.820312 39.582031 81.820312 C 39.332031 81.820312 39.09375 81.867188 38.863281 81.960938 C 38.636719 82.058594 38.433594 82.191406 38.257812 82.367188 Z M 38.257812 82.367188 " fill-opacity="1" fill-rule="nonzero"/><path fill="#000000" d="M 54.472656 61.421875 C 54.472656 61.667969 54.425781 61.902344 54.332031 62.128906 C 54.238281 62.355469 54.101562 62.558594 53.929688 62.730469 C 53.753906 62.90625 53.550781 63.039062 53.324219 63.132812 C 53.097656 63.226562 52.859375 63.277344 52.613281 63.277344 C 52.363281 63.277344 52.128906 63.226562 51.898438 63.132812 C 51.671875 63.039062 51.46875 62.90625 51.296875 62.730469 C 51.121094 62.558594 50.988281 62.355469 50.890625 62.128906 C 50.796875 61.902344 50.75 61.667969 50.75 61.421875 C 50.75 61.175781 50.796875 60.9375 50.890625 60.710938 C 50.988281 60.484375 51.121094 60.28125 51.296875 60.109375 C 51.46875 59.933594 51.671875 59.800781 51.898438 59.707031 C 52.128906 59.613281 52.363281 59.566406 52.613281 59.566406 C 52.859375 59.566406 53.097656 59.613281 53.324219 59.707031 C 53.550781 59.800781 53.753906 59.933594 53.929688 60.109375 C 54.101562 60.28125 54.238281 60.484375 54.332031 60.710938 C 54.425781 60.9375 54.472656 61.175781 54.472656 61.421875 Z M 54.472656 61.421875 " fill-opacity="1" fill-rule="nonzero"/><path fill="#000000" d="M 61.378906 64.59375 C 61.554688 64.417969 61.6875 64.21875 61.78125 63.992188 C 61.875 63.761719 61.921875 63.527344 61.917969 63.28125 C 61.917969 63.035156 61.871094 62.800781 61.777344 62.574219 C 61.683594 62.347656 61.546875 62.144531 61.371094 61.972656 C 61.199219 61.800781 60.996094 61.664062 60.769531 61.570312 C 60.542969 61.476562 60.304688 61.429688 60.058594 61.429688 C 59.8125 61.429688 59.574219 61.476562 59.347656 61.570312 C 59.121094 61.664062 58.917969 61.800781 58.742188 61.972656 C 58.570312 62.144531 58.433594 62.347656 58.339844 62.574219 C 58.246094 62.800781 58.199219 63.035156 58.195312 63.28125 C 58.195312 63.527344 58.242188 63.761719 58.335938 63.992188 C 58.429688 64.21875 58.5625 64.417969 58.738281 64.59375 C 58.910156 64.769531 59.113281 64.902344 59.34375 65 C 59.570312 65.09375 59.808594 65.140625 60.058594 65.140625 C 60.304688 65.140625 60.546875 65.09375 60.773438 65 C 61.003906 64.902344 61.207031 64.769531 61.378906 64.59375 Z M 61.378906 64.59375 " fill-opacity="1" fill-rule="nonzero"/><path fill="#000000" d="M 46.488281 64.59375 C 46.660156 64.417969 46.792969 64.21875 46.886719 63.992188 C 46.980469 63.761719 47.027344 63.527344 47.027344 63.28125 C 47.027344 63.035156 46.980469 62.800781 46.882812 62.574219 C 46.789062 62.347656 46.65625 62.144531 46.480469 61.972656 C 46.304688 61.800781 46.105469 61.664062 45.875 61.570312 C 45.648438 61.476562 45.410156 61.429688 45.164062 61.429688 C 44.917969 61.429688 44.683594 61.476562 44.453125 61.570312 C 44.226562 61.664062 44.023438 61.800781 43.851562 61.972656 C 43.675781 62.144531 43.542969 62.347656 43.445312 62.574219 C 43.351562 62.800781 43.304688 63.035156 43.304688 63.28125 C 43.304688 63.527344 43.347656 63.761719 43.441406 63.992188 C 43.535156 64.21875 43.671875 64.417969 43.84375 64.59375 C 44.019531 64.769531 44.21875 64.902344 44.449219 65 C 44.679688 65.09375 44.917969 65.140625 45.164062 65.140625 C 45.414062 65.140625 45.652344 65.09375 45.882812 65 C 46.109375 64.902344 46.3125 64.769531 46.488281 64.59375 Z M 46.488281 64.59375 " fill-opacity="1" fill-rule="nonzero"/><path fill="#000000" d="M 52.613281 87.394531 C 53.34375 87.394531 54.070312 87.324219 54.789062 87.183594 C 55.511719 87.039062 56.207031 86.828125 56.886719 86.550781 C 57.5625 86.269531 58.207031 85.925781 58.816406 85.519531 C 59.425781 85.113281 59.992188 84.652344 60.511719 84.136719 C 61.027344 83.617188 61.492188 83.054688 61.898438 82.449219 C 62.304688 81.839844 62.652344 81.199219 62.929688 80.523438 C 63.210938 79.847656 63.421875 79.152344 63.566406 78.433594 C 63.710938 77.71875 63.78125 76.996094 63.78125 76.261719 C 63.78125 75.53125 63.710938 74.808594 63.566406 74.089844 C 63.421875 73.375 63.210938 72.679688 62.929688 72.003906 C 62.652344 71.328125 62.304688 70.6875 61.898438 70.078125 C 61.492188 69.472656 61.027344 68.910156 60.511719 68.390625 C 59.992188 67.875 59.425781 67.414062 58.816406 67.007812 C 58.207031 66.601562 57.5625 66.257812 56.886719 65.976562 C 56.207031 65.699219 55.511719 65.488281 54.789062 65.34375 C 54.070312 65.203125 53.34375 65.132812 52.613281 65.132812 C 51.878906 65.132812 51.152344 65.203125 50.433594 65.34375 C 49.714844 65.488281 49.015625 65.699219 48.335938 65.976562 C 47.660156 66.257812 47.015625 66.601562 46.40625 67.007812 C 45.796875 67.414062 45.230469 67.875 44.714844 68.390625 C 44.195312 68.910156 43.730469 69.472656 43.324219 70.078125 C 42.917969 70.6875 42.574219 71.328125 42.292969 72.003906 C 42.011719 72.679688 41.800781 73.375 41.65625 74.089844 C 41.515625 74.808594 41.441406 75.53125 41.441406 76.261719 C 41.441406 76.996094 41.515625 77.71875 41.65625 78.433594 C 41.800781 79.152344 42.011719 79.847656 42.292969 80.523438 C 42.574219 81.199219 42.917969 81.839844 43.324219 82.449219 C 43.730469 83.054688 44.195312 83.617188 44.714844 84.136719 C 45.230469 84.652344 45.796875 85.113281 46.40625 85.519531 C 47.015625 85.925781 47.660156 86.269531 48.335938 86.550781 C 49.015625 86.828125 49.714844 87.039062 50.433594 87.183594 C 51.152344 87.324219 51.878906 87.394531 52.613281 87.394531 Z M 54.472656 69.101562 C 55.261719 69.316406 55.996094 69.648438 56.675781 70.105469 C 57.351562 70.558594 57.941406 71.109375 58.4375 71.757812 C 58.933594 72.402344 59.3125 73.113281 59.574219 73.882812 C 59.835938 74.65625 59.96875 75.449219 59.96875 76.261719 C 59.96875 77.078125 59.835938 77.871094 59.574219 78.644531 C 59.3125 79.414062 58.933594 80.125 58.4375 80.769531 C 57.941406 81.417969 57.351562 81.96875 56.675781 82.421875 C 55.996094 82.878906 55.261719 83.210938 54.472656 83.425781 Z M 50.75 69.101562 L 50.75 83.425781 C 49.960938 83.210938 49.226562 82.878906 48.550781 82.421875 C 47.871094 81.96875 47.285156 81.417969 46.789062 80.769531 C 46.289062 80.125 45.910156 79.414062 45.648438 78.644531 C 45.386719 77.871094 45.257812 77.078125 45.257812 76.261719 C 45.257812 75.449219 45.386719 74.65625 45.648438 73.882812 C 45.910156 73.113281 46.289062 72.402344 46.789062 71.757812 C 47.285156 71.109375 47.871094 70.558594 48.550781 70.105469 C 49.226562 69.648438 49.960938 69.316406 50.75 69.101562 Z M 50.75 69.101562 " fill-opacity="1" fill-rule="nonzero"/><g clip-path="url(#c5251035db)"><path fill="#000000" d="M 121.492188 32.066406 L 121.492188 15.035156 L 117.769531 15.035156 L 117.769531 32.066406 C 117.226562 32.257812 116.722656 32.527344 116.265625 32.875 C 115.804688 33.21875 115.40625 33.625 115.074219 34.09375 C 114.742188 34.5625 114.488281 35.070312 114.3125 35.617188 C 114.136719 36.164062 114.046875 36.726562 114.042969 37.300781 L 114.042969 44.367188 C 113.488281 44.699219 113.046875 45.144531 112.714844 45.699219 C 112.386719 46.257812 112.207031 46.859375 112.183594 47.503906 C 112.210938 48.152344 112.386719 48.753906 112.71875 49.3125 C 113.046875 49.871094 113.488281 50.320312 114.042969 50.660156 L 114.042969 61.421875 C 114.046875 61.996094 114.136719 62.554688 114.3125 63.101562 C 114.488281 63.648438 114.742188 64.15625 115.074219 64.625 C 115.40625 65.09375 115.804688 65.5 116.265625 65.847656 C 116.722656 66.191406 117.226562 66.460938 117.769531 66.652344 L 117.769531 119.886719 C 117.765625 120.1875 117.734375 120.488281 117.675781 120.785156 C 117.617188 121.082031 117.527344 121.371094 117.410156 121.648438 C 117.292969 121.929688 117.148438 122.195312 116.980469 122.449219 C 116.8125 122.699219 116.621094 122.933594 116.40625 123.148438 C 116.191406 123.359375 115.957031 123.550781 115.703125 123.722656 C 115.449219 123.890625 115.183594 124.03125 114.902344 124.148438 C 114.621094 124.265625 114.332031 124.351562 114.035156 124.414062 C 113.738281 124.472656 113.4375 124.503906 113.132812 124.503906 L 75.902344 124.503906 C 75.59375 124.507812 75.292969 124.476562 74.992188 124.417969 C 74.691406 124.363281 74.402344 124.273438 74.117188 124.160156 C 73.835938 124.042969 73.566406 123.902344 73.3125 123.734375 C 73.058594 123.566406 72.820312 123.375 72.605469 123.160156 C 72.386719 122.945312 72.195312 122.710938 72.023438 122.460938 C 71.851562 122.207031 71.707031 121.941406 71.589844 121.660156 C 71.472656 121.378906 71.382812 121.089844 71.320312 120.789062 C 71.261719 120.492188 71.230469 120.191406 71.226562 119.886719 L 71.226562 117.082031 L 94.515625 117.082031 C 95.066406 117.082031 95.609375 117.03125 96.148438 116.921875 C 96.6875 116.816406 97.207031 116.660156 97.714844 116.449219 C 98.222656 116.238281 98.703125 115.984375 99.160156 115.679688 C 99.617188 115.375 100.039062 115.03125 100.425781 114.644531 C 100.816406 114.257812 101.160156 113.835938 101.464844 113.382812 C 101.769531 112.925781 102.027344 112.445312 102.238281 111.941406 C 102.449219 111.433594 102.609375 110.914062 102.714844 110.378906 C 102.820312 109.839844 102.875 109.300781 102.875 108.753906 L 102.875 66.652344 C 103.417969 66.460938 103.917969 66.191406 104.378906 65.847656 C 104.839844 65.5 105.234375 65.09375 105.570312 64.625 C 105.902344 64.15625 106.15625 63.648438 106.332031 63.101562 C 106.507812 62.554688 106.597656 61.996094 106.597656 61.421875 L 106.597656 50.640625 C 107.171875 50.324219 107.625 49.886719 107.957031 49.324219 C 108.289062 48.761719 108.457031 48.15625 108.457031 47.503906 C 108.457031 46.851562 108.289062 46.246094 107.957031 45.683594 C 107.625 45.121094 107.171875 44.683594 106.597656 44.367188 L 106.597656 37.300781 C 106.597656 36.726562 106.507812 36.164062 106.332031 35.617188 C 106.15625 35.070312 105.902344 34.5625 105.570312 34.09375 C 105.234375 33.625 104.839844 33.21875 104.378906 32.875 C 103.917969 32.527344 103.417969 32.257812 102.875 32.066406 L 102.875 15.035156 L 99.152344 15.035156 L 99.152344 32.066406 C 98.609375 32.257812 98.105469 32.527344 97.648438 32.875 C 97.1875 33.21875 96.792969 33.625 96.457031 34.09375 C 96.125 34.5625 95.871094 35.070312 95.695312 35.617188 C 95.519531 36.164062 95.429688 36.726562 95.429688 37.300781 L 95.429688 44.367188 C 94.871094 44.699219 94.429688 45.144531 94.097656 45.699219 C 93.769531 46.257812 93.589844 46.859375 93.566406 47.503906 C 93.59375 48.152344 93.769531 48.753906 94.101562 49.3125 C 94.429688 49.871094 94.875 50.320312 95.429688 50.660156 L 95.429688 61.421875 C 95.429688 61.996094 95.519531 62.554688 95.695312 63.101562 C 95.871094 63.648438 96.125 64.15625 96.457031 64.625 C 96.792969 65.09375 97.1875 65.5 97.648438 65.847656 C 98.105469 66.191406 98.609375 66.460938 99.152344 66.652344 L 99.152344 108.753906 C 99.152344 109.054688 99.121094 109.355469 99.058594 109.652344 C 99 109.949219 98.910156 110.238281 98.792969 110.519531 C 98.675781 110.796875 98.535156 111.0625 98.363281 111.316406 C 98.195312 111.566406 98.003906 111.800781 97.789062 112.015625 C 97.574219 112.226562 97.339844 112.417969 97.085938 112.589844 C 96.835938 112.757812 96.566406 112.898438 96.289062 113.015625 C 96.007812 113.132812 95.71875 113.222656 95.417969 113.28125 C 95.121094 113.339844 94.820312 113.371094 94.515625 113.371094 L 71.226562 113.371094 L 71.226562 109.660156 L 73.089844 109.660156 C 73.335938 109.660156 73.574219 109.613281 73.800781 109.519531 C 74.03125 109.425781 74.230469 109.292969 74.40625 109.117188 C 74.582031 108.945312 74.714844 108.742188 74.808594 108.515625 C 74.902344 108.289062 74.949219 108.050781 74.949219 107.804688 L 74.949219 104.855469 L 76.273438 103.558594 C 76.636719 103.191406 76.816406 102.753906 76.8125 102.238281 L 76.8125 98.527344 L 80.535156 98.527344 C 80.78125 98.527344 81.019531 98.480469 81.25 98.386719 C 81.476562 98.292969 81.675781 98.160156 81.851562 97.984375 C 82.027344 97.8125 82.160156 97.609375 82.253906 97.382812 C 82.351562 97.15625 82.398438 96.917969 82.398438 96.671875 L 82.398438 16.890625 C 82.398438 16.644531 82.351562 16.40625 82.253906 16.179688 C 82.160156 15.953125 82.027344 15.75 81.851562 15.578125 C 81.675781 15.402344 81.476562 15.269531 81.25 15.175781 C 81.019531 15.082031 80.78125 15.035156 80.535156 15.035156 L 24.6875 15.035156 C 24.441406 15.035156 24.203125 15.082031 23.976562 15.175781 C 23.746094 15.269531 23.546875 15.402344 23.371094 15.578125 C 23.195312 15.75 23.0625 15.953125 22.96875 16.179688 C 22.875 16.40625 22.824219 16.644531 22.824219 16.890625 L 22.824219 96.671875 C 22.824219 96.917969 22.875 97.15625 22.96875 97.382812 C 23.0625 97.609375 23.195312 97.8125 23.371094 97.984375 C 23.546875 98.160156 23.746094 98.292969 23.976562 98.386719 C 24.203125 98.480469 24.441406 98.527344 24.6875 98.527344 L 28.410156 98.527344 L 28.410156 102.238281 C 28.40625 102.753906 28.589844 103.191406 28.949219 103.558594 L 30.273438 104.855469 L 30.273438 107.804688 C 30.273438 108.050781 30.320312 108.289062 30.414062 108.515625 C 30.507812 108.742188 30.644531 108.945312 30.816406 109.117188 C 30.992188 109.292969 31.195312 109.425781 31.421875 109.519531 C 31.648438 109.613281 31.886719 109.660156 32.132812 109.660156 L 34.089844 109.660156 C 34.144531 110.164062 34.242188 110.660156 34.390625 111.148438 C 34.535156 111.632812 34.722656 112.101562 34.953125 112.554688 C 35.1875 113.003906 35.457031 113.433594 35.765625 113.835938 C 36.078125 114.238281 36.421875 114.609375 36.796875 114.945312 C 37.175781 115.285156 37.582031 115.589844 38.015625 115.855469 C 38.449219 116.121094 38.902344 116.34375 39.378906 116.527344 C 39.851562 116.707031 40.339844 116.847656 40.839844 116.941406 C 41.339844 117.035156 41.84375 117.082031 42.355469 117.082031 L 67.503906 117.082031 L 67.503906 119.886719 C 67.503906 120.433594 67.558594 120.972656 67.664062 121.511719 C 67.773438 122.046875 67.929688 122.566406 68.140625 123.074219 C 68.351562 123.578125 68.609375 124.058594 68.914062 124.511719 C 69.21875 124.96875 69.566406 125.390625 69.953125 125.777344 C 70.339844 126.164062 70.761719 126.507812 71.21875 126.8125 C 71.675781 127.117188 72.15625 127.371094 72.664062 127.582031 C 73.171875 127.792969 73.695312 127.949219 74.234375 128.054688 C 74.769531 128.164062 75.316406 128.214844 75.863281 128.214844 L 113.09375 128.214844 C 113.644531 128.21875 114.191406 128.167969 114.730469 128.0625 C 115.273438 127.957031 115.796875 127.800781 116.304688 127.59375 C 116.816406 127.382812 117.296875 127.128906 117.757812 126.824219 C 118.214844 126.523438 118.640625 126.175781 119.03125 125.789062 C 119.421875 125.402344 119.769531 124.980469 120.074219 124.523438 C 120.382812 124.070312 120.640625 123.589844 120.851562 123.082031 C 121.0625 122.574219 121.222656 122.054688 121.328125 121.515625 C 121.4375 120.976562 121.492188 120.433594 121.492188 119.886719 L 121.492188 66.652344 C 122.035156 66.460938 122.535156 66.191406 122.996094 65.847656 C 123.457031 65.5 123.851562 65.09375 124.183594 64.625 C 124.519531 64.15625 124.773438 63.648438 124.949219 63.101562 C 125.125 62.554688 125.214844 61.996094 125.214844 61.421875 L 125.214844 50.640625 C 125.789062 50.324219 126.242188 49.886719 126.574219 49.324219 C 126.90625 48.761719 127.070312 48.15625 127.070312 47.503906 C 127.070312 46.851562 126.90625 46.246094 126.574219 45.683594 C 126.242188 45.121094 125.789062 44.683594 125.214844 44.367188 L 125.214844 37.300781 C 125.214844 36.726562 125.125 36.164062 124.949219 35.617188 C 124.773438 35.070312 124.519531 34.5625 124.183594 34.09375 C 123.851562 33.625 123.457031 33.21875 122.996094 32.875 C 122.535156 32.527344 122.035156 32.257812 121.492188 32.066406 Z M 102.875 61.421875 C 102.875 61.667969 102.828125 61.902344 102.734375 62.128906 C 102.640625 62.355469 102.503906 62.558594 102.328125 62.730469 C 102.15625 62.90625 101.953125 63.039062 101.726562 63.132812 C 101.496094 63.226562 101.261719 63.277344 101.011719 63.277344 C 100.765625 63.277344 100.527344 63.226562 100.300781 63.132812 C 100.074219 63.039062 99.871094 62.90625 99.695312 62.730469 C 99.523438 62.558594 99.386719 62.355469 99.292969 62.128906 C 99.199219 61.902344 99.152344 61.667969 99.152344 61.421875 L 99.152344 51.996094 C 100.394531 52.179688 101.632812 52.179688 102.875 51.996094 Z M 98.035156 47.875 C 97.816406 47.773438 97.613281 47.648438 97.421875 47.503906 C 97.613281 47.359375 97.816406 47.234375 98.035156 47.132812 C 98.371094 46.988281 98.640625 46.761719 98.84375 46.453125 C 99.046875 46.148438 99.148438 45.8125 99.152344 45.445312 L 99.152344 37.300781 C 99.152344 37.054688 99.199219 36.816406 99.292969 36.589844 C 99.386719 36.363281 99.523438 36.160156 99.695312 35.988281 C 99.871094 35.8125 100.074219 35.679688 100.300781 35.585938 C 100.527344 35.492188 100.765625 35.445312 101.011719 35.445312 C 101.261719 35.445312 101.496094 35.492188 101.726562 35.585938 C 101.953125 35.679688 102.15625 35.8125 102.328125 35.988281 C 102.503906 36.160156 102.640625 36.363281 102.734375 36.589844 C 102.828125 36.816406 102.875 37.054688 102.875 37.300781 L 102.875 45.445312 C 102.878906 45.8125 102.980469 46.148438 103.183594 46.453125 C 103.386719 46.761719 103.65625 46.988281 103.992188 47.132812 C 104.210938 47.234375 104.414062 47.359375 104.605469 47.503906 C 104.417969 47.648438 104.210938 47.765625 103.992188 47.855469 C 103.035156 48.222656 102.042969 48.410156 101.015625 48.414062 C 99.988281 48.417969 98.996094 48.238281 98.035156 47.875 Z M 26.550781 94.816406 L 26.550781 18.746094 L 78.675781 18.746094 L 78.675781 94.816406 Z M 37.71875 105.949219 L 33.996094 105.949219 L 33.996094 104.09375 C 34 103.582031 33.820312 103.144531 33.457031 102.777344 L 32.132812 101.480469 L 32.132812 98.527344 L 39.582031 98.527344 L 39.582031 101.480469 L 38.257812 102.777344 C 37.894531 103.144531 37.714844 103.582031 37.71875 104.09375 Z M 67.503906 113.371094 L 42.355469 113.371094 C 41.820312 113.371094 41.300781 113.28125 40.796875 113.101562 C 40.292969 112.921875 39.832031 112.664062 39.417969 112.324219 C 39.003906 111.988281 38.660156 111.589844 38.382812 111.132812 C 38.109375 110.675781 37.917969 110.183594 37.8125 109.660156 L 39.582031 109.660156 C 39.828125 109.660156 40.066406 109.613281 40.292969 109.519531 C 40.519531 109.425781 40.722656 109.292969 40.898438 109.117188 C 41.070312 108.945312 41.207031 108.742188 41.300781 108.515625 C 41.394531 108.289062 41.441406 108.050781 41.441406 107.804688 L 41.441406 104.855469 L 42.765625 103.558594 C 43.125 103.191406 43.308594 102.753906 43.304688 102.238281 L 43.304688 98.527344 L 61.917969 98.527344 L 61.917969 102.238281 C 61.917969 102.753906 62.097656 103.191406 62.460938 103.558594 L 63.78125 104.855469 L 63.78125 107.804688 C 63.78125 108.050781 63.828125 108.289062 63.921875 108.515625 C 64.019531 108.742188 64.152344 108.945312 64.328125 109.117188 C 64.5 109.292969 64.703125 109.425781 64.929688 109.519531 C 65.160156 109.613281 65.394531 109.660156 65.644531 109.660156 L 67.503906 109.660156 Z M 67.503906 105.949219 L 67.503906 104.09375 C 67.507812 103.582031 67.328125 103.144531 66.964844 102.777344 L 65.644531 101.480469 L 65.644531 98.527344 L 73.089844 98.527344 L 73.089844 101.480469 L 71.769531 102.777344 C 71.40625 103.144531 71.226562 103.582031 71.226562 104.09375 L 71.226562 105.949219 Z M 121.492188 61.421875 C 121.492188 61.667969 121.445312 61.902344 121.347656 62.128906 C 121.253906 62.355469 121.121094 62.558594 120.945312 62.730469 C 120.769531 62.90625 120.570312 63.039062 120.34375 63.132812 C 120.113281 63.226562 119.875 63.277344 119.628906 63.277344 C 119.382812 63.277344 119.144531 63.226562 118.917969 63.132812 C 118.6875 63.039062 118.488281 62.90625 118.3125 62.730469 C 118.140625 62.558594 118.003906 62.355469 117.910156 62.128906 C 117.816406 61.902344 117.769531 61.667969 117.769531 61.421875 L 117.769531 51.996094 C 119.007812 52.179688 120.25 52.179688 121.492188 51.996094 Z M 122.609375 47.855469 C 121.652344 48.21875 120.664062 48.398438 119.640625 48.398438 C 118.617188 48.398438 117.625 48.21875 116.667969 47.855469 C 116.453125 47.753906 116.246094 47.632812 116.054688 47.484375 C 116.246094 47.339844 116.453125 47.214844 116.667969 47.113281 C 117.007812 46.96875 117.277344 46.742188 117.480469 46.433594 C 117.683594 46.128906 117.785156 45.792969 117.785156 45.425781 L 117.785156 37.300781 C 117.785156 37.054688 117.832031 36.816406 117.929688 36.589844 C 118.023438 36.363281 118.15625 36.160156 118.332031 35.988281 C 118.507812 35.8125 118.707031 35.679688 118.9375 35.585938 C 119.164062 35.492188 119.402344 35.445312 119.648438 35.445312 C 119.894531 35.445312 120.132812 35.492188 120.359375 35.585938 C 120.589844 35.679688 120.789062 35.8125 120.964844 35.988281 C 121.140625 36.160156 121.273438 36.363281 121.367188 36.589844 C 121.460938 36.816406 121.511719 37.054688 121.511719 37.300781 L 121.511719 45.445312 C 121.511719 45.8125 121.613281 46.148438 121.816406 46.453125 C 122.019531 46.761719 122.289062 46.988281 122.625 47.132812 C 122.84375 47.234375 123.050781 47.359375 123.242188 47.503906 C 123.046875 47.648438 122.835938 47.769531 122.609375 47.855469 Z M 122.609375 47.855469 " fill-opacity="1" fill-rule="nonzero"/></g></svg>