<svg xmlns="http://www.w3.org/2000/svg" xmlns:xlink="http://www.w3.org/1999/xlink" width="100" zoomAndPan="magnify" viewBox="0 0 75 74.999997" height="100" preserveAspectRatio="xMidYMid meet" version="1.0"><path fill="#000000" d="M 0 71.644531 L 75.75 71.644531 L 75.75 75.085938 L 0 75.085938 Z M 0 71.644531 " fill-opacity="1" fill-rule="nonzero"/><path fill="#ffffff" d="M 5.890625 34.667969 L 69.859375 34.667969 L 69.859375 73.433594 L 5.890625 73.433594 Z M 5.890625 34.667969 " fill-opacity="1" fill-rule="nonzero"/><path fill="#000000" d="M 70.816406 74.410156 L 4.933594 74.410156 L 4.933594 33.707031 L 70.835938 33.707031 L 70.835938 74.410156 Z M 6.851562 72.472656 L 68.882812 72.472656 L 68.882812 35.644531 L 6.851562 35.644531 Z M 6.851562 72.472656 " fill-opacity="1" fill-rule="nonzero"/><path fill="#ffffff" d="M 10.941406 39.726562 L 64.808594 39.726562 L 64.808594 43.09375 L 10.941406 43.09375 Z M 10.941406 39.726562 " fill-opacity="1" fill-rule="nonzero"/><path fill="#000000" d="M 65.765625 44.074219 L 9.984375 44.074219 L 9.984375 38.765625 L 65.785156 38.765625 L 65.785156 44.074219 Z M 11.902344 42.136719 L 63.832031 42.136719 L 63.832031 40.703125 L 11.902344 40.703125 Z M 11.902344 42.136719 " fill-opacity="1" fill-rule="nonzero"/><path fill="#ffffff" d="M 14.308594 49.835938 L 21.042969 49.835938 L 21.042969 56.578125 L 14.308594 56.578125 Z M 14.308594 49.835938 " fill-opacity="1" fill-rule="nonzero"/><path fill="#000000" d="M 22 57.554688 L 13.332031 57.554688 L 13.332031 48.875 L 22 48.875 Z M 15.269531 55.617188 L 20.066406 55.617188 L 20.066406 50.816406 L 15.269531 50.816406 Z M 15.269531 55.617188 " fill-opacity="1" fill-rule="nonzero"/><path fill="#ffffff" d="M 34.507812 49.835938 L 41.242188 49.835938 L 41.242188 56.578125 L 34.507812 56.578125 Z M 34.507812 49.835938 " fill-opacity="1" fill-rule="nonzero"/><path fill="#000000" d="M 42.199219 57.554688 L 33.53125 57.554688 L 33.53125 48.875 L 42.199219 48.875 Z M 35.46875 55.617188 L 40.265625 55.617188 L 40.265625 50.816406 L 35.46875 50.816406 Z M 35.46875 55.617188 " fill-opacity="1" fill-rule="nonzero"/><path fill="#ffffff" d="M 54.707031 49.835938 L 61.441406 49.835938 L 61.441406 56.578125 L 54.707031 56.578125 Z M 54.707031 49.835938 " fill-opacity="1" fill-rule="nonzero"/><path fill="#000000" d="M 62.402344 57.554688 L 53.730469 57.554688 L 53.730469 48.875 L 62.402344 48.875 Z M 55.667969 55.617188 L 60.464844 55.617188 L 60.464844 50.816406 L 55.667969 50.816406 Z M 55.667969 55.617188 " fill-opacity="1" fill-rule="nonzero"/><path fill="#ffffff" d="M 16.832031 11.074219 L 58.917969 11.074219 L 58.917969 34.667969 L 16.832031 34.667969 Z M 16.832031 11.074219 " fill-opacity="1" fill-rule="nonzero"/><path fill="#000000" d="M 59.875 35.644531 L 15.875 35.644531 L 15.875 10.113281 L 59.894531 10.113281 L 59.894531 35.644531 Z M 17.792969 33.707031 L 57.941406 33.707031 L 57.941406 12.050781 L 17.792969 12.050781 Z M 17.792969 33.707031 " fill-opacity="1" fill-rule="nonzero"/><path fill="#ffffff" d="M 27.773438 0.960938 L 47.976562 0.960938 L 47.976562 11.074219 L 27.773438 11.074219 Z M 27.773438 0.960938 " fill-opacity="1" fill-rule="nonzero"/><path fill="#000000" d="M 48.933594 12.050781 L 26.796875 12.050781 L 26.796875 0 L 48.933594 0 Z M 28.734375 10.113281 L 47 10.113281 L 47 1.9375 L 28.734375 1.9375 Z M 28.734375 10.113281 " fill-opacity="1" fill-rule="nonzero"/><path fill="#ffffff" d="M 35.351562 4.332031 L 40.398438 4.332031 L 40.398438 7.703125 L 35.351562 7.703125 Z M 35.351562 4.332031 " fill-opacity="1" fill-rule="nonzero"/><path fill="#000000" d="M 41.359375 8.679688 L 34.375 8.679688 L 34.375 3.371094 L 41.359375 3.371094 Z M 36.308594 6.742188 L 39.421875 6.742188 L 39.421875 5.308594 L 36.308594 5.308594 Z M 36.308594 6.742188 " fill-opacity="1" fill-rule="nonzero"/><path fill="#000000" d="M 25.25 26.140625 L 30.300781 26.140625 L 30.300781 31.195312 L 25.25 31.195312 Z M 25.25 26.140625 " fill-opacity="1" fill-rule="nonzero"/><path fill="#000000" d="M 35.351562 26.140625 L 40.398438 26.140625 L 40.398438 31.195312 L 35.351562 31.195312 Z M 35.351562 26.140625 " fill-opacity="1" fill-rule="nonzero"/><path fill="#000000" d="M 45.449219 26.140625 L 50.5 26.140625 L 50.5 31.195312 L 45.449219 31.195312 Z M 45.449219 26.140625 " fill-opacity="1" fill-rule="nonzero"/><path fill="#000000" d="M 25.25 16.128906 L 30.300781 16.128906 L 30.300781 21.183594 L 25.25 21.183594 Z M 25.25 16.128906 " fill-opacity="1" fill-rule="nonzero"/><path fill="#000000" d="M 35.351562 16.128906 L 40.398438 16.128906 L 40.398438 21.183594 L 35.351562 21.183594 Z M 35.351562 16.128906 " fill-opacity="1" fill-rule="nonzero"/><path fill="#000000" d="M 45.449219 16.128906 L 50.5 16.128906 L 50.5 21.183594 L 45.449219 21.183594 Z M 45.449219 16.128906 " fill-opacity="1" fill-rule="nonzero"/></svg>