<svg xmlns="http://www.w3.org/2000/svg" xmlns:xlink="http://www.w3.org/1999/xlink" width="100" zoomAndPan="magnify" viewBox="0 0 75 74.999997" height="100" preserveAspectRatio="xMidYMid meet" version="1.0"><defs><clipPath id="ac70f4c394"><path d="M 13.804688 11.671875 L 61.054688 11.671875 L 61.054688 63.421875 L 13.804688 63.421875 Z M 13.804688 11.671875 " clip-rule="nonzero"/></clipPath></defs><path fill="#fcc521" d="M 75 37.5 C 75 38.726562 74.941406 39.953125 74.820312 41.175781 C 74.699219 42.398438 74.519531 43.609375 74.28125 44.816406 C 74.039062 46.019531 73.742188 47.210938 73.386719 48.386719 C 73.027344 49.5625 72.617188 50.714844 72.144531 51.851562 C 71.675781 52.984375 71.152344 54.09375 70.570312 55.175781 C 69.992188 56.261719 69.363281 57.3125 68.679688 58.332031 C 67.996094 59.355469 67.265625 60.339844 66.488281 61.289062 C 65.707031 62.238281 64.886719 63.148438 64.015625 64.015625 C 63.148438 64.886719 62.238281 65.707031 61.289062 66.488281 C 60.339844 67.265625 59.355469 67.996094 58.332031 68.679688 C 57.3125 69.363281 56.261719 69.992188 55.175781 70.570312 C 54.09375 71.152344 52.984375 71.675781 51.851562 72.144531 C 50.714844 72.617188 49.5625 73.027344 48.386719 73.386719 C 47.210938 73.742188 46.019531 74.039062 44.816406 74.28125 C 43.609375 74.519531 42.398438 74.699219 41.175781 74.820312 C 39.953125 74.941406 38.726562 75 37.5 75 C 36.273438 75 35.046875 74.941406 33.824219 74.820312 C 32.601562 74.699219 31.390625 74.519531 30.183594 74.28125 C 28.980469 74.039062 27.789062 73.742188 26.613281 73.386719 C 25.4375 73.027344 24.285156 72.617188 23.148438 72.144531 C 22.015625 71.675781 20.90625 71.152344 19.824219 70.570312 C 18.738281 69.992188 17.6875 69.363281 16.667969 68.679688 C 15.644531 67.996094 14.660156 67.265625 13.710938 66.488281 C 12.761719 65.707031 11.851562 64.886719 10.984375 64.015625 C 10.113281 63.148438 9.292969 62.238281 8.511719 61.289062 C 7.734375 60.339844 7.003906 59.355469 6.320312 58.332031 C 5.636719 57.3125 5.007812 56.261719 4.429688 55.175781 C 3.847656 54.09375 3.324219 52.984375 2.855469 51.851562 C 2.382812 50.714844 1.972656 49.5625 1.613281 48.386719 C 1.257812 47.210938 0.960938 46.019531 0.71875 44.816406 C 0.480469 43.609375 0.300781 42.398438 0.179688 41.175781 C 0.0585938 39.953125 0 38.726562 0 37.5 C 0 36.273438 0.0585938 35.046875 0.179688 33.824219 C 0.300781 32.601562 0.480469 31.390625 0.71875 30.183594 C 0.960938 28.980469 1.257812 27.789062 1.613281 26.613281 C 1.972656 25.4375 2.382812 24.285156 2.855469 23.148438 C 3.324219 22.015625 3.847656 20.90625 4.429688 19.824219 C 5.007812 18.738281 5.636719 17.6875 6.320312 16.667969 C 7.003906 15.644531 7.734375 14.660156 8.511719 13.710938 C 9.292969 12.761719 10.113281 11.851562 10.984375 10.984375 C 11.851562 10.113281 12.761719 9.292969 13.710938 8.511719 C 14.660156 7.734375 15.644531 7.003906 16.667969 6.320312 C 17.6875 5.636719 18.738281 5.007812 19.824219 4.429688 C 20.90625 3.847656 22.015625 3.324219 23.148438 2.855469 C 24.285156 2.382812 25.4375 1.972656 26.613281 1.613281 C 27.789062 1.257812 28.980469 0.960938 30.183594 0.71875 C 31.390625 0.480469 32.601562 0.300781 33.824219 0.179688 C 35.046875 0.0585938 36.273438 0 37.5 0 C 38.726562 0 39.953125 0.0585938 41.175781 0.179688 C 42.398438 0.300781 43.609375 0.480469 44.816406 0.71875 C 46.019531 0.960938 47.210938 1.257812 48.386719 1.613281 C 49.5625 1.972656 50.714844 2.382812 51.851562 2.855469 C 52.984375 3.324219 54.09375 3.847656 55.175781 4.429688 C 56.261719 5.007812 57.3125 5.636719 58.332031 6.320312 C 59.355469 7.003906 60.339844 7.734375 61.289062 8.511719 C 62.238281 9.292969 63.148438 10.113281 64.015625 10.984375 C 64.886719 11.851562 65.707031 12.761719 66.488281 13.710938 C 67.265625 14.660156 67.996094 15.644531 68.679688 16.667969 C 69.363281 17.6875 69.992188 18.738281 70.570312 19.824219 C 71.152344 20.90625 71.675781 22.015625 72.144531 23.148438 C 72.617188 24.285156 73.027344 25.4375 73.386719 26.613281 C 73.742188 27.789062 74.039062 28.980469 74.28125 30.183594 C 74.519531 31.390625 74.699219 32.601562 74.820312 33.824219 C 74.941406 35.046875 75 36.273438 75 37.5 Z M 75 37.5 " fill-opacity="1" fill-rule="nonzero"/><path fill="#ffffff" d="M 37.429688 14.230469 L 17.179688 14.230469 C 16.945312 14.230469 16.746094 14.3125 16.582031 14.476562 C 16.417969 14.644531 16.335938 14.84375 16.335938 15.078125 L 16.335938 30.339844 C 16.335938 30.574219 16.417969 30.773438 16.582031 30.941406 C 16.746094 31.105469 16.945312 31.1875 17.179688 31.1875 L 37.429688 31.1875 C 37.660156 31.1875 37.859375 31.105469 38.027344 30.941406 C 38.191406 30.773438 38.273438 30.574219 38.273438 30.339844 L 38.273438 15.078125 C 38.273438 14.84375 38.191406 14.644531 38.027344 14.476562 C 37.859375 14.3125 37.660156 14.230469 37.429688 14.230469 Z M 36.585938 29.492188 L 18.023438 29.492188 L 18.023438 15.925781 L 36.585938 15.925781 Z M 36.585938 29.492188 " fill-opacity="1" fill-rule="nonzero"/><path fill="#ffffff" d="M 25.726562 21.207031 L 24.773438 25.929688 C 24.769531 25.988281 24.769531 26.042969 24.773438 26.101562 C 24.773438 26.4375 24.835938 26.761719 24.964844 27.074219 C 25.09375 27.386719 25.277344 27.660156 25.515625 27.898438 C 25.75 28.136719 26.023438 28.320312 26.335938 28.449219 C 26.644531 28.578125 26.96875 28.644531 27.304688 28.644531 C 27.640625 28.644531 27.960938 28.578125 28.273438 28.449219 C 28.582031 28.320312 28.855469 28.136719 29.09375 27.898438 C 29.332031 27.660156 29.515625 27.386719 29.644531 27.074219 C 29.769531 26.761719 29.835938 26.4375 29.835938 26.101562 C 29.839844 26.042969 29.839844 25.988281 29.835938 25.929688 L 28.898438 21.207031 C 29.632812 21.386719 30.320312 21.683594 30.953125 22.09375 C 31.589844 22.503906 32.144531 23.007812 32.609375 23.605469 C 33.078125 24.203125 33.433594 24.859375 33.683594 25.578125 C 33.929688 26.296875 34.054688 27.035156 34.054688 27.796875 L 35.742188 27.796875 C 35.742188 27.292969 35.695312 26.789062 35.605469 26.292969 C 35.519531 25.796875 35.386719 25.3125 35.210938 24.839844 C 35.035156 24.363281 34.816406 23.910156 34.5625 23.476562 C 34.304688 23.042969 34.011719 22.632812 33.683594 22.25 C 33.355469 21.871094 32.996094 21.519531 32.605469 21.203125 C 32.210938 20.886719 31.796875 20.605469 31.355469 20.363281 C 30.914062 20.121094 30.457031 19.917969 29.980469 19.757812 C 29.503906 19.597656 29.015625 19.484375 28.519531 19.410156 L 28.148438 17.449219 C 28.148438 17.21875 28.066406 17.015625 27.902344 16.851562 C 27.734375 16.6875 27.535156 16.601562 27.304688 16.601562 C 27.070312 16.601562 26.871094 16.6875 26.707031 16.851562 C 26.542969 17.015625 26.460938 17.21875 26.460938 17.449219 L 26.070312 19.410156 C 25.574219 19.484375 25.089844 19.601562 24.613281 19.761719 C 24.136719 19.921875 23.679688 20.125 23.242188 20.367188 C 22.800781 20.609375 22.386719 20.890625 21.996094 21.207031 C 21.605469 21.523438 21.246094 21.875 20.917969 22.257812 C 20.589844 22.636719 20.296875 23.046875 20.042969 23.480469 C 19.785156 23.914062 19.570312 24.367188 19.394531 24.839844 C 19.222656 25.3125 19.089844 25.796875 19 26.296875 C 18.910156 26.792969 18.867188 27.292969 18.867188 27.796875 L 20.554688 27.796875 C 20.554688 27.035156 20.679688 26.296875 20.929688 25.578125 C 21.175781 24.859375 21.535156 24.199219 22.003906 23.601562 C 22.472656 23.003906 23.027344 22.5 23.664062 22.089844 C 24.304688 21.679688 24.988281 21.386719 25.726562 21.207031 Z M 27.304688 21.945312 L 28.148438 26.183594 C 28.148438 26.417969 28.066406 26.621094 27.902344 26.785156 C 27.734375 26.949219 27.535156 27.035156 27.304688 27.035156 C 27.070312 27.035156 26.871094 26.949219 26.707031 26.785156 C 26.542969 26.621094 26.460938 26.417969 26.460938 26.183594 Z M 27.304688 21.945312 " fill-opacity="1" fill-rule="nonzero"/><path fill="#ffffff" d="M 28.148438 46.453125 C 28.148438 46.6875 28.066406 46.886719 27.902344 47.050781 C 27.734375 47.21875 27.535156 47.300781 27.304688 47.300781 C 27.070312 47.300781 26.871094 47.21875 26.707031 47.050781 C 26.542969 46.886719 26.460938 46.6875 26.460938 46.453125 C 26.460938 46.21875 26.542969 46.019531 26.707031 45.851562 C 26.871094 45.6875 27.070312 45.605469 27.304688 45.605469 C 27.535156 45.605469 27.734375 45.6875 27.902344 45.851562 C 28.066406 46.019531 28.148438 46.21875 28.148438 46.453125 Z M 28.148438 46.453125 " fill-opacity="1" fill-rule="nonzero"/><path fill="#ffffff" d="M 30.078125 45.003906 C 29.917969 45.167969 29.835938 45.367188 29.835938 45.601562 C 29.835938 45.835938 29.917969 46.035156 30.082031 46.199219 C 30.246094 46.363281 30.445312 46.449219 30.679688 46.449219 C 30.910156 46.449219 31.109375 46.363281 31.273438 46.199219 C 31.441406 46.035156 31.523438 45.835938 31.523438 45.601562 C 31.523438 45.367188 31.441406 45.167969 31.277344 45.003906 C 31.113281 44.835938 30.914062 44.75 30.679688 44.75 C 30.445312 44.75 30.246094 44.835938 30.078125 45.003906 Z M 30.078125 45.003906 " fill-opacity="1" fill-rule="nonzero"/><path fill="#ffffff" d="M 23.328125 45.003906 C 23.167969 45.167969 23.085938 45.367188 23.085938 45.601562 C 23.085938 45.835938 23.167969 46.035156 23.332031 46.199219 C 23.496094 46.363281 23.695312 46.449219 23.929688 46.449219 C 24.160156 46.449219 24.359375 46.363281 24.523438 46.199219 C 24.691406 46.035156 24.773438 45.835938 24.773438 45.601562 C 24.773438 45.367188 24.691406 45.167969 24.527344 45.003906 C 24.363281 44.835938 24.164062 44.75 23.929688 44.75 C 23.695312 44.75 23.496094 44.835938 23.328125 45.003906 Z M 23.328125 45.003906 " fill-opacity="1" fill-rule="nonzero"/><path fill="#ffffff" d="M 34.898438 39.667969 C 34.898438 39.902344 34.816406 40.101562 34.652344 40.269531 C 34.484375 40.433594 34.285156 40.515625 34.054688 40.515625 C 33.820312 40.515625 33.621094 40.433594 33.457031 40.269531 C 33.292969 40.101562 33.210938 39.902344 33.210938 39.667969 C 33.210938 39.433594 33.292969 39.234375 33.457031 39.070312 C 33.621094 38.902344 33.820312 38.820312 34.054688 38.820312 C 34.285156 38.820312 34.484375 38.902344 34.652344 39.070312 C 34.816406 39.234375 34.898438 39.433594 34.898438 39.667969 Z M 34.898438 39.667969 " fill-opacity="1" fill-rule="nonzero"/><path fill="#ffffff" d="M 33.808594 36.878906 C 33.972656 36.710938 34.054688 36.511719 34.054688 36.277344 C 34.054688 36.046875 33.972656 35.847656 33.804688 35.679688 C 33.640625 35.515625 33.441406 35.433594 33.210938 35.433594 C 32.976562 35.433594 32.777344 35.515625 32.613281 35.679688 C 32.449219 35.847656 32.367188 36.046875 32.367188 36.277344 C 32.367188 36.511719 32.449219 36.710938 32.609375 36.878906 C 32.777344 37.046875 32.976562 37.128906 33.210938 37.128906 C 33.445312 37.128906 33.644531 37.046875 33.808594 36.878906 Z M 33.808594 36.878906 " fill-opacity="1" fill-rule="nonzero"/><path fill="#ffffff" d="M 32.609375 42.457031 C 32.449219 42.625 32.367188 42.824219 32.367188 43.058594 C 32.367188 43.292969 32.449219 43.492188 32.613281 43.65625 C 32.777344 43.820312 32.976562 43.902344 33.210938 43.902344 C 33.441406 43.902344 33.640625 43.820312 33.804688 43.65625 C 33.972656 43.492188 34.054688 43.292969 34.054688 43.058594 C 34.054688 42.824219 33.972656 42.625 33.808594 42.457031 C 33.644531 42.289062 33.445312 42.207031 33.210938 42.207031 C 32.976562 42.207031 32.777344 42.289062 32.609375 42.457031 Z M 32.609375 42.457031 " fill-opacity="1" fill-rule="nonzero"/><path fill="#ffffff" d="M 21.398438 39.667969 C 21.398438 39.902344 21.316406 40.101562 21.152344 40.269531 C 20.984375 40.433594 20.785156 40.515625 20.554688 40.515625 C 20.320312 40.515625 20.121094 40.433594 19.957031 40.269531 C 19.792969 40.101562 19.710938 39.902344 19.710938 39.667969 C 19.710938 39.433594 19.792969 39.234375 19.957031 39.070312 C 20.121094 38.902344 20.320312 38.820312 20.554688 38.820312 C 20.785156 38.820312 20.984375 38.902344 21.152344 39.070312 C 21.316406 39.234375 21.398438 39.433594 21.398438 39.667969 Z M 21.398438 39.667969 " fill-opacity="1" fill-rule="nonzero"/><path fill="#ffffff" d="M 21.996094 36.878906 C 22.160156 36.710938 22.242188 36.511719 22.242188 36.277344 C 22.242188 36.046875 22.160156 35.847656 21.992188 35.679688 C 21.828125 35.515625 21.628906 35.433594 21.398438 35.433594 C 21.164062 35.433594 20.964844 35.515625 20.800781 35.679688 C 20.636719 35.847656 20.554688 36.046875 20.554688 36.277344 C 20.554688 36.511719 20.636719 36.710938 20.796875 36.878906 C 20.964844 37.046875 21.164062 37.128906 21.398438 37.128906 C 21.632812 37.128906 21.832031 37.046875 21.996094 36.878906 Z M 21.996094 36.878906 " fill-opacity="1" fill-rule="nonzero"/><path fill="#ffffff" d="M 20.796875 42.457031 C 20.636719 42.625 20.554688 42.824219 20.554688 43.058594 C 20.554688 43.292969 20.636719 43.492188 20.800781 43.65625 C 20.964844 43.820312 21.164062 43.902344 21.398438 43.902344 C 21.628906 43.902344 21.828125 43.820312 21.992188 43.65625 C 22.160156 43.492188 22.242188 43.292969 22.242188 43.058594 C 22.242188 42.824219 22.160156 42.625 21.996094 42.457031 C 21.832031 42.289062 21.632812 42.207031 21.398438 42.207031 C 21.164062 42.207031 20.964844 42.289062 20.796875 42.457031 Z M 20.796875 42.457031 " fill-opacity="1" fill-rule="nonzero"/><path fill="#ffffff" d="M 28.148438 32.882812 C 28.148438 33.117188 28.066406 33.320312 27.902344 33.484375 C 27.734375 33.648438 27.535156 33.730469 27.304688 33.730469 C 27.070312 33.730469 26.871094 33.648438 26.707031 33.484375 C 26.542969 33.320312 26.460938 33.117188 26.460938 32.882812 C 26.460938 32.648438 26.542969 32.449219 26.707031 32.285156 C 26.871094 32.121094 27.070312 32.035156 27.304688 32.035156 C 27.535156 32.035156 27.734375 32.121094 27.902344 32.285156 C 28.066406 32.449219 28.148438 32.648438 28.148438 32.882812 Z M 28.148438 32.882812 " fill-opacity="1" fill-rule="nonzero"/><path fill="#ffffff" d="M 31.277344 34.335938 C 31.441406 34.167969 31.523438 33.96875 31.523438 33.734375 C 31.523438 33.5 31.441406 33.300781 31.273438 33.136719 C 31.109375 32.972656 30.910156 32.890625 30.679688 32.890625 C 30.445312 32.890625 30.246094 32.972656 30.082031 33.136719 C 29.917969 33.300781 29.835938 33.5 29.835938 33.734375 C 29.835938 33.96875 29.917969 34.167969 30.078125 34.335938 C 30.246094 34.5 30.445312 34.585938 30.679688 34.585938 C 30.914062 34.585938 31.113281 34.5 31.277344 34.335938 Z M 31.277344 34.335938 " fill-opacity="1" fill-rule="nonzero"/><path fill="#ffffff" d="M 24.527344 34.335938 C 24.691406 34.167969 24.773438 33.96875 24.773438 33.734375 C 24.773438 33.5 24.691406 33.300781 24.523438 33.136719 C 24.359375 32.972656 24.160156 32.890625 23.929688 32.890625 C 23.695312 32.890625 23.496094 32.972656 23.332031 33.136719 C 23.167969 33.300781 23.085938 33.5 23.085938 33.734375 C 23.085938 33.96875 23.167969 34.167969 23.328125 34.335938 C 23.496094 34.5 23.695312 34.585938 23.929688 34.585938 C 24.164062 34.585938 24.363281 34.5 24.527344 34.335938 Z M 24.527344 34.335938 " fill-opacity="1" fill-rule="nonzero"/><path fill="#ffffff" d="M 27.304688 44.757812 C 27.636719 44.757812 27.964844 44.722656 28.292969 44.660156 C 28.617188 44.59375 28.933594 44.496094 29.242188 44.367188 C 29.546875 44.242188 29.839844 44.085938 30.117188 43.898438 C 30.394531 43.714844 30.648438 43.503906 30.882812 43.265625 C 31.117188 43.03125 31.328125 42.773438 31.511719 42.496094 C 31.699219 42.21875 31.855469 41.925781 31.980469 41.617188 C 32.109375 41.308594 32.203125 40.988281 32.269531 40.660156 C 32.335938 40.332031 32.367188 40.003906 32.367188 39.667969 C 32.367188 39.335938 32.335938 39.003906 32.269531 38.675781 C 32.203125 38.347656 32.109375 38.03125 31.980469 37.722656 C 31.855469 37.414062 31.699219 37.121094 31.511719 36.839844 C 31.328125 36.5625 31.117188 36.308594 30.882812 36.070312 C 30.648438 35.835938 30.394531 35.625 30.117188 35.4375 C 29.839844 35.253906 29.546875 35.09375 29.242188 34.96875 C 28.933594 34.839844 28.617188 34.742188 28.292969 34.679688 C 27.964844 34.613281 27.636719 34.582031 27.304688 34.582031 C 26.972656 34.582031 26.640625 34.613281 26.316406 34.679688 C 25.992188 34.742188 25.675781 34.839844 25.367188 34.96875 C 25.058594 35.09375 24.769531 35.253906 24.492188 35.4375 C 24.214844 35.625 23.960938 35.835938 23.722656 36.070312 C 23.488281 36.308594 23.28125 36.5625 23.09375 36.839844 C 22.910156 37.121094 22.753906 37.414062 22.625 37.722656 C 22.5 38.03125 22.402344 38.347656 22.339844 38.675781 C 22.273438 39.003906 22.242188 39.335938 22.242188 39.667969 C 22.242188 40.003906 22.273438 40.332031 22.339844 40.660156 C 22.402344 40.988281 22.5 41.308594 22.625 41.617188 C 22.753906 41.925781 22.910156 42.21875 23.09375 42.496094 C 23.28125 42.773438 23.488281 43.03125 23.722656 43.265625 C 23.960938 43.503906 24.214844 43.714844 24.492188 43.898438 C 24.769531 44.085938 25.058594 44.242188 25.367188 44.367188 C 25.675781 44.496094 25.992188 44.59375 26.316406 44.660156 C 26.640625 44.722656 26.972656 44.757812 27.304688 44.757812 Z M 28.148438 36.394531 C 28.503906 36.492188 28.835938 36.644531 29.144531 36.851562 C 29.453125 37.0625 29.71875 37.3125 29.945312 37.609375 C 30.167969 37.902344 30.339844 38.226562 30.460938 38.582031 C 30.578125 38.933594 30.636719 39.296875 30.636719 39.667969 C 30.636719 40.039062 30.578125 40.402344 30.460938 40.753906 C 30.339844 41.109375 30.167969 41.433594 29.945312 41.726562 C 29.71875 42.023438 29.453125 42.277344 29.144531 42.484375 C 28.835938 42.691406 28.503906 42.84375 28.148438 42.941406 Z M 26.460938 36.394531 L 26.460938 42.941406 C 26.101562 42.84375 25.769531 42.691406 25.460938 42.484375 C 25.15625 42.277344 24.890625 42.023438 24.664062 41.726562 C 24.4375 41.433594 24.265625 41.109375 24.148438 40.753906 C 24.03125 40.402344 23.96875 40.039062 23.96875 39.667969 C 23.96875 39.296875 24.03125 38.933594 24.148438 38.582031 C 24.265625 38.226562 24.4375 37.902344 24.664062 37.609375 C 24.890625 37.3125 25.15625 37.0625 25.460938 36.851562 C 25.769531 36.644531 26.101562 36.492188 26.460938 36.394531 Z M 26.460938 36.394531 " fill-opacity="1" fill-rule="nonzero"/><g clip-path="url(#ac70f4c394)"><path fill="#ffffff" d="M 58.523438 19.46875 L 58.523438 11.683594 L 56.835938 11.683594 L 56.835938 19.46875 C 56.332031 19.648438 55.925781 19.957031 55.613281 20.394531 C 55.304688 20.835938 55.148438 21.324219 55.148438 21.859375 L 55.148438 25.089844 C 54.609375 25.414062 54.328125 25.894531 54.304688 26.523438 C 54.328125 27.15625 54.609375 27.636719 55.148438 27.964844 L 55.148438 32.882812 C 55.148438 33.421875 55.304688 33.910156 55.613281 34.347656 C 55.925781 34.789062 56.332031 35.097656 56.835938 35.277344 L 56.835938 59.605469 C 56.835938 59.882812 56.78125 60.152344 56.671875 60.410156 C 56.566406 60.667969 56.414062 60.898438 56.21875 61.09375 C 56.019531 61.292969 55.792969 61.445312 55.535156 61.554688 C 55.28125 61.660156 55.011719 61.714844 54.734375 61.714844 L 37.859375 61.714844 C 37.578125 61.71875 37.308594 61.664062 37.050781 61.558594 C 36.792969 61.453125 36.5625 61.300781 36.367188 61.101562 C 36.167969 60.902344 36.011719 60.675781 35.90625 60.414062 C 35.796875 60.15625 35.742188 59.886719 35.742188 59.605469 L 35.742188 58.324219 L 46.296875 58.324219 C 46.800781 58.324219 47.28125 58.226562 47.746094 58.035156 C 48.210938 57.839844 48.621094 57.566406 48.976562 57.207031 C 49.332031 56.851562 49.605469 56.441406 49.796875 55.972656 C 49.988281 55.507812 50.085938 55.023438 50.085938 54.515625 L 50.085938 35.277344 C 50.589844 35.097656 50.996094 34.789062 51.304688 34.347656 C 51.617188 33.910156 51.769531 33.421875 51.773438 32.882812 L 51.773438 27.957031 C 52.03125 27.8125 52.238281 27.613281 52.386719 27.355469 C 52.539062 27.101562 52.613281 26.824219 52.613281 26.523438 C 52.613281 26.226562 52.539062 25.949219 52.386719 25.691406 C 52.238281 25.4375 52.03125 25.234375 51.773438 25.089844 L 51.773438 21.859375 C 51.769531 21.324219 51.617188 20.835938 51.304688 20.394531 C 50.996094 19.957031 50.589844 19.648438 50.085938 19.46875 L 50.085938 11.683594 L 48.398438 11.683594 L 48.398438 19.46875 C 47.894531 19.648438 47.488281 19.957031 47.175781 20.394531 C 46.867188 20.835938 46.710938 21.324219 46.710938 21.859375 L 46.710938 25.089844 C 46.171875 25.414062 45.890625 25.894531 45.867188 26.523438 C 45.890625 27.15625 46.171875 27.636719 46.710938 27.964844 L 46.710938 32.882812 C 46.710938 33.421875 46.867188 33.910156 47.175781 34.347656 C 47.488281 34.789062 47.894531 35.097656 48.398438 35.277344 L 48.398438 54.515625 C 48.398438 54.796875 48.34375 55.066406 48.234375 55.324219 C 48.128906 55.582031 47.976562 55.808594 47.78125 56.007812 C 47.582031 56.203125 47.355469 56.359375 47.097656 56.464844 C 46.84375 56.574219 46.574219 56.628906 46.296875 56.628906 L 35.742188 56.628906 L 35.742188 54.933594 L 36.585938 54.933594 C 36.816406 54.933594 37.015625 54.847656 37.183594 54.683594 C 37.347656 54.519531 37.429688 54.316406 37.429688 54.085938 L 37.429688 52.734375 L 38.027344 52.140625 C 38.191406 51.976562 38.273438 51.773438 38.273438 51.539062 L 38.273438 49.84375 L 39.960938 49.84375 C 40.191406 49.84375 40.390625 49.761719 40.558594 49.597656 C 40.722656 49.429688 40.804688 49.230469 40.804688 48.996094 L 40.804688 12.53125 C 40.804688 12.296875 40.722656 12.097656 40.558594 11.933594 C 40.390625 11.765625 40.191406 11.683594 39.960938 11.683594 L 14.648438 11.683594 C 14.414062 11.683594 14.214844 11.765625 14.050781 11.933594 C 13.886719 12.097656 13.804688 12.296875 13.804688 12.53125 L 13.804688 48.996094 C 13.804688 49.230469 13.886719 49.429688 14.050781 49.597656 C 14.214844 49.761719 14.414062 49.84375 14.648438 49.84375 L 16.335938 49.84375 L 16.335938 51.539062 C 16.332031 51.773438 16.414062 51.976562 16.578125 52.140625 L 17.179688 52.734375 L 17.179688 54.085938 C 17.179688 54.316406 17.261719 54.519531 17.425781 54.683594 C 17.589844 54.847656 17.789062 54.933594 18.023438 54.933594 L 18.910156 54.933594 C 18.957031 55.398438 19.089844 55.835938 19.300781 56.253906 C 19.511719 56.671875 19.792969 57.035156 20.136719 57.347656 C 20.484375 57.660156 20.871094 57.902344 21.304688 58.070312 C 21.742188 58.238281 22.191406 58.324219 22.65625 58.324219 L 34.054688 58.324219 L 34.054688 59.605469 C 34.054688 60.109375 34.148438 60.59375 34.34375 61.0625 C 34.535156 61.527344 34.808594 61.941406 35.164062 62.296875 C 35.519531 62.652344 35.929688 62.929688 36.394531 63.121094 C 36.855469 63.316406 37.339844 63.410156 37.84375 63.410156 L 54.71875 63.410156 C 55.222656 63.414062 55.707031 63.320312 56.171875 63.128906 C 56.636719 62.933594 57.050781 62.660156 57.40625 62.304688 C 57.765625 61.945312 58.039062 61.53125 58.234375 61.066406 C 58.425781 60.597656 58.523438 60.109375 58.523438 59.605469 L 58.523438 35.277344 C 59.027344 35.097656 59.433594 34.789062 59.742188 34.347656 C 60.054688 33.910156 60.207031 33.421875 60.210938 32.882812 L 60.210938 27.957031 C 60.46875 27.8125 60.675781 27.613281 60.824219 27.355469 C 60.976562 27.101562 61.050781 26.824219 61.050781 26.523438 C 61.050781 26.226562 60.976562 25.949219 60.824219 25.691406 C 60.675781 25.4375 60.46875 25.234375 60.210938 25.089844 L 60.210938 21.859375 C 60.207031 21.324219 60.054688 20.835938 59.742188 20.394531 C 59.433594 19.957031 59.027344 19.648438 58.523438 19.46875 Z M 50.085938 32.882812 C 50.085938 33.117188 50.003906 33.320312 49.839844 33.484375 C 49.671875 33.648438 49.472656 33.730469 49.242188 33.730469 C 49.007812 33.730469 48.808594 33.648438 48.644531 33.484375 C 48.480469 33.320312 48.398438 33.117188 48.398438 32.882812 L 48.398438 28.578125 C 48.960938 28.660156 49.523438 28.660156 50.085938 28.578125 Z M 47.890625 26.695312 C 47.792969 26.648438 47.699219 26.589844 47.613281 26.523438 C 47.699219 26.457031 47.792969 26.402344 47.890625 26.355469 C 48.226562 26.207031 48.394531 25.949219 48.398438 25.582031 L 48.398438 21.859375 C 48.398438 21.625 48.480469 21.425781 48.644531 21.261719 C 48.808594 21.09375 49.007812 21.011719 49.242188 21.011719 C 49.472656 21.011719 49.671875 21.09375 49.839844 21.261719 C 50.003906 21.425781 50.085938 21.625 50.085938 21.859375 L 50.085938 25.582031 C 50.085938 25.949219 50.257812 26.207031 50.589844 26.355469 C 50.691406 26.402344 50.78125 26.457031 50.871094 26.523438 C 50.785156 26.589844 50.691406 26.644531 50.589844 26.6875 C 49.691406 27.035156 48.792969 27.035156 47.890625 26.695312 Z M 15.492188 48.148438 L 15.492188 13.378906 L 39.117188 13.378906 L 39.117188 48.148438 Z M 20.554688 53.234375 L 18.867188 53.234375 L 18.867188 52.386719 C 18.867188 52.152344 18.785156 51.953125 18.621094 51.785156 L 18.023438 51.191406 L 18.023438 49.84375 L 21.398438 49.84375 L 21.398438 51.191406 L 20.796875 51.785156 C 20.632812 51.953125 20.550781 52.152344 20.554688 52.386719 Z M 34.054688 56.628906 L 22.65625 56.628906 C 22.414062 56.628906 22.175781 56.585938 21.949219 56.503906 C 21.71875 56.421875 21.511719 56.304688 21.324219 56.148438 C 21.136719 55.996094 20.980469 55.8125 20.855469 55.605469 C 20.730469 55.394531 20.644531 55.171875 20.597656 54.933594 L 21.398438 54.933594 C 21.628906 54.933594 21.828125 54.847656 21.996094 54.683594 C 22.160156 54.519531 22.242188 54.316406 22.242188 54.085938 L 22.242188 52.734375 L 22.839844 52.140625 C 23.003906 51.976562 23.085938 51.773438 23.085938 51.539062 L 23.085938 49.84375 L 31.523438 49.84375 L 31.523438 51.539062 C 31.519531 51.773438 31.601562 51.976562 31.765625 52.140625 L 32.367188 52.734375 L 32.367188 54.085938 C 32.367188 54.316406 32.449219 54.519531 32.613281 54.683594 C 32.777344 54.847656 32.976562 54.933594 33.210938 54.933594 L 34.054688 54.933594 Z M 34.054688 53.234375 L 34.054688 52.386719 C 34.054688 52.152344 33.972656 51.953125 33.808594 51.785156 L 33.210938 51.191406 L 33.210938 49.84375 L 36.585938 49.84375 L 36.585938 51.191406 L 35.984375 51.785156 C 35.820312 51.953125 35.738281 52.152344 35.742188 52.386719 L 35.742188 53.234375 Z M 58.523438 32.882812 C 58.523438 33.117188 58.441406 33.320312 58.277344 33.484375 C 58.109375 33.648438 57.910156 33.730469 57.679688 33.730469 C 57.445312 33.730469 57.246094 33.648438 57.082031 33.484375 C 56.917969 33.320312 56.835938 33.117188 56.835938 32.882812 L 56.835938 28.578125 C 57.398438 28.660156 57.960938 28.660156 58.523438 28.578125 Z M 59.027344 26.6875 C 58.132812 27.027344 57.234375 27.027344 56.335938 26.6875 C 56.238281 26.640625 56.144531 26.582031 56.058594 26.515625 C 56.144531 26.449219 56.238281 26.394531 56.335938 26.347656 C 56.671875 26.199219 56.839844 25.941406 56.84375 25.574219 L 56.84375 21.859375 C 56.84375 21.625 56.925781 21.425781 57.089844 21.261719 C 57.253906 21.09375 57.453125 21.011719 57.6875 21.011719 C 57.921875 21.011719 58.121094 21.09375 58.285156 21.261719 C 58.449219 21.425781 58.53125 21.625 58.53125 21.859375 L 58.53125 25.582031 C 58.535156 25.949219 58.703125 26.207031 59.039062 26.355469 C 59.136719 26.402344 59.230469 26.457031 59.316406 26.523438 C 59.226562 26.589844 59.132812 26.644531 59.027344 26.6875 Z M 59.027344 26.6875 " fill-opacity="1" fill-rule="nonzero"/></g></svg>