<svg xmlns="http://www.w3.org/2000/svg" xmlns:xlink="http://www.w3.org/1999/xlink" width="200" zoomAndPan="magnify" viewBox="0 0 150 149.999998" height="200" preserveAspectRatio="xMidYMid meet" version="1.0"><defs><clipPath id="e95fe6dd51"><path d="M 18.882812 18.882812 L 131.117188 18.882812 L 131.117188 131.117188 L 18.882812 131.117188 Z M 18.882812 18.882812 " clip-rule="nonzero"/></clipPath><clipPath id="4ccfafb535"><path d="M 75 18.882812 C 44.007812 18.882812 18.882812 44.007812 18.882812 75 C 18.882812 105.992188 44.007812 131.117188 75 131.117188 C 105.992188 131.117188 131.117188 105.992188 131.117188 75 C 131.117188 44.007812 105.992188 18.882812 75 18.882812 " clip-rule="nonzero"/></clipPath><clipPath id="5c479833f5"><path d="M 19 28 L 126.882812 28 L 126.882812 126 L 19 126 Z M 19 28 " clip-rule="nonzero"/></clipPath></defs><g clip-path="url(#e95fe6dd51)"><g clip-path="url(#4ccfafb535)"><path fill="#fcc521" d="M 18.882812 18.882812 L 131.117188 18.882812 L 131.117188 131.117188 L 18.882812 131.117188 Z M 18.882812 18.882812 " fill-opacity="1" fill-rule="nonzero"/></g></g><path fill="#000000" d="M 66.890625 87.957031 L 66.890625 79.214844 C 70.914062 77.113281 73.59375 72.914062 73.59375 68.039062 C 73.59375 61.0625 67.980469 55.433594 61.027344 55.433594 C 54.074219 55.433594 48.460938 61.0625 48.460938 68.039062 C 48.460938 72.828125 51.144531 77.03125 55.164062 79.214844 L 55.164062 106.695312 C 55.164062 106.949219 55.246094 107.285156 55.332031 107.539062 L 58.597656 113.421875 C 58.933594 113.925781 59.4375 114.261719 60.105469 114.261719 C 60.691406 114.261719 61.277344 113.925781 61.613281 113.421875 C 61.613281 113.421875 65.71875 105.941406 65.71875 105.941406 C 66.054688 105.351562 66.136719 104.597656 65.71875 104.007812 L 63.539062 100.5625 L 65.71875 97.117188 C 66.054688 96.527344 66.054688 95.773438 65.71875 95.265625 L 63.707031 92.324219 L 66.554688 89.132812 C 66.722656 88.796875 66.890625 88.375 66.890625 87.957031 Z M 63.539062 87.285156 L 60.273438 90.980469 C 59.769531 91.570312 59.6875 92.410156 60.105469 93.082031 L 62.285156 96.191406 L 60.105469 99.636719 C 59.769531 100.226562 59.769531 100.898438 60.105469 101.488281 L 62.367188 105.015625 L 60.105469 109.132812 L 58.515625 106.191406 L 58.515625 80.390625 C 59.351562 80.558594 60.191406 80.644531 61.027344 80.644531 C 61.867188 80.644531 62.703125 80.558594 63.539062 80.390625 Z M 61.027344 77.28125 C 55.917969 77.28125 51.8125 73.164062 51.8125 68.039062 C 51.8125 62.910156 55.917969 58.792969 61.027344 58.792969 C 66.136719 58.792969 70.242188 62.910156 70.242188 68.039062 C 70.242188 73.164062 66.136719 77.28125 61.027344 77.28125 Z M 61.027344 77.28125 " fill-opacity="1" fill-rule="nonzero"/><path fill="#000000" d="M 61.027344 62.996094 C 58.261719 62.996094 56 65.265625 56 68.039062 C 56 70.8125 58.261719 73.082031 61.027344 73.082031 C 63.792969 73.082031 66.054688 70.8125 66.054688 68.039062 C 66.054688 65.265625 63.792969 62.996094 61.027344 62.996094 Z M 61.027344 69.71875 C 60.105469 69.71875 59.351562 68.960938 59.351562 68.039062 C 59.351562 67.113281 60.105469 66.355469 61.027344 66.355469 C 61.949219 66.355469 62.703125 67.113281 62.703125 68.039062 C 62.703125 68.960938 61.949219 69.71875 61.027344 69.71875 Z M 61.027344 69.71875 " fill-opacity="1" fill-rule="nonzero"/><path fill="#000000" d="M 91.6875 117.621094 L 30.367188 117.621094 C 29.277344 117.621094 28.355469 116.78125 28.355469 115.773438 L 28.355469 79.550781 C 28.355469 78.964844 28.777344 78.039062 29.109375 77.617188 C 29.109375 77.617188 59.351562 46.019531 59.519531 45.933594 C 60.191406 45.179688 61.445312 45.179688 62.199219 45.851562 L 85.070312 69.550781 L 84.652344 67.28125 C 84.484375 66.273438 84.484375 65.265625 84.652344 64.257812 C 84.652344 64.257812 64.628906 43.5 64.546875 43.414062 C 62.535156 41.3125 59.015625 41.480469 57.089844 43.5 L 26.765625 75.351562 C 25.761719 76.359375 25.089844 78.207031 25.089844 79.636719 L 25.089844 115.855469 C 25.089844 118.714844 27.519531 121.066406 30.453125 121.066406 L 91.769531 121.066406 C 92.777344 121.066406 93.699219 120.816406 94.453125 120.3125 L 93.699219 116.195312 C 93.445312 117.035156 92.609375 117.621094 91.6875 117.621094 Z M 91.6875 117.621094 " fill-opacity="1" fill-rule="nonzero"/><g clip-path="url(#5c479833f5)"><path fill="#000000" d="M 126.285156 116.699219 L 116.066406 61.566406 C 115.8125 60.054688 114.722656 58.710938 113.382812 57.953125 L 102.578125 52.574219 C 102.160156 52.324219 101.65625 52.238281 101.238281 52.15625 C 101.238281 51.988281 101.238281 51.902344 101.238281 51.734375 C 101.320312 48.203125 101.320312 44.589844 100.148438 41.144531 C 97.550781 33.917969 91.101562 27.363281 82.472656 28.707031 C 76.105469 29.800781 71.078125 34.421875 69.738281 40.050781 L 64.628906 34.757812 C 64.628906 34.757812 64.546875 34.675781 64.460938 34.675781 C 62.785156 33.246094 59.769531 32.910156 57.175781 35.429688 L 19.644531 74.171875 C 18.976562 74.84375 18.976562 75.9375 19.644531 76.527344 C 20.230469 77.113281 21.402344 77.113281 21.992188 76.527344 L 59.605469 37.785156 C 60.777344 36.605469 61.867188 36.859375 62.285156 37.195312 L 85.738281 61.316406 C 85.90625 60.980469 86.160156 60.726562 86.410156 60.390625 L 87.835938 58.625 L 72.753906 43.164062 C 72.753906 43.078125 72.753906 43.078125 72.753906 42.992188 C 72.753906 37.699219 77.113281 32.992188 82.976562 32.070312 C 90.179688 30.890625 95.039062 36.859375 96.964844 42.320312 C 97.96875 45.179688 97.96875 48.539062 97.886719 51.734375 C 97.886719 52.070312 97.886719 52.40625 97.886719 52.660156 C 97.300781 52.996094 96.796875 53.332031 96.378906 53.835938 L 89.089844 62.492188 C 88.085938 63.667969 87.75 65.179688 88 66.609375 C 88 66.609375 98.222656 121.738281 98.222656 121.824219 C 98.722656 124.511719 101.488281 126.363281 104.167969 125.859375 L 122.265625 122.496094 C 124.945312 122.078125 126.789062 119.472656 126.285156 116.699219 Z M 121.59375 119.304688 L 103.5 122.664062 C 102.492188 122.832031 101.574219 122.246094 101.40625 121.320312 L 91.183594 66.105469 C 91.101562 65.601562 91.269531 65.179688 91.519531 64.761719 L 98.808594 56.105469 C 99.3125 55.515625 100.230469 55.265625 100.984375 55.683594 L 111.792969 61.0625 C 112.296875 61.316406 112.628906 61.734375 112.714844 62.238281 L 122.933594 117.371094 C 123.183594 118.210938 122.515625 119.136719 121.59375 119.304688 Z M 121.59375 119.304688 " fill-opacity="1" fill-rule="nonzero"/></g><path fill="#000000" d="M 99.5625 76.359375 L 101.90625 72.410156 C 102.492188 74.339844 104.335938 75.601562 106.261719 75.601562 C 109.113281 75.601562 111.289062 72.914062 110.789062 70.140625 L 110.117188 66.441406 C 109.949219 65.515625 109.113281 64.929688 108.191406 65.097656 L 96.546875 67.199219 C 95.625 67.367188 95.039062 68.207031 95.207031 69.128906 C 95.375 69.972656 96.292969 70.644531 97.132812 70.476562 L 99.3125 70.054688 L 96.628906 74.59375 C 96.128906 75.351562 96.378906 76.441406 97.214844 76.863281 C 98.054688 77.367188 99.058594 77.113281 99.5625 76.359375 Z M 107.101562 68.625 L 107.519531 70.726562 C 107.6875 71.398438 107.183594 72.070312 106.515625 72.238281 C 105.84375 72.410156 105.175781 71.902344 105.007812 71.230469 L 104.589844 69.128906 Z M 107.101562 68.625 " fill-opacity="1" fill-rule="nonzero"/><path fill="#000000" d="M 100.902344 90.476562 C 101.824219 90.308594 102.410156 89.46875 102.242188 88.542969 L 101.320312 83.585938 L 103.835938 83.082031 C 103.835938 83.082031 104.753906 88.039062 104.753906 88.039062 C 104.921875 88.964844 105.84375 89.550781 106.683594 89.382812 C 107.605469 89.214844 108.191406 88.375 108.023438 87.453125 L 107.101562 82.492188 L 109.613281 81.988281 C 109.613281 81.988281 110.535156 86.949219 110.535156 86.949219 C 110.703125 87.789062 111.625 88.460938 112.460938 88.292969 C 113.382812 88.125 113.96875 87.285156 113.804688 86.359375 L 112.546875 79.71875 C 112.378906 78.796875 111.542969 78.207031 110.621094 78.375 C 110.621094 78.375 99.058594 80.558594 99.058594 80.558594 C 98.222656 80.726562 97.550781 81.652344 97.71875 82.492188 C 97.71875 82.492188 98.976562 89.132812 98.976562 89.132812 C 99.058594 89.972656 99.980469 90.5625 100.902344 90.476562 Z M 100.902344 90.476562 " fill-opacity="1" fill-rule="nonzero"/><path fill="#000000" d="M 116.230469 99.636719 C 116.066406 98.714844 115.226562 98.125 114.304688 98.207031 L 108.777344 99.132812 L 114.390625 94.59375 C 114.976562 94.089844 115.144531 93.25 114.808594 92.578125 C 114.472656 91.90625 113.71875 91.484375 112.964844 91.652344 L 101.40625 93.839844 C 100.484375 94.007812 99.898438 94.847656 100.066406 95.773438 C 100.230469 96.695312 101.070312 97.285156 101.992188 97.117188 L 107.101562 96.191406 L 101.738281 100.5625 C 101.152344 101.066406 100.984375 101.824219 101.238281 102.578125 C 101.574219 103.25 102.328125 103.671875 102.996094 103.585938 L 114.640625 101.738281 C 115.730469 101.488281 116.316406 100.5625 116.230469 99.636719 Z M 116.230469 99.636719 " fill-opacity="1" fill-rule="nonzero"/><path fill="#000000" d="M 117.488281 106.277344 C 117.320312 105.351562 116.484375 104.765625 115.5625 104.933594 C 114.640625 105.101562 114.054688 105.941406 114.222656 106.863281 L 114.558594 108.546875 L 104.589844 110.394531 C 103.667969 110.5625 103.082031 111.402344 103.246094 112.328125 C 103.414062 113.167969 104.335938 113.839844 105.175781 113.671875 L 115.144531 111.824219 C 115.144531 111.824219 115.476562 113.503906 115.476562 113.503906 C 115.644531 114.34375 116.566406 115.015625 117.40625 114.847656 C 118.328125 114.679688 118.914062 113.839844 118.746094 112.914062 Z M 117.488281 106.277344 " fill-opacity="1" fill-rule="nonzero"/></svg>