<svg xmlns="http://www.w3.org/2000/svg" xmlns:xlink="http://www.w3.org/1999/xlink" width="200" zoomAndPan="magnify" viewBox="0 0 150 149.999998" height="200" preserveAspectRatio="xMidYMid meet" version="1.0"><defs><clipPath id="dcc99654a2"><path d="M 18.882812 18.882812 L 131.117188 18.882812 L 131.117188 131.117188 L 18.882812 131.117188 Z M 18.882812 18.882812 " clip-rule="nonzero"/></clipPath><clipPath id="952b32e748"><path d="M 75 18.882812 C 44.007812 18.882812 18.882812 44.007812 18.882812 75 C 18.882812 105.992188 44.007812 131.117188 75 131.117188 C 105.992188 131.117188 131.117188 105.992188 131.117188 75 C 131.117188 44.007812 105.992188 18.882812 75 18.882812 " clip-rule="nonzero"/></clipPath><clipPath id="ee1b82bde5"><path d="M 42 71 L 131.25 71 L 131.25 121 L 42 121 Z M 42 71 " clip-rule="nonzero"/></clipPath><clipPath id="cbbe91b694"><path d="M 93 94 L 109 94 L 109 135.324219 L 93 135.324219 Z M 93 94 " clip-rule="nonzero"/></clipPath><clipPath id="97fe977f20"><path d="M 74 132 L 128 132 L 128 135.324219 L 74 135.324219 Z M 74 132 " clip-rule="nonzero"/></clipPath><clipPath id="66a063e96d"><path d="M 45 22.074219 L 49 22.074219 L 49 33 L 45 33 Z M 45 22.074219 " clip-rule="nonzero"/></clipPath></defs><g clip-path="url(#dcc99654a2)"><g clip-path="url(#952b32e748)"><path fill="#fcc521" d="M 18.882812 18.882812 L 131.117188 18.882812 L 131.117188 131.117188 L 18.882812 131.117188 Z M 18.882812 18.882812 " fill-opacity="1" fill-rule="nonzero"/></g></g><g clip-path="url(#ee1b82bde5)"><path fill="#000000" d="M 126.503906 73.859375 L 89.457031 73.859375 L 60.21875 95.390625 L 46.730469 105.320312 L 83.847656 117.710938 L 95.441406 105.792969 Z M 89.015625 71.136719 L 129.722656 71.136719 C 130.066406 71.136719 130.40625 71.261719 130.671875 71.523438 C 131.210938 72.046875 131.21875 72.910156 130.695312 73.449219 L 130.695312 73.445312 L 97.382812 107.6875 L 85.269531 120.140625 C 84.921875 120.558594 84.34375 120.742188 83.796875 120.5625 L 83.800781 120.554688 L 43.511719 107.101562 C 43.207031 107.03125 42.925781 106.855469 42.722656 106.582031 C 42.28125 105.976562 42.410156 105.125 43.015625 104.679688 L 43.820312 105.777344 L 43.019531 104.679688 L 58.613281 93.195312 L 88.140625 71.457031 C 88.375 71.253906 88.683594 71.136719 89.015625 71.136719 Z M 89.015625 71.136719 " fill-opacity="1" fill-rule="nonzero"/></g><g clip-path="url(#cbbe91b694)"><path fill="#000000" d="M 96.0625 108.5 C 96.0625 107.746094 95.453125 107.136719 94.703125 107.136719 C 93.953125 107.136719 93.34375 107.746094 93.34375 108.5 L 93.34375 133.960938 C 93.34375 134.710938 93.953125 135.320312 94.703125 135.320312 C 95.453125 135.320312 96.0625 134.710938 96.0625 133.960938 Z M 105.914062 133.960938 C 105.914062 134.710938 106.523438 135.320312 107.273438 135.320312 C 108.023438 135.320312 108.632812 134.710938 108.632812 133.960938 L 108.632812 95.574219 C 108.632812 94.824219 108.023438 94.210938 107.273438 94.210938 C 106.523438 94.210938 105.914062 94.824219 105.914062 95.574219 Z M 105.914062 133.960938 " fill-opacity="1" fill-rule="nonzero"/></g><g clip-path="url(#97fe977f20)"><path fill="#000000" d="M 75.996094 132.597656 C 75.246094 132.597656 74.636719 133.207031 74.636719 133.960938 C 74.636719 134.710938 75.246094 135.320312 75.996094 135.320312 L 125.980469 135.320312 C 126.730469 135.320312 127.339844 134.710938 127.339844 133.960938 C 127.339844 133.207031 126.730469 132.597656 125.980469 132.597656 Z M 75.996094 132.597656 " fill-opacity="1" fill-rule="nonzero"/></g><path fill="#000000" d="M 105.722656 73.53125 C 106.289062 73.042969 106.355469 72.183594 105.871094 71.613281 C 105.382812 71.042969 104.527344 70.976562 103.957031 71.464844 L 58.964844 110.09375 C 58.394531 110.582031 58.328125 111.441406 58.816406 112.011719 C 59.300781 112.582031 60.15625 112.648438 60.726562 112.160156 Z M 105.722656 73.53125 " fill-opacity="1" fill-rule="nonzero"/><path fill="#000000" d="M 59.78125 92.984375 C 59.0625 92.78125 58.3125 93.203125 58.109375 93.925781 C 57.90625 94.648438 58.328125 95.398438 59.050781 95.601562 L 97.59375 106.460938 C 98.3125 106.664062 99.0625 106.242188 99.265625 105.519531 C 99.46875 104.796875 99.046875 104.042969 98.324219 103.84375 Z M 59.78125 92.984375 " fill-opacity="1" fill-rule="nonzero"/><path fill="#000000" d="M 71.484375 84.273438 C 70.75 84.125 70.035156 84.601562 69.890625 85.335938 C 69.742188 86.070312 70.21875 86.785156 70.953125 86.933594 L 109.222656 94.628906 C 109.957031 94.773438 110.671875 94.296875 110.816406 93.5625 C 110.964844 92.828125 110.488281 92.113281 109.753906 91.964844 Z M 71.484375 84.273438 " fill-opacity="1" fill-rule="nonzero"/><path fill="#000000" d="M 79.332031 78.355469 C 78.582031 78.292969 77.925781 78.851562 77.863281 79.601562 C 77.800781 80.347656 78.359375 81.007812 79.105469 81.070312 L 119.265625 84.492188 C 120.011719 84.554688 120.667969 83.996094 120.730469 83.246094 C 120.792969 82.496094 120.234375 81.839844 119.488281 81.777344 Z M 79.332031 78.355469 " fill-opacity="1" fill-rule="nonzero"/><path fill="#000000" d="M 46.921875 36.507812 C 51.75 36.507812 56.121094 38.46875 59.285156 41.636719 C 62.445312 44.804688 64.402344 49.183594 64.402344 54.019531 C 64.402344 58.855469 62.445312 63.234375 59.285156 66.402344 C 56.121094 69.570312 51.75 71.53125 46.921875 71.53125 C 42.09375 71.53125 37.722656 69.570312 34.558594 66.402344 C 31.394531 63.234375 29.4375 58.855469 29.4375 54.019531 C 29.4375 49.183594 31.394531 44.804688 34.558594 41.636719 C 37.722656 38.46875 42.09375 36.507812 46.921875 36.507812 Z M 57.359375 43.5625 C 54.6875 40.886719 50.996094 39.234375 46.921875 39.234375 C 42.84375 39.234375 39.152344 40.886719 36.484375 43.5625 C 33.8125 46.238281 32.160156 49.9375 32.160156 54.019531 C 32.160156 58.101562 33.8125 61.800781 36.484375 64.476562 C 39.152344 67.152344 42.84375 68.808594 46.921875 68.808594 C 50.996094 68.808594 54.6875 67.152344 57.359375 64.476562 C 60.03125 61.800781 61.683594 58.101562 61.683594 54.019531 C 61.683594 49.9375 60.03125 46.238281 57.359375 43.5625 Z M 57.359375 43.5625 " fill-opacity="1" fill-rule="nonzero"/><g clip-path="url(#66a063e96d)"><path fill="#000000" d="M 48.28125 23.4375 C 48.28125 22.6875 47.671875 22.078125 46.921875 22.078125 C 46.171875 22.078125 45.5625 22.6875 45.5625 23.4375 L 45.5625 31.34375 C 45.5625 32.09375 46.171875 32.703125 46.921875 32.703125 C 47.671875 32.703125 48.28125 32.09375 48.28125 31.34375 Z M 48.28125 23.4375 " fill-opacity="1" fill-rule="nonzero"/></g><path fill="#000000" d="M 69.472656 33.359375 C 70 32.828125 70 31.964844 69.472656 31.433594 C 68.941406 30.902344 68.078125 30.902344 67.546875 31.433594 L 61.96875 37.019531 C 61.4375 37.554688 61.4375 38.414062 61.96875 38.949219 C 62.5 39.480469 63.359375 39.480469 63.890625 38.949219 Z M 69.472656 33.359375 " fill-opacity="1" fill-rule="nonzero"/><path fill="#000000" d="M 77.449219 55.382812 C 78.203125 55.382812 78.8125 54.773438 78.8125 54.019531 C 78.8125 53.269531 78.203125 52.65625 77.449219 52.65625 L 69.5625 52.65625 C 68.808594 52.65625 68.203125 53.269531 68.203125 54.019531 C 68.203125 54.773438 68.808594 55.382812 69.5625 55.382812 Z M 77.449219 55.382812 " fill-opacity="1" fill-rule="nonzero"/><path fill="#000000" d="M 67.546875 76.609375 C 68.078125 77.140625 68.941406 77.140625 69.46875 76.609375 C 70 76.074219 70 75.214844 69.46875 74.679688 L 63.890625 69.09375 C 63.359375 68.5625 62.5 68.5625 61.96875 69.09375 C 61.4375 69.625 61.4375 70.488281 61.96875 71.019531 Z M 67.546875 76.609375 " fill-opacity="1" fill-rule="nonzero"/><path fill="#000000" d="M 45.5625 84.601562 C 45.5625 85.355469 46.171875 85.964844 46.921875 85.964844 C 47.671875 85.964844 48.28125 85.355469 48.28125 84.601562 L 48.28125 76.699219 C 48.28125 75.945312 47.671875 75.335938 46.921875 75.335938 C 46.171875 75.335938 45.5625 75.945312 45.5625 76.699219 Z M 45.5625 84.601562 " fill-opacity="1" fill-rule="nonzero"/><path fill="#000000" d="M 24.371094 74.679688 C 23.839844 75.210938 23.839844 76.074219 24.371094 76.605469 C 24.902344 77.140625 25.765625 77.140625 26.296875 76.605469 L 31.875 71.019531 C 32.40625 70.488281 32.40625 69.625 31.875 69.09375 C 31.34375 68.5625 30.480469 68.5625 29.949219 69.09375 Z M 24.371094 74.679688 " fill-opacity="1" fill-rule="nonzero"/><path fill="#000000" d="M 16.390625 52.65625 C 15.640625 52.65625 15.03125 53.269531 15.03125 54.019531 C 15.03125 54.773438 15.640625 55.382812 16.390625 55.382812 L 24.28125 55.382812 C 25.03125 55.382812 25.640625 54.773438 25.640625 54.019531 C 25.640625 53.269531 25.03125 52.65625 24.28125 52.65625 Z M 16.390625 52.65625 " fill-opacity="1" fill-rule="nonzero"/><path fill="#000000" d="M 26.296875 31.433594 C 25.765625 30.902344 24.902344 30.902344 24.371094 31.433594 C 23.839844 31.964844 23.839844 32.828125 24.371094 33.359375 L 29.949219 38.949219 C 30.480469 39.480469 31.34375 39.480469 31.875 38.949219 C 32.40625 38.414062 32.40625 37.550781 31.875 37.019531 Z M 26.296875 31.433594 " fill-opacity="1" fill-rule="nonzero"/></svg>