<svg xmlns="http://www.w3.org/2000/svg" xmlns:xlink="http://www.w3.org/1999/xlink" width="200" zoomAndPan="magnify" viewBox="0 0 150 149.999998" height="200" preserveAspectRatio="xMidYMid meet" version="1.0"><defs><clipPath id="32c7fac480"><path d="M 18.882812 18.882812 L 131.117188 18.882812 L 131.117188 131.117188 L 18.882812 131.117188 Z M 18.882812 18.882812 " clip-rule="nonzero"/></clipPath><clipPath id="da9a11b06c"><path d="M 75 18.882812 C 44.007812 18.882812 18.882812 44.007812 18.882812 75 C 18.882812 105.992188 44.007812 131.117188 75 131.117188 C 105.992188 131.117188 131.117188 105.992188 131.117188 75 C 131.117188 44.007812 105.992188 18.882812 75 18.882812 " clip-rule="nonzero"/></clipPath><clipPath id="096c55994c"><path d="M 58 60.398438 L 128.539062 60.398438 L 128.539062 130.9375 L 58 130.9375 Z M 58 60.398438 " clip-rule="nonzero"/></clipPath><clipPath id="c35e9404c7"><path d="M 24.441406 27.4375 L 71 27.4375 L 71 74 L 24.441406 74 Z M 24.441406 27.4375 " clip-rule="nonzero"/></clipPath></defs><g clip-path="url(#32c7fac480)"><g clip-path="url(#da9a11b06c)"><path fill="#fcc521" d="M 18.882812 18.882812 L 131.117188 18.882812 L 131.117188 131.117188 L 18.882812 131.117188 Z M 18.882812 18.882812 " fill-opacity="1" fill-rule="nonzero"/></g></g><g clip-path="url(#096c55994c)"><path fill="#212121" d="M 106.085938 61.203125 C 106.941406 61.898438 107.765625 62.597656 108.554688 63.308594 C 109.421875 64.089844 110.25 64.871094 111.035156 65.65625 C 119.707031 74.316406 125.242188 84.734375 127.449219 95.097656 C 129.722656 105.777344 128.46875 116.417969 123.484375 125.097656 L 121.605469 124.023438 L 123.484375 125.101562 C 123.265625 125.480469 122.949219 125.769531 122.585938 125.953125 C 114.175781 130.738281 103.941406 132.046875 93.617188 130.054688 L 93.617188 125.648438 C 103.042969 127.636719 112.382812 126.625 120.015625 122.4375 C 124.21875 114.789062 125.226562 105.433594 123.21875 95.996094 C 121.179688 86.421875 116.039062 76.773438 107.972656 68.714844 C 107.1875 67.929688 106.417969 67.199219 105.660156 66.519531 C 105.265625 66.164062 104.871094 65.820312 104.480469 65.484375 L 93.617188 72.960938 L 93.617188 67.722656 L 103.378906 61.003906 L 104.605469 62.78125 L 103.375 61 C 104.230469 60.410156 105.359375 60.519531 106.085938 61.203125 Z M 93.617188 130.054688 C 93.296875 129.996094 92.976562 129.929688 92.652344 129.859375 C 82.277344 127.65625 71.855469 122.125 63.183594 113.464844 C 62.398438 112.679688 61.613281 111.851562 60.835938 110.984375 C 60.089844 110.15625 59.351562 109.292969 58.625 108.394531 L 58.621094 108.398438 C 57.957031 107.574219 57.992188 106.414062 58.65625 105.640625 L 73.585938 84.355469 L 75.355469 85.585938 L 73.582031 84.347656 C 73.664062 84.230469 73.757812 84.121094 73.855469 84.027344 L 82.425781 75.460938 C 82.5625 75.324219 82.714844 75.210938 82.878906 75.117188 L 93.617188 67.722656 L 93.617188 72.960938 L 85.375 78.636719 L 76.984375 87.019531 L 63.019531 106.925781 C 63.351562 107.3125 63.695312 107.703125 64.046875 108.09375 C 64.730469 108.851562 65.460938 109.621094 66.246094 110.40625 C 74.3125 118.464844 83.96875 123.597656 93.550781 125.636719 L 93.617188 125.648438 L 93.617188 130.054688 " fill-opacity="1" fill-rule="nonzero"/></g><path fill="#212121" d="M 90.714844 95.542969 C 91.5625 96.390625 92.933594 96.390625 93.777344 95.542969 C 94.625 94.699219 94.625 93.328125 93.777344 92.484375 L 66.636719 65.367188 C 65.789062 64.523438 64.417969 64.523438 63.574219 65.367188 C 62.726562 66.210938 62.726562 67.582031 63.574219 68.425781 L 90.714844 95.542969 " fill-opacity="1" fill-rule="nonzero"/><g clip-path="url(#c35e9404c7)"><path fill="#212121" d="M 47.632812 33.859375 L 68.632812 54.839844 C 69.988281 56.191406 70.664062 57.972656 70.664062 59.753906 C 70.664062 61.53125 69.988281 63.3125 68.632812 64.664062 L 61.859375 71.429688 C 60.503906 72.785156 58.722656 73.460938 56.945312 73.460938 L 56.945312 73.453125 C 55.15625 73.453125 53.375 72.777344 52.027344 71.429688 L 47.632812 67.039062 L 47.632812 60.921875 L 55.089844 68.371094 C 55.601562 68.882812 56.273438 69.140625 56.945312 69.140625 L 56.945312 69.132812 C 57.617188 69.132812 58.289062 68.878906 58.796875 68.371094 L 65.570312 61.605469 C 66.078125 61.097656 66.332031 60.425781 66.332031 59.753906 C 66.332031 59.078125 66.078125 58.40625 65.570312 57.898438 L 47.632812 39.976562 Z M 26.628906 36.234375 L 33.402344 29.46875 C 34.757812 28.113281 36.539062 27.4375 38.320312 27.4375 C 40.101562 27.4375 41.882812 28.113281 43.238281 29.46875 L 47.632812 33.859375 L 47.632812 39.976562 L 40.175781 32.527344 C 39.667969 32.019531 38.992188 31.765625 38.320312 31.765625 C 37.644531 31.765625 36.972656 32.019531 36.464844 32.527344 L 29.691406 39.292969 C 29.183594 39.800781 28.929688 40.472656 28.929688 41.144531 C 28.929688 41.820312 29.183594 42.492188 29.691406 43 L 47.632812 60.921875 L 47.632812 67.039062 L 26.628906 46.058594 C 25.277344 44.707031 24.597656 42.925781 24.597656 41.144531 C 24.597656 39.367188 25.277344 37.585938 26.628906 36.234375 " fill-opacity="1" fill-rule="nonzero"/></g><path fill="#212121" d="M 51.019531 64.222656 C 50.175781 65.066406 50.175781 66.4375 51.019531 67.28125 C 51.867188 68.125 53.238281 68.125 54.082031 67.28125 L 64.296875 57.078125 C 65.144531 56.230469 65.144531 54.863281 64.296875 54.015625 C 63.449219 53.171875 62.082031 53.171875 61.234375 54.015625 L 51.019531 64.222656 " fill-opacity="1" fill-rule="nonzero"/></svg>