<svg xmlns="http://www.w3.org/2000/svg" xmlns:xlink="http://www.w3.org/1999/xlink" width="100" zoomAndPan="magnify" viewBox="0 0 75 74.999997" height="100" preserveAspectRatio="xMidYMid meet" version="1.0"><defs><clipPath id="964340fc1b"><path d="M 0.347656 15 L 39 15 L 39 75 L 0.347656 75 Z M 0.347656 15 " clip-rule="nonzero"/></clipPath><clipPath id="010c9d8881"><path d="M 37 31 L 74.597656 31 L 74.597656 66 L 37 66 Z M 37 31 " clip-rule="nonzero"/></clipPath></defs><g clip-path="url(#964340fc1b)"><path fill="#231f20" d="M 15.152344 42.460938 L 2.851562 70.242188 C 2.722656 70.546875 2.421875 70.746094 2.085938 70.746094 C 1.972656 70.746094 1.863281 70.722656 1.761719 70.679688 C 1.335938 70.5 1.140625 70.007812 1.316406 69.585938 L 13.621094 41.804688 C 13.75 41.5 14.050781 41.300781 14.386719 41.300781 C 14.5 41.300781 14.609375 41.324219 14.710938 41.367188 C 14.917969 41.453125 15.078125 41.617188 15.160156 41.820312 C 15.242188 42.027344 15.242188 42.257812 15.152344 42.460938 Z M 37.976562 34.335938 L 29.210938 26.644531 C 29.015625 26.769531 28.808594 26.886719 28.589844 26.980469 C 28.0625 27.203125 27.507812 27.320312 26.941406 27.320312 C 25.261719 27.320312 23.753906 26.320312 23.089844 24.777344 C 22.183594 22.652344 23.171875 20.183594 25.292969 19.273438 C 25.820312 19.050781 26.371094 18.9375 26.941406 18.9375 C 28.617188 18.9375 30.128906 19.933594 30.789062 21.480469 C 31.226562 22.496094 31.242188 23.621094 30.839844 24.652344 L 38.644531 31.503906 C 38.988281 28.9375 38.636719 26.316406 37.589844 23.875 C 35.292969 18.503906 30.039062 15.03125 24.199219 15.03125 C 22.230469 15.03125 20.304688 15.429688 18.476562 16.210938 C 14.902344 17.742188 12.136719 20.574219 10.691406 24.183594 C 9.242188 27.796875 9.289062 31.757812 10.820312 35.335938 C 11.519531 36.972656 12.503906 38.453125 13.742188 39.734375 L 13.957031 39.957031 L 13.757812 40.195312 L 13.726562 40.230469 L 1.265625 67.875 C 1.191406 68.015625 1.152344 68.148438 1.132812 68.285156 L 0.417969 73.582031 C 0.355469 74.042969 0.566406 74.503906 0.957031 74.757812 C 0.988281 74.777344 1.019531 74.796875 1.054688 74.8125 C 1.308594 74.945312 1.613281 74.980469 1.894531 74.910156 L 1.929688 74.902344 L 16.144531 42.808594 C 16.386719 42.234375 16.949219 41.859375 17.578125 41.859375 C 17.785156 41.859375 17.992188 41.902344 18.183594 41.984375 C 18.976562 42.320312 19.347656 43.238281 19.011719 44.03125 L 17.710938 46.972656 C 17.742188 46.933594 17.773438 46.894531 17.804688 46.859375 C 17.992188 46.664062 18.253906 46.566406 18.609375 46.566406 C 18.867188 46.566406 19.148438 46.617188 19.417969 46.667969 C 19.664062 46.714844 19.898438 46.753906 20.089844 46.753906 C 20.214844 46.753906 20.300781 46.738281 20.347656 46.699219 L 21.765625 43.964844 L 22.007812 44.003906 C 22.738281 44.117188 23.480469 44.171875 24.21875 44.171875 C 26.1875 44.171875 28.109375 43.777344 29.933594 42.996094 C 33.507812 41.46875 36.273438 38.636719 37.71875 35.023438 C 37.8125 34.796875 37.894531 34.566406 37.976562 34.335938 " fill-opacity="1" fill-rule="nonzero"/></g><path fill="#231f20" d="M 17.070312 48.425781 L 6.460938 72.378906 C 6.585938 72.328125 6.714844 72.28125 6.835938 72.234375 C 7.765625 71.882812 8.503906 71.601562 8.6875 71.246094 C 8.867188 70.898438 8.859375 70.1875 8.660156 69.398438 L 8.628906 69.269531 L 8.867188 68.8125 L 9.046875 68.789062 C 9.675781 68.714844 10.113281 68.5 10.277344 68.1875 C 10.457031 67.835938 10.445312 67.128906 10.25 66.335938 L 10.21875 66.210938 L 10.457031 65.75 L 10.636719 65.730469 C 11 65.683594 11.644531 65.550781 11.863281 65.125 C 12.046875 64.777344 12.035156 64.066406 11.839844 63.277344 L 11.804688 63.148438 L 12.042969 62.691406 L 12.226562 62.667969 C 12.855469 62.59375 13.289062 62.378906 13.453125 62.066406 C 13.636719 61.714844 13.625 61.007812 13.425781 60.214844 L 13.394531 60.089844 L 13.632812 59.628906 L 13.8125 59.609375 C 14.445312 59.53125 14.878906 59.320312 15.042969 59.003906 C 15.222656 58.65625 15.214844 57.945312 15.015625 57.15625 L 14.984375 57.027344 L 15.222656 56.570312 L 15.402344 56.546875 C 16.03125 56.472656 16.46875 56.257812 16.632812 55.945312 C 16.8125 55.59375 16.800781 54.886719 16.605469 54.09375 L 16.570312 53.96875 L 16.808594 53.507812 L 16.992188 53.488281 C 17.621094 53.410156 18.058594 53.199219 18.21875 52.882812 C 18.25 52.828125 18.273438 52.757812 18.296875 52.675781 C 18.179688 52.464844 18.082031 52.285156 17.992188 52.109375 C 17.242188 50.632812 16.9375 49.414062 17.070312 48.425781 " fill-opacity="1" fill-rule="nonzero"/><path fill="#231f20" d="M 14.445312 42 L 14.386719 41.988281 C 14.328125 41.988281 14.277344 42.023438 14.253906 42.078125 L 1.949219 69.859375 C 1.921875 69.929688 1.957031 70.015625 2.027344 70.046875 C 2.101562 70.074219 2.1875 70.039062 2.21875 69.96875 L 14.523438 42.1875 C 14.539062 42.144531 14.53125 42.101562 14.523438 42.082031 C 14.511719 42.058594 14.492188 42.023438 14.445312 42 " fill-opacity="1" fill-rule="nonzero"/><path fill="#231f20" d="M 17.917969 42.621094 C 17.808594 42.574219 17.695312 42.550781 17.578125 42.550781 C 17.226562 42.550781 16.910156 42.757812 16.773438 43.082031 L 2.933594 74.335938 L 5.34375 72.832031 C 5.410156 72.800781 5.476562 72.773438 5.542969 72.746094 L 18.382812 43.757812 C 18.566406 43.320312 18.359375 42.808594 17.917969 42.621094 " fill-opacity="1" fill-rule="nonzero"/><g clip-path="url(#010c9d8881)"><path fill="#231f20" d="M 68.492188 54.972656 L 66.476562 53.242188 L 61.441406 59.125 L 60.582031 58.386719 L 65.613281 52.503906 L 63.605469 50.785156 L 64.226562 50.058594 L 69.113281 54.246094 Z M 56.976562 55.296875 L 57.75 50.148438 C 57.917969 49.019531 58.121094 47.886719 58.410156 46.894531 L 58.375 46.878906 C 57.710938 47.753906 57.039062 48.558594 56.101562 49.652344 L 53.6875 52.476562 L 52.882812 51.789062 L 58.535156 45.183594 L 59.476562 45.988281 L 58.722656 51.136719 C 58.539062 52.320312 58.335938 53.351562 58.058594 54.289062 L 58.097656 54.304688 C 58.773438 53.355469 59.441406 52.535156 60.324219 51.507812 L 62.6875 48.742188 L 63.492188 49.429688 L 57.839844 56.035156 Z M 51.777344 50.839844 L 48.054688 47.652344 L 53.707031 41.046875 L 57.28125 44.109375 L 56.671875 44.824219 L 53.957031 42.5 L 52.171875 44.585938 L 54.726562 46.777344 L 54.125 47.484375 L 51.566406 45.292969 L 49.527344 47.675781 L 52.386719 50.125 Z M 46.214844 46.074219 C 46.273438 45.785156 46.605469 45.101562 47.132812 44.128906 C 47.714844 43.046875 47.648438 42.394531 46.898438 41.703125 L 46.097656 41.015625 L 43.648438 43.875 L 42.796875 43.144531 L 48.371094 36.628906 C 48.871094 36.917969 49.546875 37.398438 50.125 37.894531 C 51.035156 38.671875 51.484375 39.359375 51.574219 40.066406 C 51.644531 40.640625 51.457031 41.257812 51.011719 41.777344 C 50.273438 42.640625 49.230469 42.746094 48.34375 42.394531 L 48.316406 42.425781 C 48.667969 43.027344 48.566406 43.761719 48.136719 44.582031 C 47.5625 45.6875 47.175781 46.457031 47.09375 46.828125 Z M 74.554688 55.710938 C 74.503906 55.007812 74.179688 54.371094 73.644531 53.917969 L 48.078125 32.007812 C 47.601562 31.601562 46.996094 31.375 46.371094 31.375 C 45.601562 31.375 44.875 31.710938 44.375 32.292969 L 42.304688 34.714844 L 44.28125 36.453125 C 44.539062 36.679688 44.695312 36.992188 44.71875 37.335938 C 44.738281 37.679688 44.628906 38.007812 44.402344 38.269531 C 44.15625 38.546875 43.804688 38.703125 43.433594 38.703125 C 43.121094 38.703125 42.820312 38.59375 42.585938 38.386719 L 40.632812 36.667969 L 38.019531 39.722656 C 37.074219 40.824219 37.207031 42.484375 38.304688 43.429688 L 63.871094 65.335938 C 64.347656 65.742188 64.953125 65.96875 65.578125 65.96875 C 66.347656 65.96875 67.074219 65.632812 67.574219 65.050781 L 73.933594 57.621094 C 74.386719 57.085938 74.609375 56.410156 74.554688 55.710938 " fill-opacity="1" fill-rule="nonzero"/></g><path fill="#231f20" d="M 50.085938 41.136719 C 50.8125 40.28125 50.515625 39.382812 49.613281 38.609375 C 49.203125 38.257812 48.894531 38.042969 48.714844 37.957031 L 46.648438 40.367188 L 47.523438 41.113281 C 48.433594 41.894531 49.4375 41.890625 50.085938 41.136719 " fill-opacity="1" fill-rule="nonzero"/><path fill="#231f20" d="M 28.515625 23.726562 C 28.34375 23.726562 28.183594 23.800781 28.070312 23.929688 C 27.851562 24.179688 27.878906 24.554688 28.125 24.773438 L 43.039062 37.867188 C 43.28125 38.078125 43.675781 38.050781 43.882812 37.8125 C 43.988281 37.695312 44.039062 37.539062 44.03125 37.378906 C 44.019531 37.222656 43.945312 37.074219 43.828125 36.972656 L 28.910156 23.875 C 28.800781 23.78125 28.660156 23.726562 28.515625 23.726562 " fill-opacity="1" fill-rule="nonzero"/></svg>