<svg xmlns="http://www.w3.org/2000/svg" xmlns:xlink="http://www.w3.org/1999/xlink" width="100" zoomAndPan="magnify" viewBox="0 0 75 74.999997" height="100" preserveAspectRatio="xMidYMid meet" version="1.0"><defs><clipPath id="3c76379691"><path d="M 1.023438 20.285156 L 73.773438 20.285156 L 73.773438 75 L 1.023438 75 Z M 1.023438 20.285156 " clip-rule="nonzero"/></clipPath></defs><g clip-path="url(#3c76379691)"><path fill="#000000" d="M 66.195312 41.574219 L 60.757812 41.574219 L 43.015625 23.769531 C 42.941406 23.699219 42.851562 23.660156 42.765625 23.605469 C 41.761719 21.644531 39.742188 20.285156 37.398438 20.285156 C 35.050781 20.285156 33.03125 21.644531 32.027344 23.605469 C 31.945312 23.660156 31.855469 23.699219 31.777344 23.769531 L 14.035156 41.574219 L 8.601562 41.574219 C 4.421875 41.574219 1.023438 44.988281 1.023438 49.179688 L 1.023438 67.429688 C 1.023438 71.621094 4.421875 75.03125 8.601562 75.03125 L 66.195312 75.03125 C 70.375 75.03125 73.773438 71.621094 73.773438 67.429688 L 73.773438 49.179688 C 73.773438 44.988281 70.375 41.574219 66.195312 41.574219 Z M 31.648438 28.207031 C 32.429688 30.660156 34.695312 32.453125 37.398438 32.453125 C 40.097656 32.453125 42.367188 30.660156 43.148438 28.207031 L 56.472656 41.574219 L 18.320312 41.574219 Z M 18.859375 66.457031 C 19.394531 67.101562 19.308594 68.0625 18.667969 68.601562 C 18.382812 68.835938 18.039062 68.953125 17.699219 68.953125 C 17.265625 68.953125 16.832031 68.765625 16.535156 68.40625 L 10.117188 60.679688 L 10.117188 67.429688 C 10.117188 68.269531 9.4375 68.949219 8.601562 68.949219 C 7.765625 68.949219 7.085938 68.269531 7.085938 67.429688 L 7.085938 49.179688 C 7.085938 48.339844 7.765625 47.660156 8.601562 47.660156 L 13.148438 47.660156 C 16.492188 47.660156 19.210938 50.386719 19.210938 53.742188 C 19.210938 57.03125 16.601562 59.714844 13.347656 59.820312 Z M 29.820312 56.785156 C 30.65625 56.785156 31.335938 57.464844 31.335938 58.304688 C 31.335938 59.144531 30.65625 59.824219 29.820312 59.824219 L 25.273438 59.824219 L 25.273438 65.90625 L 32.851562 65.90625 C 33.6875 65.90625 34.367188 66.589844 34.367188 67.429688 C 34.367188 68.269531 33.6875 68.949219 32.851562 68.949219 L 23.757812 68.949219 C 22.921875 68.949219 22.242188 68.269531 22.242188 67.429688 L 22.242188 49.179688 C 22.242188 48.339844 22.921875 47.660156 23.757812 47.660156 L 32.851562 47.660156 C 33.6875 47.660156 34.367188 48.339844 34.367188 49.179688 C 34.367188 50.019531 33.6875 50.699219 32.851562 50.699219 L 25.273438 50.699219 L 25.273438 56.785156 Z M 49.527344 67.429688 C 49.523438 68.132812 49.039062 68.75 48.355469 68.910156 C 48.238281 68.9375 48.121094 68.949219 48.007812 68.949219 C 47.441406 68.949219 46.914062 68.632812 46.652344 68.109375 L 40.429688 55.621094 L 40.429688 67.429688 C 40.429688 68.269531 39.75 68.949219 38.914062 68.949219 C 38.078125 68.949219 37.398438 68.269531 37.398438 67.429688 L 37.398438 49.179688 C 37.398438 48.472656 37.878906 47.859375 38.566406 47.699219 C 39.261719 47.539062 39.957031 47.867188 40.269531 48.5 L 46.496094 60.984375 L 46.496094 49.175781 C 46.496094 48.335938 47.171875 47.65625 48.011719 47.65625 C 48.847656 47.65625 49.527344 48.335938 49.527344 49.175781 Z M 66.195312 50.699219 L 61.648438 50.699219 L 61.648438 67.429688 C 61.648438 68.269531 60.96875 68.949219 60.132812 68.949219 C 59.296875 68.949219 58.617188 68.269531 58.617188 67.429688 L 58.617188 50.699219 L 54.070312 50.699219 C 53.234375 50.699219 52.554688 50.019531 52.554688 49.179688 C 52.554688 48.339844 53.234375 47.660156 54.070312 47.660156 L 66.195312 47.660156 C 67.03125 47.660156 67.710938 48.339844 67.710938 49.179688 C 67.710938 50.019531 67.03125 50.699219 66.195312 50.699219 Z M 13.148438 50.699219 L 10.117188 50.699219 L 10.117188 56.785156 L 13.148438 56.785156 C 14.820312 56.785156 16.179688 55.417969 16.179688 53.742188 C 16.179688 52.066406 14.820312 50.699219 13.148438 50.699219 Z M 13.148438 50.699219 " fill-opacity="1" fill-rule="nonzero"/></g></svg>