<svg xmlns="http://www.w3.org/2000/svg" xmlns:xlink="http://www.w3.org/1999/xlink" width="100" zoomAndPan="magnify" viewBox="0 0 75 74.999997" height="100" preserveAspectRatio="xMidYMid meet" version="1.0"><defs><clipPath id="6cc7f59e15"><path d="M 2 3 L 73.539062 3 L 73.539062 74.871094 L 2 74.871094 Z M 2 3 " clip-rule="nonzero"/></clipPath></defs><g clip-path="url(#6cc7f59e15)"><path fill="#000000" d="M 73.078125 47.140625 L 41.507812 15.515625 C 41.359375 15.367188 41.167969 15.257812 40.949219 15.207031 L 22.441406 11.035156 C 22.050781 10.917969 21.601562 11.015625 21.292969 11.324219 C 20.574219 12.046875 19.851562 12.765625 19.136719 13.484375 C 18.871094 13.175781 18.597656 12.867188 18.324219 12.558594 C 17.757812 11.925781 17.171875 11.304688 16.597656 10.730469 C 15.273438 9.402344 13.925781 8.207031 12.625 7.179688 L 12.539062 7.109375 C 10.742188 5.699219 9.035156 4.617188 7.582031 3.953125 C 5.445312 2.976562 3.691406 2.878906 2.691406 3.878906 L 2.691406 3.882812 C 1.535156 5.042969 1.882812 7.289062 3.378906 9.980469 C 4.664062 12.296875 6.816406 15.085938 9.523438 17.800781 C 10.441406 18.71875 11.367188 19.574219 12.28125 20.351562 C 11.566406 21.074219 10.84375 21.792969 10.128906 22.511719 C 9.859375 22.78125 9.730469 23.179688 9.820312 23.578125 L 13.980469 42.121094 C 14.015625 42.355469 14.125 42.582031 14.304688 42.761719 L 45.878906 74.390625 C 46.328125 74.84375 47.054688 74.84375 47.507812 74.390625 L 73.078125 48.773438 C 73.53125 48.324219 73.53125 47.589844 73.078125 47.140625 Z M 11.152344 16.167969 C 8.585938 13.59375 6.566406 10.992188 5.386719 8.863281 C 4.464844 7.203125 4.027344 5.988281 4.273438 5.570312 L 4.328125 5.519531 C 4.371094 5.476562 4.425781 5.445312 4.5 5.425781 C 4.863281 5.355469 5.617188 5.582031 6.628906 6.042969 L 7.074219 6.257812 L 7.679688 6.585938 C 9.804688 7.769531 12.40625 9.789062 14.96875 12.359375 C 15.546875 12.9375 16.101562 13.523438 16.613281 14.097656 C 16.925781 14.445312 17.222656 14.785156 17.503906 15.121094 C 16.304688 16.316406 15.109375 17.519531 13.914062 18.714844 C 13.003906 17.945312 12.074219 17.09375 11.152344 16.167969 Z M 70.636719 47.957031 L 46.691406 71.945312 L 16.167969 41.363281 L 12.199219 23.695312 L 14.085938 21.804688 C 15.226562 22.667969 16.320312 23.390625 17.328125 23.953125 C 17.613281 24.113281 17.894531 24.257812 18.167969 24.390625 C 18.289062 25.339844 18.714844 26.261719 19.441406 26.992188 C 20.316406 27.867188 21.460938 28.304688 22.605469 28.304688 C 23.75 28.304688 24.894531 27.867188 25.765625 26.992188 C 26.640625 26.117188 27.078125 24.972656 27.078125 23.824219 C 27.078125 22.675781 26.640625 21.53125 25.765625 20.65625 C 24.949219 19.839844 23.898438 19.402344 22.828125 19.351562 C 22.550781 19.230469 22.222656 19.222656 21.925781 19.355469 C 21.882812 19.375 21.84375 19.394531 21.800781 19.417969 C 20.9375 19.574219 20.109375 19.988281 19.441406 20.65625 C 19.046875 21.054688 18.742188 21.507812 18.523438 21.988281 C 18.496094 21.972656 18.46875 21.960938 18.441406 21.945312 C 17.601562 21.476562 16.683594 20.875 15.726562 20.160156 L 22.472656 13.402344 L 40.109375 17.375 Z M 21.691406 21.855469 C 21.769531 22.128906 21.816406 22.375 21.832031 22.59375 C 21.84375 22.820312 21.832031 22.964844 21.789062 23.011719 C 21.613281 23.183594 21.203125 23.15625 20.613281 22.960938 C 20.71875 22.71875 20.871094 22.488281 21.070312 22.289062 C 21.253906 22.101562 21.46875 21.960938 21.691406 21.855469 Z M 23.417969 24.640625 C 23.957031 24.097656 24.183594 23.355469 24.125 22.449219 C 24.121094 22.390625 24.113281 22.328125 24.109375 22.265625 C 24.117188 22.273438 24.128906 22.28125 24.136719 22.289062 C 24.558594 22.714844 24.773438 23.269531 24.773438 23.828125 C 24.773438 24.382812 24.558594 24.941406 24.136719 25.363281 C 23.714844 25.789062 23.15625 26 22.601562 26 C 22.046875 26 21.492188 25.789062 21.070312 25.363281 C 21.050781 25.34375 21.03125 25.324219 21.015625 25.304688 C 22.027344 25.414062 22.851562 25.207031 23.417969 24.640625 Z M 37.230469 33.996094 L 30.761719 40.476562 C 30.3125 40.929688 30.3125 41.65625 30.761719 42.109375 C 31.210938 42.558594 31.941406 42.558594 32.390625 42.109375 L 35.808594 38.683594 L 39.03125 41.914062 L 35.613281 45.335938 C 35.164062 45.789062 35.164062 46.519531 35.613281 46.96875 C 36.0625 47.417969 36.792969 47.417969 37.242188 46.96875 L 43.710938 40.488281 C 44.464844 39.734375 44.875 38.757812 44.933594 37.800781 C 44.992188 36.800781 44.660156 35.808594 43.933594 35.078125 L 42.632812 33.777344 C 41.902344 33.042969 40.914062 32.714844 39.914062 32.773438 C 38.957031 32.828125 37.984375 33.242188 37.230469 33.996094 Z M 41 35.40625 L 42.300781 36.710938 C 42.550781 36.957031 42.65625 37.308594 42.636719 37.675781 C 42.613281 38.085938 42.425781 38.511719 42.082031 38.859375 L 40.65625 40.285156 L 37.433594 37.054688 L 38.859375 35.628906 C 39.203125 35.285156 39.628906 35.097656 40.039062 35.074219 C 40.40625 35.050781 40.757812 35.164062 41 35.40625 Z M 32.015625 37.496094 C 31.230469 38.285156 30.214844 38.714844 29.21875 38.773438 C 28.175781 38.832031 27.148438 38.488281 26.390625 37.730469 L 25.304688 36.640625 C 24.546875 35.882812 24.203125 34.851562 24.261719 33.808594 L 24.261719 33.800781 C 24.320312 32.804688 24.75 31.789062 25.539062 31.003906 C 25.988281 30.550781 26.71875 30.550781 27.167969 31.003906 C 27.617188 31.453125 27.617188 32.183594 27.167969 32.632812 C 26.789062 33.011719 26.585938 33.484375 26.558594 33.9375 C 26.535156 34.34375 26.660156 34.734375 26.933594 35.011719 L 28.019531 36.097656 C 28.292969 36.375 28.683594 36.496094 29.09375 36.472656 C 29.542969 36.445312 30.011719 36.242188 30.386719 35.863281 C 30.765625 35.484375 30.96875 35.015625 30.996094 34.566406 C 31.019531 34.175781 30.910156 33.800781 30.664062 33.53125 L 29.535156 32.402344 C 28.777344 31.640625 28.433594 30.609375 28.492188 29.566406 C 28.550781 28.566406 28.980469 27.550781 29.769531 26.765625 C 30.554688 25.976562 31.566406 25.546875 32.5625 25.488281 L 32.59375 25.484375 C 33.628906 25.433594 34.644531 25.777344 35.398438 26.53125 L 36.484375 27.617188 C 37.242188 28.378906 37.585938 29.410156 37.523438 30.453125 C 37.46875 31.453125 37.035156 32.46875 36.25 33.253906 C 35.800781 33.707031 35.070312 33.707031 34.621094 33.253906 C 34.171875 32.804688 34.171875 32.074219 34.621094 31.625 C 34.996094 31.246094 35.203125 30.777344 35.230469 30.324219 C 35.253906 29.917969 35.128906 29.523438 34.855469 29.25 L 33.769531 28.164062 C 33.496094 27.890625 33.113281 27.765625 32.710938 27.785156 L 32.699219 27.785156 C 32.246094 27.8125 31.773438 28.015625 31.398438 28.394531 C 31.019531 28.773438 30.816406 29.242188 30.789062 29.695312 C 30.765625 30.101562 30.886719 30.492188 31.164062 30.769531 L 32.25 31.855469 L 32.320312 31.933594 C 33.03125 32.6875 33.347656 33.679688 33.292969 34.691406 C 33.234375 35.691406 32.800781 36.707031 32.015625 37.496094 Z M 44.582031 52.691406 Z M 38.101562 47.832031 L 46.566406 39.351562 C 47.015625 38.902344 47.746094 38.902344 48.195312 39.351562 C 48.644531 39.800781 48.644531 40.53125 48.195312 40.984375 L 40.546875 48.648438 L 44.582031 52.691406 C 45.03125 53.140625 45.03125 53.871094 44.582031 54.324219 C 44.132812 54.773438 43.40625 54.773438 42.953125 54.324219 L 38.101562 49.460938 C 37.652344 49.011719 37.652344 48.28125 38.101562 47.832031 Z M 49.675781 50.945312 L 53.90625 46.707031 C 54.359375 46.253906 55.085938 46.253906 55.535156 46.707031 L 60.386719 51.566406 C 60.839844 52.015625 60.839844 52.746094 60.386719 53.199219 C 59.9375 53.648438 59.210938 53.648438 58.761719 53.199219 L 54.722656 49.152344 L 52.117188 51.761719 L 55.304688 54.953125 C 55.757812 55.40625 55.757812 56.136719 55.304688 56.585938 C 54.855469 57.035156 54.128906 57.035156 53.675781 56.585938 L 50.488281 53.394531 L 47.886719 56 L 51.925781 60.046875 C 52.375 60.496094 52.375 61.226562 51.925781 61.675781 C 51.472656 62.128906 50.746094 62.128906 50.296875 61.675781 L 45.445312 56.816406 C 44.992188 56.367188 44.992188 55.636719 45.445312 55.183594 Z M 49.675781 50.945312 " fill-opacity="1" fill-rule="nonzero"/></g></svg>