<svg xmlns="http://www.w3.org/2000/svg" xmlns:xlink="http://www.w3.org/1999/xlink" width="100" zoomAndPan="magnify" viewBox="0 0 75 74.999997" height="100" preserveAspectRatio="xMidYMid meet" version="1.0"><defs><clipPath id="5b2e822b77"><path d="M 0 24.09375 L 75 24.09375 L 75 75 L 0 75 Z M 0 24.09375 " clip-rule="nonzero"/></clipPath></defs><g clip-path="url(#5b2e822b77)"><path fill="#000000" d="M 68.179688 29.546875 C 67.261719 26.125 63.75 24.09375 60.335938 25.007812 L 5.453125 39.742188 C 2.039062 40.660156 0.0117188 44.179688 0.925781 47.597656 L 6.820312 69.640625 C 7.734375 73.0625 11.25 75.09375 14.664062 74.175781 L 69.546875 59.445312 C 72.957031 58.527344 74.988281 55.007812 74.074219 51.585938 Z M 65.378906 30.296875 L 71.273438 52.339844 C 71.777344 54.210938 70.664062 56.140625 68.796875 56.640625 L 13.914062 71.375 C 12.042969 71.875 10.117188 70.761719 9.617188 68.890625 L 3.722656 46.847656 C 3.222656 44.976562 4.332031 43.046875 6.203125 42.542969 L 61.085938 27.8125 C 62.953125 27.308594 64.878906 28.421875 65.378906 30.296875 Z M 15.039062 47.054688 C 12.050781 47.964844 10.3125 50.503906 11.148438 53.628906 C 12.011719 56.855469 14.722656 57.382812 17.601562 57.777344 C 18.699219 57.945312 20.359375 58.070312 20.667969 59.375 C 20.929688 60.519531 20.207031 61.195312 19.304688 61.769531 L 19.625 62.960938 C 22.644531 62.082031 24.734375 59.296875 23.882812 56.113281 C 23.378906 54.222656 22.039062 52.507812 18.035156 52.085938 C 15.339844 51.796875 14.621094 51.328125 14.351562 50.320312 C 14.128906 49.480469 14.652344 48.722656 15.359375 48.246094 Z M 13.792969 63.511719 C 13.820312 63.617188 14.023438 64.375 14.65625 64.207031 C 15.171875 64.066406 14.929688 63.40625 15.585938 63.230469 C 16.324219 63.03125 16.90625 63.648438 18.699219 63.207031 L 18.382812 62.015625 C 16.476562 62.132812 14.785156 60.40625 14.058594 58.835938 C 13.902344 58.503906 13.527344 58.253906 13.117188 58.363281 C 12.542969 58.515625 12.613281 59.113281 12.730469 59.546875 Z M 33.09375 56.4375 C 33.492188 57.1875 33.449219 57.355469 33 57.804688 C 32.769531 58.023438 32.675781 58.15625 32.765625 58.484375 C 32.90625 59.019531 33.511719 58.902344 33.921875 58.792969 L 39.03125 57.421875 C 39.421875 57.316406 40.164062 57.136719 40.015625 56.582031 C 39.917969 56.214844 39.652344 56.128906 39.332031 56.082031 C 38.691406 55.992188 38.566406 55.605469 38.289062 55.0625 L 31.738281 42.902344 L 27.207031 44.117188 L 27.234375 45.300781 L 31.738281 53.828125 L 29.234375 54.5 L 29.265625 55.769531 L 32.261719 54.964844 Z M 27.257812 47.1875 L 27.195312 47.203125 L 27.148438 56.886719 C 27.148438 58.453125 26.71875 59.074219 26.351562 59.414062 C 25.957031 59.761719 25.605469 59.835938 25.738281 60.328125 C 25.894531 60.925781 26.640625 60.746094 27.050781 60.636719 L 29.410156 60.003906 C 29.820312 59.894531 30.480469 59.738281 30.328125 59.164062 C 30.21875 58.75 29.898438 58.703125 29.53125 58.648438 C 28.75 58.527344 28.371094 58.253906 28.363281 56.914062 L 28.410156 49.367188 Z M 43.824219 42.125 C 43.621094 41.363281 43.566406 41.246094 44.222656 40.828125 C 44.46875 40.671875 44.605469 40.4375 44.527344 40.152344 C 44.367188 39.554688 43.679688 39.695312 43.597656 39.71875 L 37.792969 41.277344 C 37.710938 41.296875 37.042969 41.519531 37.203125 42.117188 C 37.28125 42.40625 37.515625 42.539062 37.800781 42.550781 C 38.582031 42.585938 38.59375 42.710938 38.796875 43.472656 L 41.675781 54.242188 C 41.878906 55.003906 41.933594 55.121094 41.277344 55.539062 C 41.03125 55.695312 40.898438 55.929688 40.972656 56.214844 C 41.132812 56.8125 41.820312 56.671875 41.902344 56.648438 L 47.320312 55.195312 Z M 48.242188 54.949219 L 52.570312 53.785156 L 51.351562 49.222656 C 51.246094 48.832031 51.101562 48.453125 50.628906 48.578125 C 50.199219 48.695312 49.984375 48.886719 50.003906 49.363281 C 50.082031 51.390625 49.523438 53.082031 47.921875 53.753906 Z M 49.390625 38.84375 C 49.464844 39.132812 49.699219 39.269531 49.988281 39.28125 C 50.765625 39.3125 50.78125 39.441406 50.984375 40.203125 L 53.863281 50.972656 C 54.066406 51.730469 54.121094 51.851562 53.464844 52.269531 C 53.21875 52.421875 53.082031 52.65625 53.160156 52.945312 C 53.320312 53.539062 54.007812 53.398438 54.089844 53.378906 L 59.503906 51.925781 L 55.394531 36.550781 L 49.976562 38.003906 C 49.894531 38.027344 49.230469 38.25 49.390625 38.84375 Z M 60.429688 51.675781 L 65.148438 50.410156 L 64.046875 46.300781 C 64.027344 46.21875 63.921875 45.585938 63.265625 45.761719 C 62.894531 45.859375 62.859375 46.222656 62.800781 46.566406 C 62.6875 48.359375 61.714844 49.832031 60.109375 50.484375 Z M 58.492188 44.441406 C 59.414062 44.4375 60.019531 45.132812 60.414062 45.863281 C 60.609375 46.1875 60.820312 46.484375 61.25 46.367188 C 61.886719 46.195312 61.585938 45.484375 61.542969 45.320312 L 60.355469 40.878906 C 60.3125 40.714844 60.214844 39.949219 59.582031 40.117188 C 59.148438 40.234375 59.113281 40.597656 59.105469 40.972656 C 59.128906 41.804688 58.953125 42.710938 58.152344 43.167969 Z M 20.722656 46.519531 C 20.679688 46.355469 20.535156 45.644531 19.898438 45.816406 C 19.363281 45.957031 19.601562 46.6875 19.070312 46.832031 C 18.84375 46.890625 17.261719 46.480469 15.964844 46.804688 L 16.28125 47.996094 C 17.976562 47.917969 19.664062 49.136719 20.296875 50.597656 C 20.46875 50.992188 20.757812 51.332031 21.25 51.203125 C 21.84375 51.042969 21.789062 50.503906 21.664062 50.03125 Z M 56.636719 37.496094 C 58.519531 37.296875 59.832031 38.023438 60.8125 39.546875 C 60.996094 39.828125 61.15625 40.003906 61.503906 39.910156 C 62.117188 39.746094 62.035156 39.351562 62.007812 39.246094 L 60.890625 35.074219 L 56.316406 36.304688 L 56.636719 37.496094 " fill-opacity="1" fill-rule="evenodd"/></g></svg>