<svg xmlns="http://www.w3.org/2000/svg" xmlns:xlink="http://www.w3.org/1999/xlink" width="100" zoomAndPan="magnify" viewBox="0 0 75 74.999997" height="100" preserveAspectRatio="xMidYMid meet" version="1.0"><defs><clipPath id="742e032c80"><path d="M 18 11.75 L 57 11.75 L 57 60 L 18 60 Z M 18 11.75 " clip-rule="nonzero"/></clipPath><clipPath id="3d1fbd8fe6"><path d="M 11.75 36 L 27 36 L 27 57 L 11.75 57 Z M 11.75 36 " clip-rule="nonzero"/></clipPath><clipPath id="ad438509f8"><path d="M 13 58 L 23 58 L 23 63.5 L 13 63.5 Z M 13 58 " clip-rule="nonzero"/></clipPath><clipPath id="3856119af5"><path d="M 52 58 L 62 58 L 62 63.5 L 52 63.5 Z M 52 58 " clip-rule="nonzero"/></clipPath><clipPath id="956bd3c9d9"><path d="M 49 36 L 63.5 36 L 63.5 57 L 49 57 Z M 49 36 " clip-rule="nonzero"/></clipPath></defs><path fill="#fcc521" d="M 75 37.5 C 75 38.726562 74.941406 39.953125 74.820312 41.175781 C 74.699219 42.398438 74.519531 43.609375 74.28125 44.816406 C 74.039062 46.019531 73.742188 47.210938 73.386719 48.386719 C 73.027344 49.5625 72.617188 50.714844 72.144531 51.851562 C 71.675781 52.984375 71.152344 54.09375 70.570312 55.175781 C 69.992188 56.261719 69.363281 57.3125 68.679688 58.332031 C 67.996094 59.355469 67.265625 60.339844 66.488281 61.289062 C 65.707031 62.238281 64.886719 63.148438 64.015625 64.015625 C 63.148438 64.886719 62.238281 65.707031 61.289062 66.488281 C 60.339844 67.265625 59.355469 67.996094 58.332031 68.679688 C 57.3125 69.363281 56.261719 69.992188 55.175781 70.570312 C 54.09375 71.152344 52.984375 71.675781 51.851562 72.144531 C 50.714844 72.617188 49.5625 73.027344 48.386719 73.386719 C 47.210938 73.742188 46.019531 74.039062 44.816406 74.28125 C 43.609375 74.519531 42.398438 74.699219 41.175781 74.820312 C 39.953125 74.941406 38.726562 75 37.5 75 C 36.273438 75 35.046875 74.941406 33.824219 74.820312 C 32.601562 74.699219 31.390625 74.519531 30.183594 74.28125 C 28.980469 74.039062 27.789062 73.742188 26.613281 73.386719 C 25.4375 73.027344 24.285156 72.617188 23.148438 72.144531 C 22.015625 71.675781 20.90625 71.152344 19.824219 70.570312 C 18.738281 69.992188 17.6875 69.363281 16.667969 68.679688 C 15.644531 67.996094 14.660156 67.265625 13.710938 66.488281 C 12.761719 65.707031 11.851562 64.886719 10.984375 64.015625 C 10.113281 63.148438 9.292969 62.238281 8.511719 61.289062 C 7.734375 60.339844 7.003906 59.355469 6.320312 58.332031 C 5.636719 57.3125 5.007812 56.261719 4.429688 55.175781 C 3.847656 54.09375 3.324219 52.984375 2.855469 51.851562 C 2.382812 50.714844 1.972656 49.5625 1.613281 48.386719 C 1.257812 47.210938 0.960938 46.019531 0.71875 44.816406 C 0.480469 43.609375 0.300781 42.398438 0.179688 41.175781 C 0.0585938 39.953125 0 38.726562 0 37.5 C 0 36.273438 0.0585938 35.046875 0.179688 33.824219 C 0.300781 32.601562 0.480469 31.390625 0.71875 30.183594 C 0.960938 28.980469 1.257812 27.789062 1.613281 26.613281 C 1.972656 25.4375 2.382812 24.285156 2.855469 23.148438 C 3.324219 22.015625 3.847656 20.90625 4.429688 19.824219 C 5.007812 18.738281 5.636719 17.6875 6.320312 16.667969 C 7.003906 15.644531 7.734375 14.660156 8.511719 13.710938 C 9.292969 12.761719 10.113281 11.851562 10.984375 10.984375 C 11.851562 10.113281 12.761719 9.292969 13.710938 8.511719 C 14.660156 7.734375 15.644531 7.003906 16.667969 6.320312 C 17.6875 5.636719 18.738281 5.007812 19.824219 4.429688 C 20.90625 3.847656 22.015625 3.324219 23.148438 2.855469 C 24.285156 2.382812 25.4375 1.972656 26.613281 1.613281 C 27.789062 1.257812 28.980469 0.960938 30.183594 0.71875 C 31.390625 0.480469 32.601562 0.300781 33.824219 0.179688 C 35.046875 0.0585938 36.273438 0 37.5 0 C 38.726562 0 39.953125 0.0585938 41.175781 0.179688 C 42.398438 0.300781 43.609375 0.480469 44.816406 0.71875 C 46.019531 0.960938 47.210938 1.257812 48.386719 1.613281 C 49.5625 1.972656 50.714844 2.382812 51.851562 2.855469 C 52.984375 3.324219 54.09375 3.847656 55.175781 4.429688 C 56.261719 5.007812 57.3125 5.636719 58.332031 6.320312 C 59.355469 7.003906 60.339844 7.734375 61.289062 8.511719 C 62.238281 9.292969 63.148438 10.113281 64.015625 10.984375 C 64.886719 11.851562 65.707031 12.761719 66.488281 13.710938 C 67.265625 14.660156 67.996094 15.644531 68.679688 16.667969 C 69.363281 17.6875 69.992188 18.738281 70.570312 19.824219 C 71.152344 20.90625 71.675781 22.015625 72.144531 23.148438 C 72.617188 24.285156 73.027344 25.4375 73.386719 26.613281 C 73.742188 27.789062 74.039062 28.980469 74.28125 30.183594 C 74.519531 31.390625 74.699219 32.601562 74.820312 33.824219 C 74.941406 35.046875 75 36.273438 75 37.5 Z M 75 37.5 " fill-opacity="1" fill-rule="nonzero"/><g clip-path="url(#742e032c80)"><path fill="#ffffff" d="M 52 54.960938 C 50.15625 56.976562 47.550781 58.144531 44.761719 58.144531 C 39.347656 58.144531 34.945312 53.742188 34.945312 48.332031 C 34.945312 42.917969 39.347656 38.515625 44.761719 38.515625 C 45.75 38.515625 46.710938 38.660156 47.636719 38.945312 C 47.507812 38.527344 47.4375 38.082031 47.4375 37.625 C 47.4375 36.148438 48.640625 34.945312 50.113281 34.945312 L 56.359375 34.945312 L 56.359375 20.671875 L 47.4375 20.671875 L 47.4375 11.75 L 18.886719 11.75 L 18.886719 34.945312 L 25.132812 34.945312 C 26.609375 34.945312 27.808594 36.148438 27.808594 37.625 C 27.808594 40.050781 25.859375 42.03125 23.441406 42.082031 L 24.1875 49.5625 C 24.222656 49.898438 24.238281 50.242188 24.238281 50.578125 C 24.238281 52.632812 23.605469 54.667969 22.445312 56.359375 L 24.238281 56.359375 L 24.238281 59.929688 L 51.007812 59.929688 L 51.007812 56.359375 L 52.800781 56.359375 C 52.496094 55.914062 52.230469 55.445312 52 54.960938 Z M 38.515625 34.945312 L 36.730469 34.945312 L 36.730469 33.160156 L 38.515625 33.160156 Z M 42.085938 34.945312 L 40.300781 34.945312 L 40.300781 33.160156 L 42.085938 33.160156 Z M 45.652344 27.808594 L 43.867188 27.808594 L 43.867188 26.023438 L 45.652344 26.023438 Z M 20.671875 13.53125 L 45.652344 13.53125 L 45.652344 20.671875 L 20.671875 20.671875 Z M 20.671875 22.457031 L 45.652344 22.457031 L 45.652344 24.238281 L 20.671875 24.238281 Z M 20.671875 26.023438 L 42.085938 26.023438 L 42.085938 27.808594 L 20.671875 27.808594 Z M 20.671875 31.378906 L 20.671875 29.59375 L 45.652344 29.59375 L 45.652344 31.378906 Z M 31.378906 34.945312 L 29.59375 34.945312 L 29.59375 33.160156 L 31.378906 33.160156 Z M 33.160156 33.160156 L 34.945312 33.160156 L 34.945312 34.945312 L 33.160156 34.945312 Z M 33.160156 33.160156 " fill-opacity="1" fill-rule="nonzero"/></g><path fill="#ffffff" d="M 45.925781 42.195312 C 46.121094 41.601562 46.417969 41.050781 46.800781 40.5625 C 46.140625 40.390625 45.457031 40.300781 44.761719 40.300781 C 40.332031 40.300781 36.730469 43.902344 36.730469 48.332031 C 36.730469 49.328125 36.914062 50.28125 37.25 51.164062 L 38.675781 49.738281 C 38.570312 49.277344 38.515625 48.808594 38.515625 48.332031 C 38.515625 44.886719 41.316406 42.085938 44.761719 42.085938 C 45.152344 42.085938 45.542969 42.121094 45.925781 42.195312 Z M 45.925781 42.195312 " fill-opacity="1" fill-rule="nonzero"/><path fill="#ffffff" d="M 48.941406 40.960938 C 48.015625 41.625 47.4375 42.707031 47.4375 43.867188 C 47.4375 45.835938 49.039062 47.4375 51.007812 47.4375 C 51.09375 47.4375 51.183594 47.433594 51.269531 47.425781 L 51.511719 45.03125 C 51.191406 44.417969 51.007812 43.71875 51.007812 42.976562 C 51.007812 42.644531 51.042969 42.324219 51.113281 42.011719 C 50.289062 41.867188 49.542969 41.492188 48.941406 40.960938 Z M 48.941406 40.960938 " fill-opacity="1" fill-rule="nonzero"/><path fill="#ffffff" d="M 22.457031 15.316406 L 43.867188 15.316406 L 43.867188 18.886719 L 22.457031 18.886719 Z M 22.457031 15.316406 " fill-opacity="1" fill-rule="nonzero"/><path fill="#ffffff" d="M 49.222656 13.011719 L 49.222656 18.886719 L 55.097656 18.886719 Z M 49.222656 13.011719 " fill-opacity="1" fill-rule="nonzero"/><g clip-path="url(#3d1fbd8fe6)"><path fill="#ffffff" d="M 15.027344 56.359375 L 20.222656 56.359375 L 20.769531 55.632812 C 21.855469 54.183594 22.457031 52.390625 22.457031 50.578125 C 22.457031 50.300781 22.441406 50.019531 22.414062 49.742188 L 21.648438 42.085938 L 21.242188 42.085938 C 19.941406 42.085938 18.886719 43.140625 18.886719 44.441406 C 18.886719 44.59375 18.902344 44.75 18.933594 44.902344 L 19.855469 49.515625 L 16.839844 52.53125 L 15.578125 51.269531 L 17.917969 48.929688 L 17.183594 45.25 C 17.128906 44.984375 17.101562 44.710938 17.101562 44.441406 C 17.101562 42.15625 18.957031 40.300781 21.242188 40.300781 L 23.347656 40.300781 C 24.824219 40.300781 26.023438 39.097656 26.023438 37.625 C 26.023438 37.132812 25.625 36.730469 25.132812 36.730469 L 18.886719 36.730469 C 18.503906 36.730469 18.121094 36.859375 17.816406 37.089844 L 13.734375 40.148438 C 12.488281 41.082031 11.75 42.566406 11.75 44.117188 C 11.75 44.480469 11.789062 44.84375 11.867188 45.195312 L 13.359375 51.914062 C 13.449219 52.320312 13.574219 52.722656 13.730469 53.109375 Z M 15.027344 56.359375 " fill-opacity="1" fill-rule="nonzero"/></g><g clip-path="url(#ad438509f8)"><path fill="#ffffff" d="M 13.53125 58.144531 L 22.457031 58.144531 L 22.457031 63.5 L 13.53125 63.5 Z M 13.53125 58.144531 " fill-opacity="1" fill-rule="nonzero"/></g><path fill="#ffffff" d="M 44.539062 43.875 C 42.253906 43.988281 40.417969 45.824219 40.304688 48.109375 Z M 44.539062 43.875 " fill-opacity="1" fill-rule="nonzero"/><g clip-path="url(#3856119af5)"><path fill="#ffffff" d="M 52.792969 58.144531 L 61.714844 58.144531 L 61.714844 63.5 L 52.792969 63.5 Z M 52.792969 58.144531 " fill-opacity="1" fill-rule="nonzero"/></g><path fill="#ffffff" d="M 39.273438 54.1875 L 46.582031 46.878906 C 46.226562 46.355469 45.960938 45.765625 45.804688 45.132812 L 38.109375 52.828125 C 38.449219 53.320312 38.839844 53.777344 39.273438 54.1875 Z M 39.273438 54.1875 " fill-opacity="1" fill-rule="nonzero"/><path fill="#ffffff" d="M 51.300781 52.992188 C 51.105469 52.203125 51.007812 51.394531 51.007812 50.578125 C 51.007812 50.242188 51.023438 49.898438 51.058594 49.5625 L 51.09375 49.21875 C 51.0625 49.21875 51.035156 49.222656 51.007812 49.222656 C 50.984375 49.222656 50.964844 49.222656 50.941406 49.222656 C 50.507812 52.246094 47.902344 54.574219 44.761719 54.574219 C 43.808594 54.574219 42.878906 54.359375 42.035156 53.949219 L 40.71875 55.265625 C 41.90625 55.960938 43.289062 56.359375 44.761719 56.359375 C 47.375 56.359375 49.789062 55.109375 51.300781 52.992188 Z M 51.300781 52.992188 " fill-opacity="1" fill-rule="nonzero"/><g clip-path="url(#956bd3c9d9)"><path fill="#ffffff" d="M 61.515625 40.148438 L 57.429688 37.089844 C 57.125 36.859375 56.742188 36.730469 56.359375 36.730469 L 50.113281 36.730469 C 49.621094 36.730469 49.222656 37.132812 49.222656 37.625 C 49.222656 39.097656 50.421875 40.300781 51.898438 40.300781 L 51.902344 40.300781 C 52.714844 39.21875 54.011719 38.515625 55.46875 38.515625 C 57.929688 38.515625 59.929688 40.515625 59.929688 42.976562 C 59.929688 44.601562 59.054688 46.027344 57.753906 46.804688 L 57.328125 48.929688 L 59.667969 51.269531 L 58.40625 52.53125 L 55.390625 49.515625 L 55.808594 47.421875 C 55.695312 47.433594 55.582031 47.4375 55.46875 47.4375 C 54.609375 47.4375 53.808594 47.195312 53.128906 46.773438 L 52.832031 49.742188 C 52.804688 50.019531 52.792969 50.300781 52.792969 50.578125 C 52.792969 52.390625 53.390625 54.183594 54.476562 55.632812 L 55.023438 56.359375 L 60.21875 56.359375 L 61.515625 53.109375 C 61.671875 52.722656 61.796875 52.320312 61.886719 51.914062 L 63.378906 45.195312 C 63.457031 44.84375 63.5 44.480469 63.5 44.117188 C 63.5 42.566406 62.757812 41.082031 61.515625 40.148438 Z M 61.515625 40.148438 " fill-opacity="1" fill-rule="nonzero"/></g><path fill="#ffffff" d="M 58.144531 42.976562 C 58.144531 43.332031 58.078125 43.671875 57.941406 44 C 57.804688 44.328125 57.613281 44.617188 57.359375 44.871094 C 57.109375 45.121094 56.820312 45.3125 56.492188 45.449219 C 56.164062 45.585938 55.824219 45.652344 55.46875 45.652344 C 55.113281 45.652344 54.773438 45.585938 54.445312 45.449219 C 54.117188 45.3125 53.828125 45.121094 53.574219 44.871094 C 53.324219 44.617188 53.132812 44.328125 52.996094 44 C 52.859375 43.671875 52.792969 43.332031 52.792969 42.976562 C 52.792969 42.621094 52.859375 42.28125 52.996094 41.953125 C 53.132812 41.625 53.324219 41.335938 53.574219 41.082031 C 53.828125 40.832031 54.117188 40.640625 54.445312 40.503906 C 54.773438 40.367188 55.113281 40.300781 55.46875 40.300781 C 55.824219 40.300781 56.164062 40.367188 56.492188 40.503906 C 56.820312 40.640625 57.109375 40.832031 57.359375 41.082031 C 57.613281 41.335938 57.804688 41.625 57.941406 41.953125 C 58.078125 42.28125 58.144531 42.621094 58.144531 42.976562 Z M 58.144531 42.976562 " fill-opacity="1" fill-rule="nonzero"/><path fill="#ffffff" d="M 44.761719 52.792969 C 47.027344 52.792969 48.902344 51.09375 49.183594 48.902344 C 48.691406 48.722656 48.230469 48.472656 47.816406 48.167969 L 43.40625 52.578125 C 43.839844 52.71875 44.296875 52.792969 44.761719 52.792969 Z M 44.761719 52.792969 " fill-opacity="1" fill-rule="nonzero"/></svg>