<svg xmlns="http://www.w3.org/2000/svg" xmlns:xlink="http://www.w3.org/1999/xlink" width="100" zoomAndPan="magnify" viewBox="0 0 75 74.999997" height="100" preserveAspectRatio="xMidYMid meet" version="1.0"><defs><clipPath id="6cb2e865fb"><path d="M 2.507812 2.507812 L 75 2.507812 L 75 75 L 2.507812 75 Z M 2.507812 2.507812 " clip-rule="nonzero"/></clipPath></defs><path fill="#000000" d="M 63.148438 51.007812 L 60.722656 51.007812 L 60.722656 53.433594 L 54.660156 53.433594 L 54.660156 46.15625 L 52.234375 46.15625 L 52.234375 53.433594 L 46.171875 53.433594 L 46.171875 51.007812 L 43.746094 51.007812 L 43.746094 53.433594 L 40.109375 53.433594 L 40.109375 55.855469 L 43.746094 55.855469 L 43.746094 58.28125 L 42.535156 58.28125 C 41.867188 58.28125 41.320312 58.828125 41.320312 59.496094 L 41.320312 74.042969 C 41.320312 74.710938 41.867188 75.257812 42.535156 75.257812 L 64.359375 75.257812 C 65.027344 75.257812 65.570312 74.710938 65.570312 74.042969 L 65.570312 59.496094 C 65.570312 58.828125 65.027344 58.28125 64.359375 58.28125 L 63.148438 58.28125 L 63.148438 55.855469 L 66.785156 55.855469 L 66.785156 53.433594 L 63.148438 53.433594 Z M 46.171875 55.855469 L 52.234375 55.855469 L 52.234375 58.28125 L 46.171875 58.28125 Z M 55.871094 72.832031 L 51.023438 72.832031 L 51.023438 66.769531 L 55.871094 66.769531 Z M 63.148438 72.832031 L 58.296875 72.832031 L 58.296875 65.558594 C 58.296875 64.890625 57.75 64.34375 57.085938 64.34375 L 49.808594 64.34375 C 49.144531 64.34375 48.597656 64.890625 48.597656 65.558594 L 48.597656 72.832031 L 43.746094 72.832031 L 43.746094 60.707031 L 63.148438 60.707031 Z M 60.722656 58.28125 L 54.660156 58.28125 L 54.660156 55.855469 L 60.722656 55.855469 Z M 60.722656 58.28125 " fill-opacity="1" fill-rule="nonzero"/><g clip-path="url(#6cb2e865fb)"><path fill="#000000" d="M 74.621094 45.109375 L 65.570312 39.683594 L 65.570312 30.394531 L 66.785156 30.394531 C 67.453125 30.394531 67.996094 29.847656 67.996094 29.183594 L 67.996094 25.542969 L 69.210938 25.542969 C 69.875 25.542969 70.421875 25 70.421875 24.332031 L 70.421875 17.058594 C 70.421875 16.390625 69.875 15.84375 69.210938 15.84375 L 62.117188 15.84375 L 19.859375 2.566406 C 19.816406 2.550781 19.753906 2.539062 19.695312 2.523438 C 19.695312 2.523438 19.679688 2.523438 19.679688 2.523438 C 19.617188 2.507812 19.574219 2.507812 19.511719 2.507812 C 19.511719 2.507812 19.496094 2.507812 19.496094 2.507812 C 19.480469 2.507812 19.46875 2.507812 19.46875 2.507812 C 19.421875 2.507812 19.375 2.507812 19.332031 2.523438 C 19.316406 2.523438 19.285156 2.523438 19.269531 2.539062 C 19.222656 2.550781 19.179688 2.550781 19.132812 2.566406 C 19.117188 2.566406 19.101562 2.566406 19.089844 2.582031 C 19.027344 2.597656 18.980469 2.628906 18.921875 2.660156 C 18.90625 2.660156 18.90625 2.671875 18.890625 2.671875 C 18.84375 2.703125 18.816406 2.71875 18.769531 2.75 C 18.753906 2.765625 18.738281 2.78125 18.722656 2.78125 C 18.710938 2.796875 18.695312 2.808594 18.664062 2.824219 L 4.476562 15.84375 L 3.734375 15.84375 C 3.066406 15.84375 2.523438 16.390625 2.523438 17.058594 L 2.523438 31.605469 C 2.523438 32.273438 3.066406 32.820312 3.734375 32.820312 L 11.007812 32.820312 C 11.675781 32.820312 12.222656 32.273438 12.222656 31.605469 L 12.222656 25.542969 L 14.648438 25.542969 L 14.648438 65.558594 L 11.007812 65.558594 C 10.34375 65.558594 9.796875 66.101562 9.796875 66.769531 L 9.796875 74.042969 C 9.796875 74.710938 10.34375 75.257812 11.007812 75.257812 L 27.984375 75.257812 C 28.652344 75.257812 29.195312 74.710938 29.195312 74.042969 L 29.195312 66.769531 C 29.195312 66.101562 28.652344 65.558594 27.984375 65.558594 L 24.347656 65.558594 L 24.347656 25.542969 L 60.722656 25.542969 L 60.722656 29.183594 C 60.722656 29.847656 61.269531 30.394531 61.933594 30.394531 L 63.148438 30.394531 L 63.148438 38.230469 L 56.433594 34.199219 C 55.949219 33.910156 55.339844 33.988281 54.949219 34.378906 L 51.308594 38.019531 C 51.050781 38.277344 50.917969 38.65625 50.960938 39.019531 C 51.007812 39.382812 51.21875 39.714844 51.539062 39.914062 L 69.726562 50.824219 C 69.921875 50.945312 70.132812 50.992188 70.347656 50.992188 C 70.664062 50.992188 70.96875 50.871094 71.210938 50.644531 L 74.847656 47.003906 C 75.105469 46.75 75.242188 46.371094 75.195312 46.003906 C 75.167969 45.640625 74.953125 45.308594 74.621094 45.109375 Z M 65.570312 27.96875 L 63.148438 27.96875 L 63.148438 25.542969 L 65.570312 25.542969 Z M 20.890625 13.417969 L 18.117188 13.417969 L 19.511719 8.328125 Z M 19.496094 15.84375 L 20.96875 15.84375 C 22.5 15.84375 23.800781 16.875 24.210938 18.269531 L 19.496094 18.269531 Z M 26.695312 18.269531 L 29.910156 18.269531 L 26.773438 21.40625 L 26.773438 19.238281 C 26.773438 18.90625 26.742188 18.585938 26.695312 18.269531 Z M 63.148438 18.269531 L 66.285156 18.269531 L 63.148438 21.40625 Z M 55.871094 18.269531 L 59.007812 18.269531 L 55.871094 21.40625 Z M 48.597656 18.269531 L 51.734375 18.269531 L 48.597656 21.40625 Z M 41.320312 18.269531 L 44.460938 18.269531 L 41.320312 21.40625 Z M 34.046875 18.269531 L 37.183594 18.269531 L 34.046875 21.40625 Z M 31.621094 19.980469 L 31.621094 23.121094 L 28.484375 23.121094 Z M 38.898438 19.980469 L 38.898438 23.121094 L 35.761719 23.121094 Z M 46.171875 19.980469 L 46.171875 23.121094 L 43.035156 23.121094 Z M 53.445312 19.980469 L 53.445312 23.121094 L 50.308594 23.121094 Z M 60.722656 19.980469 L 60.722656 23.121094 L 57.585938 23.121094 Z M 64.859375 23.121094 L 67.996094 19.980469 L 67.996094 23.121094 Z M 25.679688 15.84375 C 25.136719 15.085938 24.40625 14.464844 23.574219 14.039062 L 21.253906 5.539062 L 54.039062 15.84375 Z M 17.222656 7.449219 L 15.601562 13.417969 L 13.433594 13.417969 C 12.769531 13.417969 12.222656 13.964844 12.222656 14.632812 L 12.222656 15.84375 L 8.070312 15.84375 Z M 4.945312 18.269531 L 7.371094 18.269531 L 7.371094 23.121094 L 4.945312 23.121094 Z M 9.796875 18.269531 L 12.222656 18.269531 L 12.222656 23.121094 L 9.796875 23.121094 Z M 9.796875 30.394531 L 4.945312 30.394531 L 4.945312 25.542969 L 9.796875 25.542969 Z M 20.210938 25.542969 L 17.070312 28.683594 L 17.070312 25.542969 Z M 21.921875 51.007812 L 18.785156 51.007812 L 21.921875 47.871094 Z M 17.070312 46.15625 L 20.210938 46.15625 L 17.070312 49.292969 Z M 17.070312 38.882812 L 20.210938 38.882812 L 17.070312 42.019531 Z M 17.070312 53.433594 L 20.210938 53.433594 L 17.070312 56.570312 Z M 21.921875 43.730469 L 18.785156 43.730469 L 21.921875 40.59375 Z M 21.921875 36.457031 L 19.210938 36.457031 L 21.921875 34.199219 Z M 17.070312 35.078125 L 17.070312 32.820312 L 19.785156 32.820312 Z M 17.070312 60.707031 L 20.210938 60.707031 L 17.070312 63.84375 Z M 18.785156 58.28125 L 21.921875 55.144531 L 21.921875 58.28125 Z M 21.921875 30.394531 L 18.785156 30.394531 L 21.921875 27.257812 Z M 26.773438 72.832031 L 12.222656 72.832031 L 12.222656 67.980469 L 26.773438 67.980469 Z M 18.785156 65.558594 L 21.921875 62.417969 L 21.921875 65.558594 Z M 14.648438 23.121094 L 14.648438 15.84375 L 17.070312 15.84375 L 17.070312 19.480469 C 17.070312 20.148438 17.617188 20.695312 18.285156 20.695312 L 24.347656 20.695312 L 24.347656 23.121094 Z M 70.179688 48.265625 L 54.128906 38.640625 L 55.992188 36.773438 L 72.042969 46.398438 Z M 70.179688 48.265625 " fill-opacity="1" fill-rule="nonzero"/></g></svg>