<svg xmlns="http://www.w3.org/2000/svg" xmlns:xlink="http://www.w3.org/1999/xlink" width="100" zoomAndPan="magnify" viewBox="0 0 75 74.999997" height="100" preserveAspectRatio="xMidYMid meet" version="1.0"><defs><clipPath id="6175721d29"><path d="M 0 2 L 75 2 L 75 73.03125 L 0 73.03125 Z M 0 2 " clip-rule="nonzero"/></clipPath><clipPath id="2d4e86bc55"><path d="M 0 1.78125 L 75 1.78125 L 75 73 L 0 73 Z M 0 1.78125 " clip-rule="nonzero"/></clipPath></defs><g clip-path="url(#6175721d29)"><path fill="#fcc521" d="M 37.597656 2.027344 L 49.152344 25.390625 L 75 29.136719 L 56.292969 47.332031 L 60.722656 73.007812 L 37.597656 60.886719 L 14.457031 73.007812 L 18.875 47.332031 L 0.179688 29.136719 L 26.027344 25.390625 Z M 37.597656 2.027344 " fill-opacity="1" fill-rule="nonzero"/></g><g clip-path="url(#2d4e86bc55)"><path fill="#fcc521" d="M 37.417969 1.804688 L 48.988281 25.164062 L 74.835938 28.914062 L 56.125 47.109375 L 60.542969 72.785156 L 37.417969 60.664062 L 14.292969 72.785156 L 18.707031 47.109375 L 0 28.914062 L 25.847656 25.164062 Z M 37.417969 1.804688 " fill-opacity="1" fill-rule="nonzero"/><path fill="#fcc521" d="M 37.417969 1.804688 L 48.988281 25.164062 L 74.835938 28.914062 L 56.125 47.109375 L 60.542969 72.785156 L 37.417969 60.664062 L 14.292969 72.785156 L 18.707031 47.109375 L 0 28.914062 L 25.847656 25.164062 Z M 37.417969 1.804688 " fill-opacity="1" fill-rule="nonzero"/><path fill="#fcc521" d="M 37.417969 1.804688 L 48.988281 25.164062 L 74.835938 28.914062 L 56.125 47.109375 L 60.542969 72.785156 L 37.417969 60.664062 L 14.292969 72.785156 L 18.707031 47.109375 L 0 28.914062 L 25.847656 25.164062 Z M 37.417969 1.804688 " fill-opacity="1" fill-rule="nonzero"/></g></svg>