<svg xmlns="http://www.w3.org/2000/svg" xmlns:xlink="http://www.w3.org/1999/xlink" width="100" zoomAndPan="magnify" viewBox="0 0 75 74.999997" height="100" preserveAspectRatio="xMidYMid meet" version="1.0"><path fill="#ffffff" d="M 37.515625 0.0078125 C 16.835938 0.0078125 0.015625 16.832031 0.015625 37.511719 C 0.015625 58.191406 16.835938 75.015625 37.515625 75.015625 C 58.195312 75.015625 75.019531 58.191406 75.019531 37.511719 C 75.019531 16.832031 58.195312 0.0078125 37.515625 0.0078125 Z M 37.515625 2.511719 C 56.847656 2.511719 72.519531 18.179688 72.519531 37.511719 C 72.519531 56.839844 56.847656 72.511719 37.515625 72.511719 C 18.1875 72.511719 2.515625 56.839844 2.515625 37.511719 C 2.515625 18.179688 18.1875 2.511719 37.515625 2.511719 " fill-opacity="1" fill-rule="nonzero"/><path fill="#ffffff" d="M 58.167969 57.226562 C 60.871094 54.457031 57.769531 51.800781 55.40625 49.355469 C 53.390625 47.265625 50.074219 43.753906 46.851562 44.136719 C 45.0625 44.347656 43.667969 46.160156 41.894531 46.722656 C 39.632812 47.4375 37.445312 46.925781 35.625 45.421875 C 34.40625 44.417969 33.113281 43.203125 31.925781 41.917969 C 30.703125 40.664062 29.5625 39.308594 28.621094 38.035156 C 27.222656 36.136719 26.828125 33.925781 27.664062 31.707031 C 28.316406 29.964844 30.203125 28.667969 30.511719 26.894531 C 31.0625 23.695312 27.734375 20.195312 25.753906 18.070312 C 23.4375 15.582031 20.953125 12.34375 18.042969 14.894531 C 18 14.933594 16.441406 16.414062 16.398438 16.457031 C 13.460938 19.199219 12.667969 23.710938 13.347656 27.53125 C 13.597656 28.925781 13.988281 30.289062 14.480469 31.617188 C 16.710938 37.601562 20.910156 43.390625 25.398438 48.101562 C 29.863281 52.839844 35.421875 57.339844 41.277344 59.886719 C 42.578125 60.453125 43.917969 60.914062 45.296875 61.238281 C 49.074219 62.121094 53.625 61.570312 56.519531 58.785156 C 56.5625 58.746094 58.125 57.265625 58.167969 57.226562 " fill-opacity="1" fill-rule="nonzero"/><path fill="#ffffff" d="M 51.269531 38.742188 C 50.613281 38.742188 50.058594 38.226562 50.023438 37.5625 C 49.855469 34.773438 48.707031 32.121094 46.789062 30.09375 C 44.867188 28.070312 42.28125 26.78125 39.503906 26.464844 C 38.816406 26.390625 38.324219 25.769531 38.402344 25.082031 C 38.476562 24.394531 39.09375 23.90625 39.785156 23.980469 C 43.148438 24.359375 46.28125 25.921875 48.605469 28.371094 C 50.929688 30.824219 52.320312 34.035156 52.519531 37.414062 C 52.5625 38.105469 52.035156 38.699219 51.34375 38.738281 C 51.320312 38.738281 51.292969 38.742188 51.269531 38.742188 " fill-opacity="1" fill-rule="nonzero"/><path fill="#ffffff" d="M 59.148438 39.933594 C 58.492188 39.933594 57.941406 39.421875 57.902344 38.753906 C 57.601562 33.671875 55.507812 28.835938 52.011719 25.144531 C 48.511719 21.453125 43.796875 19.105469 38.734375 18.535156 C 38.046875 18.457031 37.554688 17.835938 37.632812 17.148438 C 37.710938 16.460938 38.332031 15.964844 39.015625 16.046875 C 44.664062 16.683594 49.921875 19.304688 53.824219 23.425781 C 57.730469 27.542969 60.066406 32.933594 60.398438 38.605469 C 60.441406 39.296875 59.914062 39.890625 59.226562 39.929688 C 59.199219 39.933594 59.175781 39.933594 59.148438 39.933594 " fill-opacity="1" fill-rule="nonzero"/></svg>